<?xml version="1.0" encoding="utf-8" standalone="no"?>
<!DOCTYPE svg PUBLIC "-//W3C//DTD SVG 1.1//EN"
  "http://www.w3.org/Graphics/SVG/1.1/DTD/svg11.dtd">
<svg xmlns:xlink="http://www.w3.org/1999/xlink" width="246.611406pt" height="181.760781pt" viewBox="0 0 246.611406 181.760781" xmlns="http://www.w3.org/2000/svg" version="1.1">
 <metadata>
  <rdf:RDF xmlns:dc="http://purl.org/dc/elements/1.1/" xmlns:cc="http://creativecommons.org/ns#" xmlns:rdf="http://www.w3.org/1999/02/22-rdf-syntax-ns#">
   <cc:Work>
    <dc:type rdf:resource="http://purl.org/dc/dcmitype/StillImage"/>
    <dc:date>2026-05-06T06:34:50.110101</dc:date>
    <dc:format>image/svg+xml</dc:format>
    <dc:creator>
     <cc:Agent>
      <dc:title>Matplotlib v3.10.7, https://matplotlib.org/</dc:title>
     </cc:Agent>
    </dc:creator>
   </cc:Work>
  </rdf:RDF>
 </metadata>
 <defs>
  <style type="text/css">*{stroke-linejoin: round; stroke-linecap: butt}</style>
 </defs>
 <g id="figure_1">
  <g id="patch_1">
   <path d="M 0 181.760781 
L 246.611406 181.760781 
L 246.611406 0 
L 0 0 
z
" style="fill: #ffffff"/>
  </g>
  <g id="axes_1">
   <g id="patch_2">
    <path d="M 32.891406 151.62 
L 239.411406 151.62 
L 239.411406 7.2 
L 32.891406 7.2 
z
" style="fill: #ffffff"/>
   </g>
   <g id="matplotlib.axis_1">
    <g id="xtick_1">
     <g id="line2d_1">
      <defs>
       <path id="m7ebc8a8661" d="M 0 0 
L 0 -3 
" style="stroke: #000000; stroke-width: 0.7"/>
      </defs>
      <g>
       <use xlink:href="#m7ebc8a8661" x="41.335234" y="151.62" style="stroke: #000000; stroke-width: 0.7"/>
      </g>
     </g>
     <g id="text_1">
      <text style="font-size: 8px; font-family: 'Times New Roman', 'CMU Serif', 'DejaVu Serif', serif; text-anchor: middle" x="41.335234" y="160.675" transform="rotate(-0 41.335234 160.675)">0</text>
     </g>
    </g>
    <g id="xtick_2">
     <g id="line2d_2">
      <g>
       <use xlink:href="#m7ebc8a8661" x="88.507459" y="151.62" style="stroke: #000000; stroke-width: 0.7"/>
      </g>
     </g>
     <g id="text_2">
      <text style="font-size: 8px; font-family: 'Times New Roman', 'CMU Serif', 'DejaVu Serif', serif; text-anchor: middle" x="88.507459" y="160.675" transform="rotate(-0 88.507459 160.675)">50</text>
     </g>
    </g>
    <g id="xtick_3">
     <g id="line2d_3">
      <g>
       <use xlink:href="#m7ebc8a8661" x="135.679684" y="151.62" style="stroke: #000000; stroke-width: 0.7"/>
      </g>
     </g>
     <g id="text_3">
      <text style="font-size: 8px; font-family: 'Times New Roman', 'CMU Serif', 'DejaVu Serif', serif; text-anchor: middle" x="135.679684" y="160.675" transform="rotate(-0 135.679684 160.675)">100</text>
     </g>
    </g>
    <g id="xtick_4">
     <g id="line2d_4">
      <g>
       <use xlink:href="#m7ebc8a8661" x="182.851909" y="151.62" style="stroke: #000000; stroke-width: 0.7"/>
      </g>
     </g>
     <g id="text_4">
      <text style="font-size: 8px; font-family: 'Times New Roman', 'CMU Serif', 'DejaVu Serif', serif; text-anchor: middle" x="182.851909" y="160.675" transform="rotate(-0 182.851909 160.675)">150</text>
     </g>
    </g>
    <g id="xtick_5">
     <g id="line2d_5">
      <g>
       <use xlink:href="#m7ebc8a8661" x="230.024134" y="151.62" style="stroke: #000000; stroke-width: 0.7"/>
      </g>
     </g>
     <g id="text_5">
      <text style="font-size: 8px; font-family: 'Times New Roman', 'CMU Serif', 'DejaVu Serif', serif; text-anchor: middle" x="230.024134" y="160.675" transform="rotate(-0 230.024134 160.675)">200</text>
     </g>
    </g>
    <g id="text_6">
     <text style="font-size: 9px; font-family: 'Times New Roman', 'CMU Serif', 'DejaVu Serif', serif; text-anchor: middle" x="136.151406" y="172.635625" transform="rotate(-0 136.151406 172.635625)">Epoch</text>
    </g>
   </g>
   <g id="matplotlib.axis_2">
    <g id="ytick_1">
     <g id="line2d_6">
      <path d="M 32.891406 147.755349 
L 239.411406 147.755349 
" clip-path="url(#p0c4e004e98)" style="fill: none; stroke-dasharray: 0.5,0.825; stroke-dashoffset: 0; stroke: #b0b0b0; stroke-opacity: 0.6; stroke-width: 0.5"/>
     </g>
     <g id="line2d_7">
      <defs>
       <path id="m8e40bb6afa" d="M 0 0 
L 3 0 
" style="stroke: #000000; stroke-width: 0.7"/>
      </defs>
      <g>
       <use xlink:href="#m8e40bb6afa" x="32.891406" y="147.755349" style="stroke: #000000; stroke-width: 0.7"/>
      </g>
     </g>
     <g id="text_7">
      <text style="font-size: 8px; font-family: 'Times New Roman', 'CMU Serif', 'DejaVu Serif', serif; text-anchor: end" x="29.391406" y="150.532849" transform="rotate(-0 29.391406 150.532849)">0.4</text>
     </g>
    </g>
    <g id="ytick_2">
     <g id="line2d_8">
      <path d="M 32.891406 129.174247 
L 239.411406 129.174247 
" clip-path="url(#p0c4e004e98)" style="fill: none; stroke-dasharray: 0.5,0.825; stroke-dashoffset: 0; stroke: #b0b0b0; stroke-opacity: 0.6; stroke-width: 0.5"/>
     </g>
     <g id="line2d_9">
      <g>
       <use xlink:href="#m8e40bb6afa" x="32.891406" y="129.174247" style="stroke: #000000; stroke-width: 0.7"/>
      </g>
     </g>
     <g id="text_8">
      <text style="font-size: 8px; font-family: 'Times New Roman', 'CMU Serif', 'DejaVu Serif', serif; text-anchor: end" x="29.391406" y="131.951747" transform="rotate(-0 29.391406 131.951747)">0.6</text>
     </g>
    </g>
    <g id="ytick_3">
     <g id="line2d_10">
      <path d="M 32.891406 110.593146 
L 239.411406 110.593146 
" clip-path="url(#p0c4e004e98)" style="fill: none; stroke-dasharray: 0.5,0.825; stroke-dashoffset: 0; stroke: #b0b0b0; stroke-opacity: 0.6; stroke-width: 0.5"/>
     </g>
     <g id="line2d_11">
      <g>
       <use xlink:href="#m8e40bb6afa" x="32.891406" y="110.593146" style="stroke: #000000; stroke-width: 0.7"/>
      </g>
     </g>
     <g id="text_9">
      <text style="font-size: 8px; font-family: 'Times New Roman', 'CMU Serif', 'DejaVu Serif', serif; text-anchor: end" x="29.391406" y="113.370646" transform="rotate(-0 29.391406 113.370646)">0.8</text>
     </g>
    </g>
    <g id="ytick_4">
     <g id="line2d_12">
      <path d="M 32.891406 92.012044 
L 239.411406 92.012044 
" clip-path="url(#p0c4e004e98)" style="fill: none; stroke-dasharray: 0.5,0.825; stroke-dashoffset: 0; stroke: #b0b0b0; stroke-opacity: 0.6; stroke-width: 0.5"/>
     </g>
     <g id="line2d_13">
      <g>
       <use xlink:href="#m8e40bb6afa" x="32.891406" y="92.012044" style="stroke: #000000; stroke-width: 0.7"/>
      </g>
     </g>
     <g id="text_10">
      <text style="font-size: 8px; font-family: 'Times New Roman', 'CMU Serif', 'DejaVu Serif', serif; text-anchor: end" x="29.391406" y="94.789544" transform="rotate(-0 29.391406 94.789544)">1.0</text>
     </g>
    </g>
    <g id="ytick_5">
     <g id="line2d_14">
      <path d="M 32.891406 73.430943 
L 239.411406 73.430943 
" clip-path="url(#p0c4e004e98)" style="fill: none; stroke-dasharray: 0.5,0.825; stroke-dashoffset: 0; stroke: #b0b0b0; stroke-opacity: 0.6; stroke-width: 0.5"/>
     </g>
     <g id="line2d_15">
      <g>
       <use xlink:href="#m8e40bb6afa" x="32.891406" y="73.430943" style="stroke: #000000; stroke-width: 0.7"/>
      </g>
     </g>
     <g id="text_11">
      <text style="font-size: 8px; font-family: 'Times New Roman', 'CMU Serif', 'DejaVu Serif', serif; text-anchor: end" x="29.391406" y="76.208443" transform="rotate(-0 29.391406 76.208443)">1.2</text>
     </g>
    </g>
    <g id="ytick_6">
     <g id="line2d_16">
      <path d="M 32.891406 54.849841 
L 239.411406 54.849841 
" clip-path="url(#p0c4e004e98)" style="fill: none; stroke-dasharray: 0.5,0.825; stroke-dashoffset: 0; stroke: #b0b0b0; stroke-opacity: 0.6; stroke-width: 0.5"/>
     </g>
     <g id="line2d_17">
      <g>
       <use xlink:href="#m8e40bb6afa" x="32.891406" y="54.849841" style="stroke: #000000; stroke-width: 0.7"/>
      </g>
     </g>
     <g id="text_12">
      <text style="font-size: 8px; font-family: 'Times New Roman', 'CMU Serif', 'DejaVu Serif', serif; text-anchor: end" x="29.391406" y="57.627341" transform="rotate(-0 29.391406 57.627341)">1.4</text>
     </g>
    </g>
    <g id="ytick_7">
     <g id="line2d_18">
      <path d="M 32.891406 36.26874 
L 239.411406 36.26874 
" clip-path="url(#p0c4e004e98)" style="fill: none; stroke-dasharray: 0.5,0.825; stroke-dashoffset: 0; stroke: #b0b0b0; stroke-opacity: 0.6; stroke-width: 0.5"/>
     </g>
     <g id="line2d_19">
      <g>
       <use xlink:href="#m8e40bb6afa" x="32.891406" y="36.26874" style="stroke: #000000; stroke-width: 0.7"/>
      </g>
     </g>
     <g id="text_13">
      <text style="font-size: 8px; font-family: 'Times New Roman', 'CMU Serif', 'DejaVu Serif', serif; text-anchor: end" x="29.391406" y="39.04624" transform="rotate(-0 29.391406 39.04624)">1.6</text>
     </g>
    </g>
    <g id="ytick_8">
     <g id="line2d_20">
      <path d="M 32.891406 17.687638 
L 239.411406 17.687638 
" clip-path="url(#p0c4e004e98)" style="fill: none; stroke-dasharray: 0.5,0.825; stroke-dashoffset: 0; stroke: #b0b0b0; stroke-opacity: 0.6; stroke-width: 0.5"/>
     </g>
     <g id="line2d_21">
      <g>
       <use xlink:href="#m8e40bb6afa" x="32.891406" y="17.687638" style="stroke: #000000; stroke-width: 0.7"/>
      </g>
     </g>
     <g id="text_14">
      <text style="font-size: 8px; font-family: 'Times New Roman', 'CMU Serif', 'DejaVu Serif', serif; text-anchor: end" x="29.391406" y="20.465138" transform="rotate(-0 29.391406 20.465138)">1.8</text>
     </g>
    </g>
    <g id="text_15">
     <text style="font-size: 9px; font-family: 'Times New Roman', 'CMU Serif', 'DejaVu Serif', serif; text-anchor: middle" x="13.449375" y="79.41" transform="rotate(-90 13.449375 79.41)">Training loss</text>
    </g>
   </g>
   <g id="line2d_22">
    <path d="M 42.278679 13.764545 
L 43.222123 109.568341 
L 44.165568 127.430054 
L 45.109012 114.242434 
L 46.052457 120.382032 
L 46.995901 109.485566 
L 47.939346 117.316622 
L 48.88279 113.132771 
L 49.826235 126.481606 
L 50.769679 121.708583 
L 51.713124 110.682262 
L 52.656568 128.722787 
L 53.600013 117.917761 
L 54.543457 117.799815 
L 55.486902 127.348806 
L 56.430346 127.063175 
L 57.373791 128.21092 
L 58.317235 127.284942 
L 59.26068 132.217973 
L 60.204124 114.985613 
L 61.147569 126.331212 
L 62.091013 125.218205 
L 63.034458 122.793687 
L 63.977902 129.541248 
L 64.921347 130.002627 
L 65.864791 132.941691 
L 66.808236 124.041813 
L 68.695125 110.484525 
L 69.638569 131.178218 
L 70.582014 110.946426 
L 71.525458 115.364382 
L 72.468903 94.326603 
L 73.412347 131.776379 
L 74.355792 100.777271 
L 75.299236 82.186724 
L 76.242681 120.527353 
L 77.186125 119.744899 
L 78.12957 97.425182 
L 79.073014 117.276803 
L 80.016459 126.992255 
L 80.959903 102.21211 
L 81.903348 116.873558 
L 82.846792 128.72434 
L 84.733681 121.350806 
L 85.677126 133.757896 
L 86.62057 96.133255 
L 87.564015 109.13684 
L 88.507459 87.93182 
L 89.450904 117.284969 
L 90.394348 104.029592 
L 91.337793 132.737332 
L 92.281237 114.308571 
L 93.224682 129.16245 
L 94.168126 128.229762 
L 95.111571 138.42364 
L 96.055015 129.065043 
L 96.99846 130.225007 
L 97.941904 133.134723 
L 98.885349 120.707872 
L 99.828793 132.359074 
L 100.772238 129.577859 
L 101.715682 127.680927 
L 102.659127 132.634982 
L 103.602571 136.894224 
L 105.48946 108.5306 
L 106.432905 126.158462 
L 107.376349 125.749005 
L 108.319794 121.754805 
L 109.263238 120.598123 
L 110.206683 136.593879 
L 111.150127 86.66631 
L 112.093572 113.086694 
L 113.037016 127.149285 
L 113.980461 124.486508 
L 114.923905 134.325428 
L 115.86735 135.980406 
L 117.754239 123.768365 
L 118.697683 141.015865 
L 119.641128 112.620383 
L 120.584572 135.048138 
L 121.528017 125.44593 
L 122.471461 128.581278 
L 123.414906 136.629685 
L 124.35835 119.310677 
L 125.301795 139.425823 
L 126.245239 119.578391 
L 127.188684 136.059198 
L 128.132128 123.037516 
L 129.075573 119.118944 
L 130.019017 140.834322 
L 130.962462 132.508373 
L 131.905906 119.5613 
L 132.849351 130.905201 
L 133.792795 133.129604 
L 134.73624 133.980592 
L 135.679684 125.14714 
L 136.623128 119.597607 
L 137.566573 121.685555 
L 138.510017 134.78307 
L 140.396906 118.983027 
L 141.340351 133.104637 
L 142.283795 136.492556 
L 143.22724 129.032833 
L 144.170684 135.80388 
L 145.114129 140.018146 
L 146.057573 139.478436 
L 147.001018 127.942636 
L 147.944462 135.576065 
L 148.887907 128.178545 
L 149.831351 117.166258 
L 150.774796 139.008058 
L 151.71824 129.423907 
L 152.661685 129.716344 
L 153.605129 139.19666 
L 154.548574 132.820756 
L 155.492018 139.425436 
L 156.435463 135.702792 
L 157.378907 135.752992 
L 158.322352 142.928225 
L 159.265796 135.489552 
L 160.209241 122.885503 
L 161.152685 136.862416 
L 162.09613 123.692163 
L 163.039574 130.068013 
L 163.983019 133.257548 
L 164.926463 124.7167 
L 165.869908 136.470127 
L 166.813352 127.976147 
L 167.756797 135.830058 
L 168.700241 118.366946 
L 169.643686 108.735493 
L 170.58713 112.776204 
L 171.530575 135.17637 
L 172.474019 134.415964 
L 173.417464 140.892532 
L 174.360908 134.478611 
L 175.304353 138.763779 
L 176.247797 119.578978 
L 177.191242 135.316207 
L 178.134686 124.421568 
L 180.021575 142.20925 
L 180.96502 136.565722 
L 181.908464 137.481105 
L 182.851909 136.175892 
L 183.795353 141.560422 
L 184.738798 125.269421 
L 185.682242 131.752416 
L 186.625687 97.163543 
L 188.512576 139.419864 
L 189.45602 142.662753 
L 190.399465 136.821275 
L 191.342909 124.509164 
L 192.286354 122.686165 
L 193.229798 90.05975 
L 194.173243 121.583872 
L 195.116687 131.476991 
L 196.060132 136.978432 
L 197.003576 130.786486 
L 198.890465 142.989745 
L 199.83391 141.824093 
L 200.777354 136.094584 
L 201.720799 139.696255 
L 202.664243 140.619744 
L 203.607688 141.881641 
L 204.551132 139.080331 
L 205.494577 134.38183 
L 206.438021 144.516823 
L 207.381466 144.490617 
L 208.32491 145.055455 
L 210.211799 131.991371 
L 211.155244 134.058783 
L 212.098688 144.73192 
L 213.042133 143.934872 
L 213.985577 138.750498 
L 214.929022 142.935292 
L 215.872466 110.94191 
L 216.815911 127.075075 
L 217.759355 134.025673 
L 218.7028 133.650131 
L 219.646244 93.061371 
L 220.589689 70.691037 
L 221.533133 129.345097 
L 222.476578 129.387135 
L 223.420022 132.442451 
L 224.363467 130.138084 
L 225.306911 126.579421 
L 226.250356 143.832941 
L 227.1938 106.791735 
L 228.137245 139.766837 
L 229.080689 126.465184 
L 230.024134 133.645093 
L 230.024134 133.645093 
" clip-path="url(#p0c4e004e98)" style="fill: none; stroke: #4c72b0; stroke-width: 1.2; stroke-linecap: square"/>
   </g>
   <g id="patch_3">
    <path d="M 32.891406 151.62 
L 32.891406 7.2 
" style="fill: none; stroke: #000000; stroke-width: 0.6; stroke-linejoin: miter; stroke-linecap: square"/>
   </g>
   <g id="patch_4">
    <path d="M 32.891406 151.62 
L 239.411406 151.62 
" style="fill: none; stroke: #000000; stroke-width: 0.6; stroke-linejoin: miter; stroke-linecap: square"/>
   </g>
  </g>
 </g>
 <defs>
  <clipPath id="p0c4e004e98">
   <rect x="32.891406" y="7.2" width="206.52" height="144.42"/>
  </clipPath>
 </defs>
</svg>
