<?xml version="1.0" encoding="utf-8" standalone="no"?>
<!DOCTYPE svg PUBLIC "-//W3C//DTD SVG 1.1//EN"
  "http://www.w3.org/Graphics/SVG/1.1/DTD/svg11.dtd">
<svg xmlns:xlink="http://www.w3.org/1999/xlink" width="246.398281pt" height="182.052812pt" viewBox="0 0 246.398281 182.052812" xmlns="http://www.w3.org/2000/svg" version="1.1">
 <metadata>
  <rdf:RDF xmlns:dc="http://purl.org/dc/elements/1.1/" xmlns:cc="http://creativecommons.org/ns#" xmlns:rdf="http://www.w3.org/1999/02/22-rdf-syntax-ns#">
   <cc:Work>
    <dc:type rdf:resource="http://purl.org/dc/dcmitype/StillImage"/>
    <dc:date>2026-05-18T20:53:52.693666</dc:date>
    <dc:format>image/svg+xml</dc:format>
    <dc:creator>
     <cc:Agent>
      <dc:title>Matplotlib v3.10.7, https://matplotlib.org/</dc:title>
     </cc:Agent>
    </dc:creator>
   </cc:Work>
  </rdf:RDF>
 </metadata>
 <defs>
  <style type="text/css">*{stroke-linejoin: round; stroke-linecap: butt}</style>
 </defs>
 <g id="figure_1">
  <g id="patch_1">
   <path d="M 0 182.052812 
L 246.398281 182.052812 
L 246.398281 0 
L 0 0 
z
" style="fill: #ffffff"/>
  </g>
  <g id="axes_1">
   <g id="patch_2">
    <path d="M 28.628281 150.9 
L 239.198281 150.9 
L 239.198281 7.2 
L 28.628281 7.2 
z
" style="fill: #ffffff"/>
   </g>
   <g id="matplotlib.axis_1">
    <g id="xtick_1">
     <g id="line2d_1">
      <defs>
       <path id="me8f245c62c" d="M 0 0 
L 0 -3 
" style="stroke: #000000; stroke-width: 0.7"/>
      </defs>
      <g>
       <use xlink:href="#me8f245c62c" x="37.237699" y="150.9" style="stroke: #000000; stroke-width: 0.7"/>
      </g>
     </g>
     <g id="text_1">
      <text style="font-size: 8px; font-family: 'Times New Roman', 'CMU Serif', 'DejaVu Serif', serif; text-anchor: middle" x="37.237699" y="160.47875" transform="rotate(-0 37.237699 160.47875)">0</text>
     </g>
    </g>
    <g id="xtick_2">
     <g id="line2d_2">
      <g>
       <use xlink:href="#me8f245c62c" x="85.335003" y="150.9" style="stroke: #000000; stroke-width: 0.7"/>
      </g>
     </g>
     <g id="text_2">
      <text style="font-size: 8px; font-family: 'Times New Roman', 'CMU Serif', 'DejaVu Serif', serif; text-anchor: middle" x="85.335003" y="160.47875" transform="rotate(-0 85.335003 160.47875)">50</text>
     </g>
    </g>
    <g id="xtick_3">
     <g id="line2d_3">
      <g>
       <use xlink:href="#me8f245c62c" x="133.432308" y="150.9" style="stroke: #000000; stroke-width: 0.7"/>
      </g>
     </g>
     <g id="text_3">
      <text style="font-size: 8px; font-family: 'Times New Roman', 'CMU Serif', 'DejaVu Serif', serif; text-anchor: middle" x="133.432308" y="160.47875" transform="rotate(-0 133.432308 160.47875)">100</text>
     </g>
    </g>
    <g id="xtick_4">
     <g id="line2d_4">
      <g>
       <use xlink:href="#me8f245c62c" x="181.529613" y="150.9" style="stroke: #000000; stroke-width: 0.7"/>
      </g>
     </g>
     <g id="text_4">
      <text style="font-size: 8px; font-family: 'Times New Roman', 'CMU Serif', 'DejaVu Serif', serif; text-anchor: middle" x="181.529613" y="160.47875" transform="rotate(-0 181.529613 160.47875)">150</text>
     </g>
    </g>
    <g id="xtick_5">
     <g id="line2d_5">
      <g>
       <use xlink:href="#me8f245c62c" x="229.626918" y="150.9" style="stroke: #000000; stroke-width: 0.7"/>
      </g>
     </g>
     <g id="text_5">
      <text style="font-size: 8px; font-family: 'Times New Roman', 'CMU Serif', 'DejaVu Serif', serif; text-anchor: middle" x="229.626918" y="160.47875" transform="rotate(-0 229.626918 160.47875)">200</text>
     </g>
    </g>
    <g id="text_6">
     <text style="font-size: 9px; font-family: 'Times New Roman', 'CMU Serif', 'DejaVu Serif', serif; text-anchor: middle" x="133.913281" y="172.981094" transform="rotate(-0 133.913281 172.981094)">Epoch</text>
    </g>
   </g>
   <g id="matplotlib.axis_2">
    <g id="ytick_1">
     <g id="line2d_6">
      <path d="M 28.628281 144.507169 
L 239.198281 144.507169 
" clip-path="url(#pc850ee3961)" style="fill: none; stroke-dasharray: 0.5,0.825; stroke-dashoffset: 0; stroke: #b0b0b0; stroke-opacity: 0.6; stroke-width: 0.5"/>
     </g>
     <g id="line2d_7">
      <defs>
       <path id="m36e6c14ebb" d="M 0 0 
L 3 0 
" style="stroke: #000000; stroke-width: 0.7"/>
      </defs>
      <g>
       <use xlink:href="#m36e6c14ebb" x="28.628281" y="144.507169" style="stroke: #000000; stroke-width: 0.7"/>
      </g>
     </g>
     <g id="text_7">
      <text style="font-size: 8px; font-family: 'Times New Roman', 'CMU Serif', 'DejaVu Serif', serif; text-anchor: end" x="25.128281" y="147.546544" transform="rotate(-0 25.128281 147.546544)">0</text>
     </g>
    </g>
    <g id="ytick_2">
     <g id="line2d_8">
      <path d="M 28.628281 126.522668 
L 239.198281 126.522668 
" clip-path="url(#pc850ee3961)" style="fill: none; stroke-dasharray: 0.5,0.825; stroke-dashoffset: 0; stroke: #b0b0b0; stroke-opacity: 0.6; stroke-width: 0.5"/>
     </g>
     <g id="line2d_9">
      <g>
       <use xlink:href="#m36e6c14ebb" x="28.628281" y="126.522668" style="stroke: #000000; stroke-width: 0.7"/>
      </g>
     </g>
     <g id="text_8">
      <text style="font-size: 8px; font-family: 'Times New Roman', 'CMU Serif', 'DejaVu Serif', serif; text-anchor: end" x="25.128281" y="129.562043" transform="rotate(-0 25.128281 129.562043)">1</text>
     </g>
    </g>
    <g id="ytick_3">
     <g id="line2d_10">
      <path d="M 28.628281 108.538167 
L 239.198281 108.538167 
" clip-path="url(#pc850ee3961)" style="fill: none; stroke-dasharray: 0.5,0.825; stroke-dashoffset: 0; stroke: #b0b0b0; stroke-opacity: 0.6; stroke-width: 0.5"/>
     </g>
     <g id="line2d_11">
      <g>
       <use xlink:href="#m36e6c14ebb" x="28.628281" y="108.538167" style="stroke: #000000; stroke-width: 0.7"/>
      </g>
     </g>
     <g id="text_9">
      <text style="font-size: 8px; font-family: 'Times New Roman', 'CMU Serif', 'DejaVu Serif', serif; text-anchor: end" x="25.128281" y="111.577542" transform="rotate(-0 25.128281 111.577542)">2</text>
     </g>
    </g>
    <g id="ytick_4">
     <g id="line2d_12">
      <path d="M 28.628281 90.553666 
L 239.198281 90.553666 
" clip-path="url(#pc850ee3961)" style="fill: none; stroke-dasharray: 0.5,0.825; stroke-dashoffset: 0; stroke: #b0b0b0; stroke-opacity: 0.6; stroke-width: 0.5"/>
     </g>
     <g id="line2d_13">
      <g>
       <use xlink:href="#m36e6c14ebb" x="28.628281" y="90.553666" style="stroke: #000000; stroke-width: 0.7"/>
      </g>
     </g>
     <g id="text_10">
      <text style="font-size: 8px; font-family: 'Times New Roman', 'CMU Serif', 'DejaVu Serif', serif; text-anchor: end" x="25.128281" y="93.593041" transform="rotate(-0 25.128281 93.593041)">3</text>
     </g>
    </g>
    <g id="ytick_5">
     <g id="line2d_14">
      <path d="M 28.628281 72.569165 
L 239.198281 72.569165 
" clip-path="url(#pc850ee3961)" style="fill: none; stroke-dasharray: 0.5,0.825; stroke-dashoffset: 0; stroke: #b0b0b0; stroke-opacity: 0.6; stroke-width: 0.5"/>
     </g>
     <g id="line2d_15">
      <g>
       <use xlink:href="#m36e6c14ebb" x="28.628281" y="72.569165" style="stroke: #000000; stroke-width: 0.7"/>
      </g>
     </g>
     <g id="text_11">
      <text style="font-size: 8px; font-family: 'Times New Roman', 'CMU Serif', 'DejaVu Serif', serif; text-anchor: end" x="25.128281" y="75.60854" transform="rotate(-0 25.128281 75.60854)">4</text>
     </g>
    </g>
    <g id="ytick_6">
     <g id="line2d_16">
      <path d="M 28.628281 54.584664 
L 239.198281 54.584664 
" clip-path="url(#pc850ee3961)" style="fill: none; stroke-dasharray: 0.5,0.825; stroke-dashoffset: 0; stroke: #b0b0b0; stroke-opacity: 0.6; stroke-width: 0.5"/>
     </g>
     <g id="line2d_17">
      <g>
       <use xlink:href="#m36e6c14ebb" x="28.628281" y="54.584664" style="stroke: #000000; stroke-width: 0.7"/>
      </g>
     </g>
     <g id="text_12">
      <text style="font-size: 8px; font-family: 'Times New Roman', 'CMU Serif', 'DejaVu Serif', serif; text-anchor: end" x="25.128281" y="57.624039" transform="rotate(-0 25.128281 57.624039)">5</text>
     </g>
    </g>
    <g id="ytick_7">
     <g id="line2d_18">
      <path d="M 28.628281 36.600163 
L 239.198281 36.600163 
" clip-path="url(#pc850ee3961)" style="fill: none; stroke-dasharray: 0.5,0.825; stroke-dashoffset: 0; stroke: #b0b0b0; stroke-opacity: 0.6; stroke-width: 0.5"/>
     </g>
     <g id="line2d_19">
      <g>
       <use xlink:href="#m36e6c14ebb" x="28.628281" y="36.600163" style="stroke: #000000; stroke-width: 0.7"/>
      </g>
     </g>
     <g id="text_13">
      <text style="font-size: 8px; font-family: 'Times New Roman', 'CMU Serif', 'DejaVu Serif', serif; text-anchor: end" x="25.128281" y="39.639538" transform="rotate(-0 25.128281 39.639538)">6</text>
     </g>
    </g>
    <g id="ytick_8">
     <g id="line2d_20">
      <path d="M 28.628281 18.615662 
L 239.198281 18.615662 
" clip-path="url(#pc850ee3961)" style="fill: none; stroke-dasharray: 0.5,0.825; stroke-dashoffset: 0; stroke: #b0b0b0; stroke-opacity: 0.6; stroke-width: 0.5"/>
     </g>
     <g id="line2d_21">
      <g>
       <use xlink:href="#m36e6c14ebb" x="28.628281" y="18.615662" style="stroke: #000000; stroke-width: 0.7"/>
      </g>
     </g>
     <g id="text_14">
      <text style="font-size: 8px; font-family: 'Times New Roman', 'CMU Serif', 'DejaVu Serif', serif; text-anchor: end" x="25.128281" y="21.655037" transform="rotate(-0 25.128281 21.655037)">7</text>
     </g>
    </g>
    <g id="text_15">
     <text style="font-size: 9px; font-family: 'Times New Roman', 'CMU Serif', 'DejaVu Serif', serif; text-anchor: middle" x="14.038594" y="79.05" transform="rotate(-90 14.038594 79.05)">Training loss</text>
    </g>
   </g>
   <g id="line2d_22">
    <path d="M 38.199645 13.731818 
L 39.161591 91.219369 
L 40.123537 131.564229 
L 41.085483 130.567317 
L 42.047429 137.325749 
L 43.009375 139.887101 
L 43.971321 140.309732 
L 44.933268 141.29854 
L 45.895214 141.316638 
L 46.85716 140.702277 
L 47.819106 141.809268 
L 48.781052 141.709873 
L 49.742998 142.022873 
L 50.704944 142.14279 
L 52.628836 142.52928 
L 53.590782 142.587486 
L 54.552728 142.396074 
L 55.514675 142.699084 
L 57.438567 142.678758 
L 59.362459 142.854567 
L 61.286351 142.901407 
L 62.248297 142.773662 
L 64.172189 143.116449 
L 66.096082 143.141232 
L 67.058028 142.978058 
L 68.98192 143.314353 
L 73.79165 143.335774 
L 74.753596 143.04265 
L 76.677489 143.36337 
L 78.601381 143.476937 
L 79.563327 143.42446 
L 80.525273 143.625458 
L 81.487219 143.488812 
L 87.258896 143.733251 
L 88.220842 143.593542 
L 89.182788 143.700043 
L 91.10668 143.733208 
L 92.068626 143.807563 
L 93.030572 143.636374 
L 93.992518 143.824875 
L 94.954464 143.544655 
L 95.916411 143.768185 
L 96.878357 143.841233 
L 98.802249 143.860592 
L 119.965063 144.069124 
L 120.927009 144.0006 
L 122.850901 144.09058 
L 146.899554 144.18601 
L 149.785392 144.189164 
L 167.100421 144.25472 
L 168.062368 143.96796 
L 171.910152 144.264741 
L 172.872098 144.19883 
L 175.757936 144.283795 
L 176.719882 144.119868 
L 177.681829 144.222105 
L 180.567667 144.295875 
L 216.159672 144.272018 
L 217.121618 144.097954 
L 220.969403 144.349191 
L 226.741079 144.33277 
L 228.664972 144.359416 
L 229.626918 144.204284 
L 229.626918 144.204284 
" clip-path="url(#pc850ee3961)" style="fill: none; stroke: #4c72b0; stroke-width: 1.2; stroke-linecap: square"/>
   </g>
   <g id="patch_3">
    <path d="M 28.628281 150.9 
L 28.628281 7.2 
" style="fill: none; stroke: #000000; stroke-width: 0.6; stroke-linejoin: miter; stroke-linecap: square"/>
   </g>
   <g id="patch_4">
    <path d="M 28.628281 150.9 
L 239.198281 150.9 
" style="fill: none; stroke: #000000; stroke-width: 0.6; stroke-linejoin: miter; stroke-linecap: square"/>
   </g>
  </g>
 </g>
 <defs>
  <clipPath id="pc850ee3961">
   <rect x="28.628281" y="7.2" width="210.57" height="143.7"/>
  </clipPath>
 </defs>
</svg>
