<?xml version="1.0" encoding="utf-8" standalone="no"?>
<!DOCTYPE svg PUBLIC "-//W3C//DTD SVG 1.1//EN"
  "http://www.w3.org/Graphics/SVG/1.1/DTD/svg11.dtd">
<svg xmlns:xlink="http://www.w3.org/1999/xlink" width="238.708281pt" height="182.052812pt" viewBox="0 0 238.708281 182.052812" xmlns="http://www.w3.org/2000/svg" version="1.1">
 <metadata>
  <rdf:RDF xmlns:dc="http://purl.org/dc/elements/1.1/" xmlns:cc="http://creativecommons.org/ns#" xmlns:rdf="http://www.w3.org/1999/02/22-rdf-syntax-ns#">
   <cc:Work>
    <dc:type rdf:resource="http://purl.org/dc/dcmitype/StillImage"/>
    <dc:date>2026-05-18T11:03:33.483792</dc:date>
    <dc:format>image/svg+xml</dc:format>
    <dc:creator>
     <cc:Agent>
      <dc:title>Matplotlib v3.10.7, https://matplotlib.org/</dc:title>
     </cc:Agent>
    </dc:creator>
   </cc:Work>
  </rdf:RDF>
 </metadata>
 <defs>
  <style type="text/css">*{stroke-linejoin: round; stroke-linecap: butt}</style>
 </defs>
 <g id="figure_1">
  <g id="patch_1">
   <path d="M 0 182.052812 
L 238.708281 182.052812 
L 238.708281 0 
L 0 0 
z
" style="fill: #ffffff"/>
  </g>
  <g id="axes_1">
   <g id="patch_2">
    <path d="M 33.718281 150.9 
L 231.508281 150.9 
L 231.508281 7.2 
L 33.718281 7.2 
z
" style="fill: #ffffff"/>
   </g>
   <g id="matplotlib.axis_1">
    <g id="xtick_1">
     <g id="line2d_1">
      <defs>
       <path id="m520d027923" d="M 0 0 
L 0 -3 
" style="stroke: #000000; stroke-width: 0.7"/>
      </defs>
      <g>
       <use xlink:href="#m520d027923" x="41.805173" y="150.9" style="stroke: #000000; stroke-width: 0.7"/>
      </g>
     </g>
     <g id="text_1">
      <text style="font-size: 8px; font-family: 'Times New Roman', 'CMU Serif', 'DejaVu Serif', serif; text-anchor: middle" x="41.805173" y="160.47875" transform="rotate(-0 41.805173 160.47875)">0</text>
     </g>
    </g>
    <g id="xtick_2">
     <g id="line2d_2">
      <g>
       <use xlink:href="#m520d027923" x="86.983336" y="150.9" style="stroke: #000000; stroke-width: 0.7"/>
      </g>
     </g>
     <g id="text_2">
      <text style="font-size: 8px; font-family: 'Times New Roman', 'CMU Serif', 'DejaVu Serif', serif; text-anchor: middle" x="86.983336" y="160.47875" transform="rotate(-0 86.983336 160.47875)">50</text>
     </g>
    </g>
    <g id="xtick_3">
     <g id="line2d_3">
      <g>
       <use xlink:href="#m520d027923" x="132.1615" y="150.9" style="stroke: #000000; stroke-width: 0.7"/>
      </g>
     </g>
     <g id="text_3">
      <text style="font-size: 8px; font-family: 'Times New Roman', 'CMU Serif', 'DejaVu Serif', serif; text-anchor: middle" x="132.1615" y="160.47875" transform="rotate(-0 132.1615 160.47875)">100</text>
     </g>
    </g>
    <g id="xtick_4">
     <g id="line2d_4">
      <g>
       <use xlink:href="#m520d027923" x="177.339663" y="150.9" style="stroke: #000000; stroke-width: 0.7"/>
      </g>
     </g>
     <g id="text_4">
      <text style="font-size: 8px; font-family: 'Times New Roman', 'CMU Serif', 'DejaVu Serif', serif; text-anchor: middle" x="177.339663" y="160.47875" transform="rotate(-0 177.339663 160.47875)">150</text>
     </g>
    </g>
    <g id="xtick_5">
     <g id="line2d_5">
      <g>
       <use xlink:href="#m520d027923" x="222.517827" y="150.9" style="stroke: #000000; stroke-width: 0.7"/>
      </g>
     </g>
     <g id="text_5">
      <text style="font-size: 8px; font-family: 'Times New Roman', 'CMU Serif', 'DejaVu Serif', serif; text-anchor: middle" x="222.517827" y="160.47875" transform="rotate(-0 222.517827 160.47875)">200</text>
     </g>
    </g>
    <g id="text_6">
     <text style="font-size: 9px; font-family: 'Times New Roman', 'CMU Serif', 'DejaVu Serif', serif; text-anchor: middle" x="132.613281" y="172.981094" transform="rotate(-0 132.613281 172.981094)">Epoch</text>
    </g>
   </g>
   <g id="matplotlib.axis_2">
    <g id="ytick_1">
     <g id="line2d_6">
      <path d="M 33.718281 148.523032 
L 231.508281 148.523032 
" clip-path="url(#p980244cddd)" style="fill: none; stroke-dasharray: 0.5,0.825; stroke-dashoffset: 0; stroke: #b0b0b0; stroke-opacity: 0.6; stroke-width: 0.5"/>
     </g>
     <g id="line2d_7">
      <defs>
       <path id="meeb28e7abe" d="M 0 0 
L 3 0 
" style="stroke: #000000; stroke-width: 0.7"/>
      </defs>
      <g>
       <use xlink:href="#meeb28e7abe" x="33.718281" y="148.523032" style="stroke: #000000; stroke-width: 0.7"/>
      </g>
     </g>
     <g id="text_7">
      <text style="font-size: 8px; font-family: 'Times New Roman', 'CMU Serif', 'DejaVu Serif', serif; text-anchor: end" x="30.218281" y="151.562407" transform="rotate(-0 30.218281 151.562407)">0</text>
     </g>
    </g>
    <g id="ytick_2">
     <g id="line2d_8">
      <path d="M 33.718281 113.167874 
L 231.508281 113.167874 
" clip-path="url(#p980244cddd)" style="fill: none; stroke-dasharray: 0.5,0.825; stroke-dashoffset: 0; stroke: #b0b0b0; stroke-opacity: 0.6; stroke-width: 0.5"/>
     </g>
     <g id="line2d_9">
      <g>
       <use xlink:href="#meeb28e7abe" x="33.718281" y="113.167874" style="stroke: #000000; stroke-width: 0.7"/>
      </g>
     </g>
     <g id="text_8">
      <text style="font-size: 8px; font-family: 'Times New Roman', 'CMU Serif', 'DejaVu Serif', serif; text-anchor: end" x="30.218281" y="116.207249" transform="rotate(-0 30.218281 116.207249)">5</text>
     </g>
    </g>
    <g id="ytick_3">
     <g id="line2d_10">
      <path d="M 33.718281 77.812716 
L 231.508281 77.812716 
" clip-path="url(#p980244cddd)" style="fill: none; stroke-dasharray: 0.5,0.825; stroke-dashoffset: 0; stroke: #b0b0b0; stroke-opacity: 0.6; stroke-width: 0.5"/>
     </g>
     <g id="line2d_11">
      <g>
       <use xlink:href="#meeb28e7abe" x="33.718281" y="77.812716" style="stroke: #000000; stroke-width: 0.7"/>
      </g>
     </g>
     <g id="text_9">
      <text style="font-size: 8px; font-family: 'Times New Roman', 'CMU Serif', 'DejaVu Serif', serif; text-anchor: end" x="30.218281" y="80.852091" transform="rotate(-0 30.218281 80.852091)">10</text>
     </g>
    </g>
    <g id="ytick_4">
     <g id="line2d_12">
      <path d="M 33.718281 42.457558 
L 231.508281 42.457558 
" clip-path="url(#p980244cddd)" style="fill: none; stroke-dasharray: 0.5,0.825; stroke-dashoffset: 0; stroke: #b0b0b0; stroke-opacity: 0.6; stroke-width: 0.5"/>
     </g>
     <g id="line2d_13">
      <g>
       <use xlink:href="#meeb28e7abe" x="33.718281" y="42.457558" style="stroke: #000000; stroke-width: 0.7"/>
      </g>
     </g>
     <g id="text_10">
      <text style="font-size: 8px; font-family: 'Times New Roman', 'CMU Serif', 'DejaVu Serif', serif; text-anchor: end" x="30.218281" y="45.496933" transform="rotate(-0 30.218281 45.496933)">15</text>
     </g>
    </g>
    <g id="text_11">
     <text style="font-size: 9px; font-family: 'Times New Roman', 'CMU Serif', 'DejaVu Serif', serif; text-anchor: middle" x="14.038594" y="79.05" transform="rotate(-90 14.038594 79.05)">Training loss</text>
    </g>
   </g>
   <g id="line2d_14">
    <path d="M 42.708736 13.731818 
L 43.612299 27.368668 
L 44.515862 22.990831 
L 45.419426 29.252825 
L 46.322989 37.010624 
L 47.226552 42.984771 
L 48.130115 46.774825 
L 49.937242 59.903904 
L 50.840805 69.830362 
L 51.744369 69.61086 
L 52.647932 70.437698 
L 53.551495 74.558553 
L 54.455058 73.363012 
L 56.262185 79.833299 
L 57.165748 87.137281 
L 58.069311 87.431084 
L 58.972875 91.41448 
L 59.876438 89.904369 
L 60.780001 95.074667 
L 61.683564 94.347065 
L 62.587128 97.207319 
L 63.490691 95.03253 
L 64.394254 98.586354 
L 65.297818 99.940146 
L 66.201381 96.889626 
L 68.008507 108.389647 
L 68.912071 109.088848 
L 69.815634 109.320393 
L 70.719197 111.189506 
L 71.62276 110.399207 
L 72.526324 110.249693 
L 73.429887 116.819036 
L 74.33345 118.7801 
L 75.237014 118.040385 
L 76.140577 118.137541 
L 77.04414 122.142586 
L 77.947703 120.678295 
L 78.851267 121.613217 
L 79.75483 124.322019 
L 81.561956 124.810709 
L 82.46552 125.783588 
L 83.369083 127.227383 
L 84.272646 125.656847 
L 85.17621 128.430968 
L 86.079773 130.634825 
L 87.886899 129.532462 
L 88.790463 130.822138 
L 89.694026 132.688833 
L 90.597589 132.830117 
L 91.501152 132.248225 
L 92.404716 135.656946 
L 93.308279 135.639988 
L 94.211842 135.086202 
L 95.115406 137.162463 
L 96.018969 136.804655 
L 96.922532 138.357802 
L 97.826095 138.922755 
L 98.729659 138.168941 
L 99.633222 138.744517 
L 100.536785 139.953255 
L 101.440348 139.960409 
L 102.343912 140.376346 
L 103.247475 141.14681 
L 104.151038 140.448144 
L 105.054601 140.481197 
L 105.958165 142.072755 
L 106.861728 142.055741 
L 107.765291 142.390328 
L 108.668855 142.168868 
L 110.475981 142.722488 
L 111.379544 142.717784 
L 112.283108 142.988156 
L 113.186671 142.624078 
L 114.090234 143.117848 
L 114.993797 142.634696 
L 115.897361 142.975192 
L 118.608051 143.39858 
L 120.415177 143.318495 
L 121.31874 143.131347 
L 122.222304 143.47055 
L 123.125867 143.3261 
L 124.02943 143.753764 
L 125.836557 143.475516 
L 126.74012 143.843515 
L 127.643683 143.605039 
L 128.547247 143.520222 
L 129.45081 143.992175 
L 130.354373 143.688049 
L 131.257936 143.752555 
L 132.1615 143.215311 
L 133.065063 143.780582 
L 133.968626 143.481553 
L 134.872189 143.957377 
L 135.775753 143.99292 
L 137.582879 143.901412 
L 141.197132 144.003223 
L 143.004259 143.908328 
L 143.907822 143.800062 
L 145.714949 144.060396 
L 147.522075 144.09249 
L 148.425638 144.047085 
L 149.329202 144.181903 
L 150.232765 144.043019 
L 155.654145 144.115146 
L 157.461271 144.151894 
L 158.364834 143.953193 
L 159.268398 143.91178 
L 160.171961 144.020741 
L 161.075524 144.012681 
L 162.882651 144.154663 
L 163.786214 144.156922 
L 164.689777 144.033359 
L 165.593341 144.121028 
L 166.496904 144.070423 
L 167.400467 143.824293 
L 168.30403 144.163826 
L 170.111157 144.032865 
L 171.01472 144.177722 
L 171.918284 144.076252 
L 172.821847 144.201568 
L 175.532537 144.06295 
L 177.339663 144.05987 
L 178.243226 143.995125 
L 179.14679 144.229553 
L 180.953916 144.238637 
L 182.761043 144.264874 
L 183.664606 144.178497 
L 184.568169 144.282384 
L 185.471733 144.114133 
L 186.375296 144.288493 
L 187.278859 144.037761 
L 190.893112 144.086513 
L 191.796675 144.273719 
L 192.700239 144.132707 
L 193.603802 144.246526 
L 194.507365 144.230451 
L 195.410929 144.337428 
L 196.314492 144.126587 
L 198.121618 144.115712 
L 199.025182 144.205666 
L 199.928745 144.088237 
L 200.832308 144.138665 
L 201.735871 144.368182 
L 203.542998 144.166911 
L 204.446561 144.34364 
L 206.253688 144.148643 
L 207.157251 144.27069 
L 213.482194 144.32008 
L 214.385757 144.02457 
L 215.289321 144.20686 
L 217.096447 144.21817 
L 219.807137 144.174177 
L 220.7107 144.288185 
L 221.614263 144.231369 
L 222.517827 144.294542 
L 222.517827 144.294542 
" clip-path="url(#p980244cddd)" style="fill: none; stroke: #4c72b0; stroke-width: 1.2; stroke-linecap: square"/>
   </g>
   <g id="patch_3">
    <path d="M 33.718281 150.9 
L 33.718281 7.2 
" style="fill: none; stroke: #000000; stroke-width: 0.6; stroke-linejoin: miter; stroke-linecap: square"/>
   </g>
   <g id="patch_4">
    <path d="M 33.718281 150.9 
L 231.508281 150.9 
" style="fill: none; stroke: #000000; stroke-width: 0.6; stroke-linejoin: miter; stroke-linecap: square"/>
   </g>
  </g>
 </g>
 <defs>
  <clipPath id="p980244cddd">
   <rect x="33.718281" y="7.2" width="197.79" height="143.7"/>
  </clipPath>
 </defs>
</svg>
