<?xml version="1.0" encoding="utf-8" standalone="no"?>
<!DOCTYPE svg PUBLIC "-//W3C//DTD SVG 1.1//EN"
  "http://www.w3.org/Graphics/SVG/1.1/DTD/svg11.dtd">
<svg xmlns:xlink="http://www.w3.org/1999/xlink" width="246.501406pt" height="181.760781pt" viewBox="0 0 246.501406 181.760781" xmlns="http://www.w3.org/2000/svg" version="1.1">
 <metadata>
  <rdf:RDF xmlns:dc="http://purl.org/dc/elements/1.1/" xmlns:cc="http://creativecommons.org/ns#" xmlns:rdf="http://www.w3.org/1999/02/22-rdf-syntax-ns#">
   <cc:Work>
    <dc:type rdf:resource="http://purl.org/dc/dcmitype/StillImage"/>
    <dc:date>2026-05-22T05:42:14.904135</dc:date>
    <dc:format>image/svg+xml</dc:format>
    <dc:creator>
     <cc:Agent>
      <dc:title>Matplotlib v3.10.7, https://matplotlib.org/</dc:title>
     </cc:Agent>
    </dc:creator>
   </cc:Work>
  </rdf:RDF>
 </metadata>
 <defs>
  <style type="text/css">*{stroke-linejoin: round; stroke-linecap: butt}</style>
 </defs>
 <g id="figure_1">
  <g id="patch_1">
   <path d="M 0 181.760781 
L 246.501406 181.760781 
L 246.501406 0 
L 0 0 
z
" style="fill: #ffffff"/>
  </g>
  <g id="axes_1">
   <g id="patch_2">
    <path d="M 30.891406 151.62 
L 239.301406 151.62 
L 239.301406 7.2 
L 30.891406 7.2 
z
" style="fill: #ffffff"/>
   </g>
   <g id="matplotlib.axis_1">
    <g id="xtick_1">
     <g id="line2d_1">
      <defs>
       <path id="m36284659c8" d="M 0 0 
L 0 -3 
" style="stroke: #000000; stroke-width: 0.7"/>
      </defs>
      <g>
       <use xlink:href="#m36284659c8" x="39.412509" y="151.62" style="stroke: #000000; stroke-width: 0.7"/>
      </g>
     </g>
     <g id="text_1">
      <text style="font-size: 8px; font-family: 'Times New Roman', 'CMU Serif', 'DejaVu Serif', serif; text-anchor: middle" x="39.412509" y="160.675" transform="rotate(-0 39.412509 160.675)">0</text>
     </g>
    </g>
    <g id="xtick_2">
     <g id="line2d_2">
      <g>
       <use xlink:href="#m36284659c8" x="87.016438" y="151.62" style="stroke: #000000; stroke-width: 0.7"/>
      </g>
     </g>
     <g id="text_2">
      <text style="font-size: 8px; font-family: 'Times New Roman', 'CMU Serif', 'DejaVu Serif', serif; text-anchor: middle" x="87.016438" y="160.675" transform="rotate(-0 87.016438 160.675)">50</text>
     </g>
    </g>
    <g id="xtick_3">
     <g id="line2d_3">
      <g>
       <use xlink:href="#m36284659c8" x="134.620367" y="151.62" style="stroke: #000000; stroke-width: 0.7"/>
      </g>
     </g>
     <g id="text_3">
      <text style="font-size: 8px; font-family: 'Times New Roman', 'CMU Serif', 'DejaVu Serif', serif; text-anchor: middle" x="134.620367" y="160.675" transform="rotate(-0 134.620367 160.675)">100</text>
     </g>
    </g>
    <g id="xtick_4">
     <g id="line2d_4">
      <g>
       <use xlink:href="#m36284659c8" x="182.224296" y="151.62" style="stroke: #000000; stroke-width: 0.7"/>
      </g>
     </g>
     <g id="text_4">
      <text style="font-size: 8px; font-family: 'Times New Roman', 'CMU Serif', 'DejaVu Serif', serif; text-anchor: middle" x="182.224296" y="160.675" transform="rotate(-0 182.224296 160.675)">150</text>
     </g>
    </g>
    <g id="xtick_5">
     <g id="line2d_5">
      <g>
       <use xlink:href="#m36284659c8" x="229.828224" y="151.62" style="stroke: #000000; stroke-width: 0.7"/>
      </g>
     </g>
     <g id="text_5">
      <text style="font-size: 8px; font-family: 'Times New Roman', 'CMU Serif', 'DejaVu Serif', serif; text-anchor: middle" x="229.828224" y="160.675" transform="rotate(-0 229.828224 160.675)">200</text>
     </g>
    </g>
    <g id="text_6">
     <text style="font-size: 9px; font-family: 'Times New Roman', 'CMU Serif', 'DejaVu Serif', serif; text-anchor: middle" x="135.096406" y="172.635625" transform="rotate(-0 135.096406 172.635625)">Epoch</text>
    </g>
   </g>
   <g id="matplotlib.axis_2">
    <g id="ytick_1">
     <g id="line2d_6">
      <path d="M 30.891406 150.406318 
L 239.301406 150.406318 
" clip-path="url(#p979e3b53b3)" style="fill: none; stroke-dasharray: 0.5,0.825; stroke-dashoffset: 0; stroke: #b0b0b0; stroke-opacity: 0.6; stroke-width: 0.5"/>
     </g>
     <g id="line2d_7">
      <defs>
       <path id="mf218fa7567" d="M 0 0 
L 3 0 
" style="stroke: #000000; stroke-width: 0.7"/>
      </defs>
      <g>
       <use xlink:href="#mf218fa7567" x="30.891406" y="150.406318" style="stroke: #000000; stroke-width: 0.7"/>
      </g>
     </g>
     <g id="text_7">
      <text style="font-size: 8px; font-family: 'Times New Roman', 'CMU Serif', 'DejaVu Serif', serif; text-anchor: end" x="27.391406" y="153.183818" transform="rotate(-0 27.391406 153.183818)">0</text>
     </g>
    </g>
    <g id="ytick_2">
     <g id="line2d_8">
      <path d="M 30.891406 118.633905 
L 239.301406 118.633905 
" clip-path="url(#p979e3b53b3)" style="fill: none; stroke-dasharray: 0.5,0.825; stroke-dashoffset: 0; stroke: #b0b0b0; stroke-opacity: 0.6; stroke-width: 0.5"/>
     </g>
     <g id="line2d_9">
      <g>
       <use xlink:href="#mf218fa7567" x="30.891406" y="118.633905" style="stroke: #000000; stroke-width: 0.7"/>
      </g>
     </g>
     <g id="text_8">
      <text style="font-size: 8px; font-family: 'Times New Roman', 'CMU Serif', 'DejaVu Serif', serif; text-anchor: end" x="27.391406" y="121.411405" transform="rotate(-0 27.391406 121.411405)">5</text>
     </g>
    </g>
    <g id="ytick_3">
     <g id="line2d_10">
      <path d="M 30.891406 86.861493 
L 239.301406 86.861493 
" clip-path="url(#p979e3b53b3)" style="fill: none; stroke-dasharray: 0.5,0.825; stroke-dashoffset: 0; stroke: #b0b0b0; stroke-opacity: 0.6; stroke-width: 0.5"/>
     </g>
     <g id="line2d_11">
      <g>
       <use xlink:href="#mf218fa7567" x="30.891406" y="86.861493" style="stroke: #000000; stroke-width: 0.7"/>
      </g>
     </g>
     <g id="text_9">
      <text style="font-size: 8px; font-family: 'Times New Roman', 'CMU Serif', 'DejaVu Serif', serif; text-anchor: end" x="27.391406" y="89.638993" transform="rotate(-0 27.391406 89.638993)">10</text>
     </g>
    </g>
    <g id="ytick_4">
     <g id="line2d_12">
      <path d="M 30.891406 55.08908 
L 239.301406 55.08908 
" clip-path="url(#p979e3b53b3)" style="fill: none; stroke-dasharray: 0.5,0.825; stroke-dashoffset: 0; stroke: #b0b0b0; stroke-opacity: 0.6; stroke-width: 0.5"/>
     </g>
     <g id="line2d_13">
      <g>
       <use xlink:href="#mf218fa7567" x="30.891406" y="55.08908" style="stroke: #000000; stroke-width: 0.7"/>
      </g>
     </g>
     <g id="text_10">
      <text style="font-size: 8px; font-family: 'Times New Roman', 'CMU Serif', 'DejaVu Serif', serif; text-anchor: end" x="27.391406" y="57.86658" transform="rotate(-0 27.391406 57.86658)">15</text>
     </g>
    </g>
    <g id="ytick_5">
     <g id="line2d_14">
      <path d="M 30.891406 23.316668 
L 239.301406 23.316668 
" clip-path="url(#p979e3b53b3)" style="fill: none; stroke-dasharray: 0.5,0.825; stroke-dashoffset: 0; stroke: #b0b0b0; stroke-opacity: 0.6; stroke-width: 0.5"/>
     </g>
     <g id="line2d_15">
      <g>
       <use xlink:href="#mf218fa7567" x="30.891406" y="23.316668" style="stroke: #000000; stroke-width: 0.7"/>
      </g>
     </g>
     <g id="text_11">
      <text style="font-size: 8px; font-family: 'Times New Roman', 'CMU Serif', 'DejaVu Serif', serif; text-anchor: end" x="27.391406" y="26.094168" transform="rotate(-0 27.391406 26.094168)">20</text>
     </g>
    </g>
    <g id="text_12">
     <text style="font-size: 9px; font-family: 'Times New Roman', 'CMU Serif', 'DejaVu Serif', serif; text-anchor: middle" x="13.449375" y="79.41" transform="rotate(-90 13.449375 79.41)">Training loss</text>
    </g>
   </g>
   <g id="line2d_16">
    <path d="M 40.364588 13.764545 
L 41.316667 16.53516 
L 44.172902 23.554351 
L 45.124981 25.515062 
L 46.07706 28.010687 
L 47.029138 29.81855 
L 50.837452 38.182306 
L 51.789531 40.003953 
L 52.74161 41.554171 
L 55.597845 47.125412 
L 61.310317 57.043183 
L 62.262395 58.360399 
L 64.166552 61.877557 
L 65.118631 63.170299 
L 66.07071 64.861769 
L 67.022788 66.099143 
L 67.974867 67.672816 
L 68.926945 68.934591 
L 69.879024 70.450645 
L 70.831102 71.648667 
L 73.687338 75.957503 
L 74.639417 77.032027 
L 75.591495 78.531558 
L 81.303967 86.123978 
L 82.256045 87.323618 
L 83.208124 88.776526 
L 84.160203 90.015875 
L 85.112281 91.034914 
L 87.968517 94.543214 
L 88.920595 96.084133 
L 91.776831 99.406905 
L 95.585145 104.040418 
L 96.537224 105.000547 
L 101.297617 110.888228 
L 102.249695 111.833008 
L 103.201774 113.178996 
L 105.105931 115.340507 
L 108.914245 119.779147 
L 111.770481 122.953636 
L 120.339188 132.49465 
L 122.243345 134.33984 
L 123.195424 135.442488 
L 128.907896 140.306379 
L 129.859974 140.991749 
L 131.764131 142.046292 
L 134.620367 143.179516 
L 137.476603 143.846563 
L 142.236996 144.113132 
L 146.04531 144.188057 
L 226.01991 145.012676 
L 229.828224 145.055455 
L 229.828224 145.055455 
" clip-path="url(#p979e3b53b3)" style="fill: none; stroke: #4c72b0; stroke-width: 1.2; stroke-linecap: square"/>
   </g>
   <g id="patch_3">
    <path d="M 30.891406 151.62 
L 30.891406 7.2 
" style="fill: none; stroke: #000000; stroke-width: 0.6; stroke-linejoin: miter; stroke-linecap: square"/>
   </g>
   <g id="patch_4">
    <path d="M 30.891406 151.62 
L 239.301406 151.62 
" style="fill: none; stroke: #000000; stroke-width: 0.6; stroke-linejoin: miter; stroke-linecap: square"/>
   </g>
  </g>
 </g>
 <defs>
  <clipPath id="p979e3b53b3">
   <rect x="30.891406" y="7.2" width="208.41" height="144.42"/>
  </clipPath>
 </defs>
</svg>
