<?xml version="1.0" encoding="utf-8" standalone="no"?>
<!DOCTYPE svg PUBLIC "-//W3C//DTD SVG 1.1//EN"
  "http://www.w3.org/Graphics/SVG/1.1/DTD/svg11.dtd">
<svg xmlns:xlink="http://www.w3.org/1999/xlink" width="246.591406pt" height="181.760781pt" viewBox="0 0 246.591406 181.760781" xmlns="http://www.w3.org/2000/svg" version="1.1">
 <metadata>
  <rdf:RDF xmlns:dc="http://purl.org/dc/elements/1.1/" xmlns:cc="http://creativecommons.org/ns#" xmlns:rdf="http://www.w3.org/1999/02/22-rdf-syntax-ns#">
   <cc:Work>
    <dc:type rdf:resource="http://purl.org/dc/dcmitype/StillImage"/>
    <dc:date>2026-05-22T05:29:36.400105</dc:date>
    <dc:format>image/svg+xml</dc:format>
    <dc:creator>
     <cc:Agent>
      <dc:title>Matplotlib v3.10.7, https://matplotlib.org/</dc:title>
     </cc:Agent>
    </dc:creator>
   </cc:Work>
  </rdf:RDF>
 </metadata>
 <defs>
  <style type="text/css">*{stroke-linejoin: round; stroke-linecap: butt}</style>
 </defs>
 <g id="figure_1">
  <g id="patch_1">
   <path d="M 0 181.760781 
L 246.591406 181.760781 
L 246.591406 0 
L 0 0 
z
" style="fill: #ffffff"/>
  </g>
  <g id="axes_1">
   <g id="patch_2">
    <path d="M 30.891406 151.62 
L 239.391406 151.62 
L 239.391406 7.2 
L 30.891406 7.2 
z
" style="fill: #ffffff"/>
   </g>
   <g id="matplotlib.axis_1">
    <g id="xtick_1">
     <g id="line2d_1">
      <defs>
       <path id="m485ae6a22c" d="M 0 0 
L 0 -3 
" style="stroke: #000000; stroke-width: 0.7"/>
      </defs>
      <g>
       <use xlink:href="#m485ae6a22c" x="39.416189" y="151.62" style="stroke: #000000; stroke-width: 0.7"/>
      </g>
     </g>
     <g id="text_1">
      <text style="font-size: 8px; font-family: 'Times New Roman', 'CMU Serif', 'DejaVu Serif', serif; text-anchor: middle" x="39.416189" y="160.675" transform="rotate(-0 39.416189 160.675)">0</text>
     </g>
    </g>
    <g id="xtick_2">
     <g id="line2d_2">
      <g>
       <use xlink:href="#m485ae6a22c" x="87.040675" y="151.62" style="stroke: #000000; stroke-width: 0.7"/>
      </g>
     </g>
     <g id="text_2">
      <text style="font-size: 8px; font-family: 'Times New Roman', 'CMU Serif', 'DejaVu Serif', serif; text-anchor: middle" x="87.040675" y="160.675" transform="rotate(-0 87.040675 160.675)">50</text>
     </g>
    </g>
    <g id="xtick_3">
     <g id="line2d_3">
      <g>
       <use xlink:href="#m485ae6a22c" x="134.665161" y="151.62" style="stroke: #000000; stroke-width: 0.7"/>
      </g>
     </g>
     <g id="text_3">
      <text style="font-size: 8px; font-family: 'Times New Roman', 'CMU Serif', 'DejaVu Serif', serif; text-anchor: middle" x="134.665161" y="160.675" transform="rotate(-0 134.665161 160.675)">100</text>
     </g>
    </g>
    <g id="xtick_4">
     <g id="line2d_4">
      <g>
       <use xlink:href="#m485ae6a22c" x="182.289647" y="151.62" style="stroke: #000000; stroke-width: 0.7"/>
      </g>
     </g>
     <g id="text_4">
      <text style="font-size: 8px; font-family: 'Times New Roman', 'CMU Serif', 'DejaVu Serif', serif; text-anchor: middle" x="182.289647" y="160.675" transform="rotate(-0 182.289647 160.675)">150</text>
     </g>
    </g>
    <g id="xtick_5">
     <g id="line2d_5">
      <g>
       <use xlink:href="#m485ae6a22c" x="229.914134" y="151.62" style="stroke: #000000; stroke-width: 0.7"/>
      </g>
     </g>
     <g id="text_5">
      <text style="font-size: 8px; font-family: 'Times New Roman', 'CMU Serif', 'DejaVu Serif', serif; text-anchor: middle" x="229.914134" y="160.675" transform="rotate(-0 229.914134 160.675)">200</text>
     </g>
    </g>
    <g id="text_6">
     <text style="font-size: 9px; font-family: 'Times New Roman', 'CMU Serif', 'DejaVu Serif', serif; text-anchor: middle" x="135.141406" y="172.635625" transform="rotate(-0 135.141406 172.635625)">Epoch</text>
    </g>
   </g>
   <g id="matplotlib.axis_2">
    <g id="ytick_1">
     <g id="line2d_6">
      <path d="M 30.891406 145.171214 
L 239.391406 145.171214 
" clip-path="url(#pa9f58a8d81)" style="fill: none; stroke-dasharray: 0.5,0.825; stroke-dashoffset: 0; stroke: #b0b0b0; stroke-opacity: 0.6; stroke-width: 0.5"/>
     </g>
     <g id="line2d_7">
      <defs>
       <path id="m83ec1b5d7e" d="M 0 0 
L 3 0 
" style="stroke: #000000; stroke-width: 0.7"/>
      </defs>
      <g>
       <use xlink:href="#m83ec1b5d7e" x="30.891406" y="145.171214" style="stroke: #000000; stroke-width: 0.7"/>
      </g>
     </g>
     <g id="text_7">
      <text style="font-size: 8px; font-family: 'Times New Roman', 'CMU Serif', 'DejaVu Serif', serif; text-anchor: end" x="27.391406" y="147.948714" transform="rotate(-0 27.391406 147.948714)">0</text>
     </g>
    </g>
    <g id="ytick_2">
     <g id="line2d_8">
      <path d="M 30.891406 127.467335 
L 239.391406 127.467335 
" clip-path="url(#pa9f58a8d81)" style="fill: none; stroke-dasharray: 0.5,0.825; stroke-dashoffset: 0; stroke: #b0b0b0; stroke-opacity: 0.6; stroke-width: 0.5"/>
     </g>
     <g id="line2d_9">
      <g>
       <use xlink:href="#m83ec1b5d7e" x="30.891406" y="127.467335" style="stroke: #000000; stroke-width: 0.7"/>
      </g>
     </g>
     <g id="text_8">
      <text style="font-size: 8px; font-family: 'Times New Roman', 'CMU Serif', 'DejaVu Serif', serif; text-anchor: end" x="27.391406" y="130.244835" transform="rotate(-0 27.391406 130.244835)">2</text>
     </g>
    </g>
    <g id="ytick_3">
     <g id="line2d_10">
      <path d="M 30.891406 109.763456 
L 239.391406 109.763456 
" clip-path="url(#pa9f58a8d81)" style="fill: none; stroke-dasharray: 0.5,0.825; stroke-dashoffset: 0; stroke: #b0b0b0; stroke-opacity: 0.6; stroke-width: 0.5"/>
     </g>
     <g id="line2d_11">
      <g>
       <use xlink:href="#m83ec1b5d7e" x="30.891406" y="109.763456" style="stroke: #000000; stroke-width: 0.7"/>
      </g>
     </g>
     <g id="text_9">
      <text style="font-size: 8px; font-family: 'Times New Roman', 'CMU Serif', 'DejaVu Serif', serif; text-anchor: end" x="27.391406" y="112.540956" transform="rotate(-0 27.391406 112.540956)">4</text>
     </g>
    </g>
    <g id="ytick_4">
     <g id="line2d_12">
      <path d="M 30.891406 92.059577 
L 239.391406 92.059577 
" clip-path="url(#pa9f58a8d81)" style="fill: none; stroke-dasharray: 0.5,0.825; stroke-dashoffset: 0; stroke: #b0b0b0; stroke-opacity: 0.6; stroke-width: 0.5"/>
     </g>
     <g id="line2d_13">
      <g>
       <use xlink:href="#m83ec1b5d7e" x="30.891406" y="92.059577" style="stroke: #000000; stroke-width: 0.7"/>
      </g>
     </g>
     <g id="text_10">
      <text style="font-size: 8px; font-family: 'Times New Roman', 'CMU Serif', 'DejaVu Serif', serif; text-anchor: end" x="27.391406" y="94.837077" transform="rotate(-0 27.391406 94.837077)">6</text>
     </g>
    </g>
    <g id="ytick_5">
     <g id="line2d_14">
      <path d="M 30.891406 74.355698 
L 239.391406 74.355698 
" clip-path="url(#pa9f58a8d81)" style="fill: none; stroke-dasharray: 0.5,0.825; stroke-dashoffset: 0; stroke: #b0b0b0; stroke-opacity: 0.6; stroke-width: 0.5"/>
     </g>
     <g id="line2d_15">
      <g>
       <use xlink:href="#m83ec1b5d7e" x="30.891406" y="74.355698" style="stroke: #000000; stroke-width: 0.7"/>
      </g>
     </g>
     <g id="text_11">
      <text style="font-size: 8px; font-family: 'Times New Roman', 'CMU Serif', 'DejaVu Serif', serif; text-anchor: end" x="27.391406" y="77.133198" transform="rotate(-0 27.391406 77.133198)">8</text>
     </g>
    </g>
    <g id="ytick_6">
     <g id="line2d_16">
      <path d="M 30.891406 56.651819 
L 239.391406 56.651819 
" clip-path="url(#pa9f58a8d81)" style="fill: none; stroke-dasharray: 0.5,0.825; stroke-dashoffset: 0; stroke: #b0b0b0; stroke-opacity: 0.6; stroke-width: 0.5"/>
     </g>
     <g id="line2d_17">
      <g>
       <use xlink:href="#m83ec1b5d7e" x="30.891406" y="56.651819" style="stroke: #000000; stroke-width: 0.7"/>
      </g>
     </g>
     <g id="text_12">
      <text style="font-size: 8px; font-family: 'Times New Roman', 'CMU Serif', 'DejaVu Serif', serif; text-anchor: end" x="27.391406" y="59.429319" transform="rotate(-0 27.391406 59.429319)">10</text>
     </g>
    </g>
    <g id="ytick_7">
     <g id="line2d_18">
      <path d="M 30.891406 38.94794 
L 239.391406 38.94794 
" clip-path="url(#pa9f58a8d81)" style="fill: none; stroke-dasharray: 0.5,0.825; stroke-dashoffset: 0; stroke: #b0b0b0; stroke-opacity: 0.6; stroke-width: 0.5"/>
     </g>
     <g id="line2d_19">
      <g>
       <use xlink:href="#m83ec1b5d7e" x="30.891406" y="38.94794" style="stroke: #000000; stroke-width: 0.7"/>
      </g>
     </g>
     <g id="text_13">
      <text style="font-size: 8px; font-family: 'Times New Roman', 'CMU Serif', 'DejaVu Serif', serif; text-anchor: end" x="27.391406" y="41.72544" transform="rotate(-0 27.391406 41.72544)">12</text>
     </g>
    </g>
    <g id="ytick_8">
     <g id="line2d_20">
      <path d="M 30.891406 21.244062 
L 239.391406 21.244062 
" clip-path="url(#pa9f58a8d81)" style="fill: none; stroke-dasharray: 0.5,0.825; stroke-dashoffset: 0; stroke: #b0b0b0; stroke-opacity: 0.6; stroke-width: 0.5"/>
     </g>
     <g id="line2d_21">
      <g>
       <use xlink:href="#m83ec1b5d7e" x="30.891406" y="21.244062" style="stroke: #000000; stroke-width: 0.7"/>
      </g>
     </g>
     <g id="text_14">
      <text style="font-size: 8px; font-family: 'Times New Roman', 'CMU Serif', 'DejaVu Serif', serif; text-anchor: end" x="27.391406" y="24.021562" transform="rotate(-0 27.391406 24.021562)">14</text>
     </g>
    </g>
    <g id="text_15">
     <text style="font-size: 9px; font-family: 'Times New Roman', 'CMU Serif', 'DejaVu Serif', serif; text-anchor: middle" x="13.449375" y="79.41" transform="rotate(-90 13.449375 79.41)">Training loss</text>
    </g>
   </g>
   <g id="line2d_22">
    <path d="M 40.368679 13.764545 
L 42.273658 100.382966 
L 43.226148 131.572031 
L 44.178638 129.503787 
L 45.131128 138.695385 
L 46.083617 141.656383 
L 47.036107 142.762603 
L 47.988597 143.344473 
L 49.893576 143.299307 
L 50.846066 143.718218 
L 51.798556 143.375418 
L 52.751045 143.684582 
L 53.703535 143.701724 
L 54.656025 143.907999 
L 57.513494 144.089871 
L 58.465984 143.97524 
L 60.370963 144.198989 
L 62.275943 144.03198 
L 63.228432 144.26345 
L 65.133412 144.302082 
L 66.085901 144.279251 
L 67.038391 144.386233 
L 69.89586 144.388589 
L 71.80084 144.460922 
L 78.468268 144.545436 
L 79.420758 144.476852 
L 80.373247 144.581813 
L 81.325737 144.530678 
L 82.278227 144.630363 
L 86.088186 144.630319 
L 89.898144 144.724539 
L 93.708103 144.706174 
L 99.423042 144.773559 
L 100.375531 144.498098 
L 102.280511 144.764961 
L 104.18549 144.760849 
L 107.995449 144.804358 
L 108.947939 144.680787 
L 110.852918 144.804594 
L 114.662877 144.824301 
L 117.520346 144.783322 
L 119.425326 144.857197 
L 127.997733 144.882067 
L 128.950223 144.728197 
L 130.855203 144.868164 
L 133.712672 144.883357 
L 134.665161 144.616098 
L 135.617651 144.824286 
L 136.570141 144.669546 
L 137.522631 144.905271 
L 144.190059 144.915237 
L 149.904997 144.930886 
L 150.857487 144.861637 
L 152.762466 144.912958 
L 155.619935 144.929297 
L 156.572425 144.777119 
L 157.524915 144.91455 
L 167.049812 144.975831 
L 168.002302 144.828935 
L 175.622219 144.9643 
L 178.479689 144.949271 
L 180.384668 144.940769 
L 194.672014 144.985887 
L 196.576993 144.965779 
L 198.481973 144.980041 
L 202.291932 145.01722 
L 229.914134 145.049701 
L 229.914134 145.049701 
" clip-path="url(#pa9f58a8d81)" style="fill: none; stroke: #4c72b0; stroke-width: 1.2; stroke-linecap: square"/>
   </g>
   <g id="patch_3">
    <path d="M 30.891406 151.62 
L 30.891406 7.2 
" style="fill: none; stroke: #000000; stroke-width: 0.6; stroke-linejoin: miter; stroke-linecap: square"/>
   </g>
   <g id="patch_4">
    <path d="M 30.891406 151.62 
L 239.391406 151.62 
" style="fill: none; stroke: #000000; stroke-width: 0.6; stroke-linejoin: miter; stroke-linecap: square"/>
   </g>
  </g>
 </g>
 <defs>
  <clipPath id="pa9f58a8d81">
   <rect x="30.891406" y="7.2" width="208.5" height="144.42"/>
  </clipPath>
 </defs>
</svg>
