<?xml version="1.0" encoding="utf-8" standalone="no"?>
<!DOCTYPE svg PUBLIC "-//W3C//DTD SVG 1.1//EN"
  "http://www.w3.org/Graphics/SVG/1.1/DTD/svg11.dtd">
<svg xmlns:xlink="http://www.w3.org/1999/xlink" width="246.461406pt" height="181.760781pt" viewBox="0 0 246.461406 181.760781" xmlns="http://www.w3.org/2000/svg" version="1.1">
 <metadata>
  <rdf:RDF xmlns:dc="http://purl.org/dc/elements/1.1/" xmlns:cc="http://creativecommons.org/ns#" xmlns:rdf="http://www.w3.org/1999/02/22-rdf-syntax-ns#">
   <cc:Work>
    <dc:type rdf:resource="http://purl.org/dc/dcmitype/StillImage"/>
    <dc:date>2026-05-06T09:32:41.450203</dc:date>
    <dc:format>image/svg+xml</dc:format>
    <dc:creator>
     <cc:Agent>
      <dc:title>Matplotlib v3.10.7, https://matplotlib.org/</dc:title>
     </cc:Agent>
    </dc:creator>
   </cc:Work>
  </rdf:RDF>
 </metadata>
 <defs>
  <style type="text/css">*{stroke-linejoin: round; stroke-linecap: butt}</style>
 </defs>
 <g id="figure_1">
  <g id="patch_1">
   <path d="M 0 181.760781 
L 246.461406 181.760781 
L 246.461406 0 
L 0 0 
z
" style="fill: #ffffff"/>
  </g>
  <g id="axes_1">
   <g id="patch_2">
    <path d="M 26.891406 151.62 
L 239.261406 151.62 
L 239.261406 7.2 
L 26.891406 7.2 
z
" style="fill: #ffffff"/>
   </g>
   <g id="matplotlib.axis_1">
    <g id="xtick_1">
     <g id="line2d_1">
      <defs>
       <path id="m1a4483bc1f" d="M 0 0 
L 0 -3 
" style="stroke: #000000; stroke-width: 0.7"/>
      </defs>
      <g>
       <use xlink:href="#m1a4483bc1f" x="35.574419" y="151.62" style="stroke: #000000; stroke-width: 0.7"/>
      </g>
     </g>
     <g id="text_1">
      <text style="font-size: 8px; font-family: 'Times New Roman', 'CMU Serif', 'DejaVu Serif', serif; text-anchor: middle" x="35.574419" y="160.675" transform="rotate(-0 35.574419 160.675)">0</text>
     </g>
    </g>
    <g id="xtick_2">
     <g id="line2d_2">
      <g>
       <use xlink:href="#m1a4483bc1f" x="84.08287" y="151.62" style="stroke: #000000; stroke-width: 0.7"/>
      </g>
     </g>
     <g id="text_2">
      <text style="font-size: 8px; font-family: 'Times New Roman', 'CMU Serif', 'DejaVu Serif', serif; text-anchor: middle" x="84.08287" y="160.675" transform="rotate(-0 84.08287 160.675)">50</text>
     </g>
    </g>
    <g id="xtick_3">
     <g id="line2d_3">
      <g>
       <use xlink:href="#m1a4483bc1f" x="132.591322" y="151.62" style="stroke: #000000; stroke-width: 0.7"/>
      </g>
     </g>
     <g id="text_3">
      <text style="font-size: 8px; font-family: 'Times New Roman', 'CMU Serif', 'DejaVu Serif', serif; text-anchor: middle" x="132.591322" y="160.675" transform="rotate(-0 132.591322 160.675)">100</text>
     </g>
    </g>
    <g id="xtick_4">
     <g id="line2d_4">
      <g>
       <use xlink:href="#m1a4483bc1f" x="181.099773" y="151.62" style="stroke: #000000; stroke-width: 0.7"/>
      </g>
     </g>
     <g id="text_4">
      <text style="font-size: 8px; font-family: 'Times New Roman', 'CMU Serif', 'DejaVu Serif', serif; text-anchor: middle" x="181.099773" y="160.675" transform="rotate(-0 181.099773 160.675)">150</text>
     </g>
    </g>
    <g id="xtick_5">
     <g id="line2d_5">
      <g>
       <use xlink:href="#m1a4483bc1f" x="229.608224" y="151.62" style="stroke: #000000; stroke-width: 0.7"/>
      </g>
     </g>
     <g id="text_5">
      <text style="font-size: 8px; font-family: 'Times New Roman', 'CMU Serif', 'DejaVu Serif', serif; text-anchor: middle" x="229.608224" y="160.675" transform="rotate(-0 229.608224 160.675)">200</text>
     </g>
    </g>
    <g id="text_6">
     <text style="font-size: 9px; font-family: 'Times New Roman', 'CMU Serif', 'DejaVu Serif', serif; text-anchor: middle" x="133.076406" y="172.635625" transform="rotate(-0 133.076406 172.635625)">Epoch</text>
    </g>
   </g>
   <g id="matplotlib.axis_2">
    <g id="ytick_1">
     <g id="line2d_6">
      <path d="M 26.891406 145.341376 
L 239.261406 145.341376 
" clip-path="url(#pb1109fb8a1)" style="fill: none; stroke-dasharray: 0.5,0.825; stroke-dashoffset: 0; stroke: #b0b0b0; stroke-opacity: 0.6; stroke-width: 0.5"/>
     </g>
     <g id="line2d_7">
      <defs>
       <path id="m69feca15e8" d="M 0 0 
L 3 0 
" style="stroke: #000000; stroke-width: 0.7"/>
      </defs>
      <g>
       <use xlink:href="#m69feca15e8" x="26.891406" y="145.341376" style="stroke: #000000; stroke-width: 0.7"/>
      </g>
     </g>
     <g id="text_7">
      <text style="font-size: 8px; font-family: 'Times New Roman', 'CMU Serif', 'DejaVu Serif', serif; text-anchor: end" x="23.391406" y="148.118876" transform="rotate(-0 23.391406 148.118876)">0</text>
     </g>
    </g>
    <g id="ytick_2">
     <g id="line2d_8">
      <path d="M 26.891406 124.603757 
L 239.261406 124.603757 
" clip-path="url(#pb1109fb8a1)" style="fill: none; stroke-dasharray: 0.5,0.825; stroke-dashoffset: 0; stroke: #b0b0b0; stroke-opacity: 0.6; stroke-width: 0.5"/>
     </g>
     <g id="line2d_9">
      <g>
       <use xlink:href="#m69feca15e8" x="26.891406" y="124.603757" style="stroke: #000000; stroke-width: 0.7"/>
      </g>
     </g>
     <g id="text_8">
      <text style="font-size: 8px; font-family: 'Times New Roman', 'CMU Serif', 'DejaVu Serif', serif; text-anchor: end" x="23.391406" y="127.381257" transform="rotate(-0 23.391406 127.381257)">1</text>
     </g>
    </g>
    <g id="ytick_3">
     <g id="line2d_10">
      <path d="M 26.891406 103.866139 
L 239.261406 103.866139 
" clip-path="url(#pb1109fb8a1)" style="fill: none; stroke-dasharray: 0.5,0.825; stroke-dashoffset: 0; stroke: #b0b0b0; stroke-opacity: 0.6; stroke-width: 0.5"/>
     </g>
     <g id="line2d_11">
      <g>
       <use xlink:href="#m69feca15e8" x="26.891406" y="103.866139" style="stroke: #000000; stroke-width: 0.7"/>
      </g>
     </g>
     <g id="text_9">
      <text style="font-size: 8px; font-family: 'Times New Roman', 'CMU Serif', 'DejaVu Serif', serif; text-anchor: end" x="23.391406" y="106.643639" transform="rotate(-0 23.391406 106.643639)">2</text>
     </g>
    </g>
    <g id="ytick_4">
     <g id="line2d_12">
      <path d="M 26.891406 83.128521 
L 239.261406 83.128521 
" clip-path="url(#pb1109fb8a1)" style="fill: none; stroke-dasharray: 0.5,0.825; stroke-dashoffset: 0; stroke: #b0b0b0; stroke-opacity: 0.6; stroke-width: 0.5"/>
     </g>
     <g id="line2d_13">
      <g>
       <use xlink:href="#m69feca15e8" x="26.891406" y="83.128521" style="stroke: #000000; stroke-width: 0.7"/>
      </g>
     </g>
     <g id="text_10">
      <text style="font-size: 8px; font-family: 'Times New Roman', 'CMU Serif', 'DejaVu Serif', serif; text-anchor: end" x="23.391406" y="85.906021" transform="rotate(-0 23.391406 85.906021)">3</text>
     </g>
    </g>
    <g id="ytick_5">
     <g id="line2d_14">
      <path d="M 26.891406 62.390903 
L 239.261406 62.390903 
" clip-path="url(#pb1109fb8a1)" style="fill: none; stroke-dasharray: 0.5,0.825; stroke-dashoffset: 0; stroke: #b0b0b0; stroke-opacity: 0.6; stroke-width: 0.5"/>
     </g>
     <g id="line2d_15">
      <g>
       <use xlink:href="#m69feca15e8" x="26.891406" y="62.390903" style="stroke: #000000; stroke-width: 0.7"/>
      </g>
     </g>
     <g id="text_11">
      <text style="font-size: 8px; font-family: 'Times New Roman', 'CMU Serif', 'DejaVu Serif', serif; text-anchor: end" x="23.391406" y="65.168403" transform="rotate(-0 23.391406 65.168403)">4</text>
     </g>
    </g>
    <g id="ytick_6">
     <g id="line2d_16">
      <path d="M 26.891406 41.653284 
L 239.261406 41.653284 
" clip-path="url(#pb1109fb8a1)" style="fill: none; stroke-dasharray: 0.5,0.825; stroke-dashoffset: 0; stroke: #b0b0b0; stroke-opacity: 0.6; stroke-width: 0.5"/>
     </g>
     <g id="line2d_17">
      <g>
       <use xlink:href="#m69feca15e8" x="26.891406" y="41.653284" style="stroke: #000000; stroke-width: 0.7"/>
      </g>
     </g>
     <g id="text_12">
      <text style="font-size: 8px; font-family: 'Times New Roman', 'CMU Serif', 'DejaVu Serif', serif; text-anchor: end" x="23.391406" y="44.430784" transform="rotate(-0 23.391406 44.430784)">5</text>
     </g>
    </g>
    <g id="ytick_7">
     <g id="line2d_18">
      <path d="M 26.891406 20.915666 
L 239.261406 20.915666 
" clip-path="url(#pb1109fb8a1)" style="fill: none; stroke-dasharray: 0.5,0.825; stroke-dashoffset: 0; stroke: #b0b0b0; stroke-opacity: 0.6; stroke-width: 0.5"/>
     </g>
     <g id="line2d_19">
      <g>
       <use xlink:href="#m69feca15e8" x="26.891406" y="20.915666" style="stroke: #000000; stroke-width: 0.7"/>
      </g>
     </g>
     <g id="text_13">
      <text style="font-size: 8px; font-family: 'Times New Roman', 'CMU Serif', 'DejaVu Serif', serif; text-anchor: end" x="23.391406" y="23.693166" transform="rotate(-0 23.391406 23.693166)">6</text>
     </g>
    </g>
    <g id="text_14">
     <text style="font-size: 9px; font-family: 'Times New Roman', 'CMU Serif', 'DejaVu Serif', serif; text-anchor: middle" x="13.449375" y="79.41" transform="rotate(-90 13.449375 79.41)">Training loss</text>
    </g>
   </g>
   <g id="line2d_20">
    <path d="M 36.544588 13.764545 
L 37.514757 89.319683 
L 38.484926 125.134506 
L 39.455095 126.968213 
L 40.425264 131.320145 
L 41.395433 133.713395 
L 42.365602 134.014962 
L 43.335771 135.283302 
L 44.30594 135.27345 
L 45.276109 135.700434 
L 46.246278 135.93658 
L 47.216447 136.032508 
L 49.156785 135.810312 
L 50.126954 136.36391 
L 51.097123 137.082811 
L 52.067292 137.162293 
L 53.037462 137.656819 
L 54.007631 137.731037 
L 54.9778 137.98251 
L 55.947969 138.096592 
L 56.918138 137.865282 
L 57.888307 138.317031 
L 58.858476 138.253868 
L 59.828645 138.528108 
L 60.798814 138.548512 
L 61.768983 138.745003 
L 62.739152 139.29637 
L 63.709321 139.187099 
L 64.67949 139.402149 
L 65.649659 139.242873 
L 66.619828 139.590291 
L 67.589997 139.539965 
L 68.560166 139.831018 
L 69.530335 139.626445 
L 73.411011 140.135826 
L 75.351349 140.429229 
L 76.321518 140.461747 
L 78.261856 140.929029 
L 79.232025 140.767897 
L 80.202194 140.792084 
L 81.172363 140.956615 
L 82.142532 140.909516 
L 86.023208 141.319562 
L 88.933716 141.460803 
L 89.903885 141.229119 
L 90.874054 141.677637 
L 91.844223 141.913055 
L 94.75473 141.980377 
L 95.724899 142.190379 
L 99.605575 141.878493 
L 100.575744 142.226624 
L 101.545913 141.858973 
L 102.516082 141.984193 
L 103.486251 142.551823 
L 104.45642 142.471688 
L 105.426589 142.804076 
L 106.396758 142.814752 
L 108.337096 143.002799 
L 109.307265 142.976852 
L 110.277434 143.069459 
L 111.247603 142.977864 
L 116.098448 143.363466 
L 117.068617 143.285046 
L 118.038786 143.45735 
L 119.008955 143.41277 
L 123.8598 143.720884 
L 124.82997 143.61959 
L 127.740477 143.85223 
L 128.710646 143.802769 
L 133.561491 144.032119 
L 141.322843 144.173568 
L 144.23335 144.255924 
L 146.173688 144.168612 
L 151.024533 144.382895 
L 151.994702 144.326199 
L 152.964871 144.399134 
L 154.905209 144.343366 
L 155.875378 144.451709 
L 156.845547 144.383362 
L 157.815716 144.494441 
L 158.785885 144.450585 
L 160.726224 144.536463 
L 176.248928 144.728946 
L 178.189266 144.635461 
L 180.129604 144.74874 
L 195.652308 144.827151 
L 196.622478 144.778301 
L 197.592647 144.862421 
L 199.532985 144.841314 
L 201.473323 144.903981 
L 205.353999 144.936832 
L 213.115351 144.934255 
L 216.025858 144.997412 
L 219.906534 144.998024 
L 229.608224 145.055455 
L 229.608224 145.055455 
" clip-path="url(#pb1109fb8a1)" style="fill: none; stroke: #4c72b0; stroke-width: 1.2; stroke-linecap: square"/>
   </g>
   <g id="patch_3">
    <path d="M 26.891406 151.62 
L 26.891406 7.2 
" style="fill: none; stroke: #000000; stroke-width: 0.6; stroke-linejoin: miter; stroke-linecap: square"/>
   </g>
   <g id="patch_4">
    <path d="M 26.891406 151.62 
L 239.261406 151.62 
" style="fill: none; stroke: #000000; stroke-width: 0.6; stroke-linejoin: miter; stroke-linecap: square"/>
   </g>
  </g>
 </g>
 <defs>
  <clipPath id="pb1109fb8a1">
   <rect x="26.891406" y="7.2" width="212.37" height="144.42"/>
  </clipPath>
 </defs>
</svg>
