<?xml version="1.0" encoding="utf-8" standalone="no"?>
<!DOCTYPE svg PUBLIC "-//W3C//DTD SVG 1.1//EN"
  "http://www.w3.org/Graphics/SVG/1.1/DTD/svg11.dtd">
<svg xmlns:xlink="http://www.w3.org/1999/xlink" width="246.591406pt" height="181.760781pt" viewBox="0 0 246.591406 181.760781" xmlns="http://www.w3.org/2000/svg" version="1.1">
 <metadata>
  <rdf:RDF xmlns:dc="http://purl.org/dc/elements/1.1/" xmlns:cc="http://creativecommons.org/ns#" xmlns:rdf="http://www.w3.org/1999/02/22-rdf-syntax-ns#">
   <cc:Work>
    <dc:type rdf:resource="http://purl.org/dc/dcmitype/StillImage"/>
    <dc:date>2026-05-06T03:24:34.130427</dc:date>
    <dc:format>image/svg+xml</dc:format>
    <dc:creator>
     <cc:Agent>
      <dc:title>Matplotlib v3.10.7, https://matplotlib.org/</dc:title>
     </cc:Agent>
    </dc:creator>
   </cc:Work>
  </rdf:RDF>
 </metadata>
 <defs>
  <style type="text/css">*{stroke-linejoin: round; stroke-linecap: butt}</style>
 </defs>
 <g id="figure_1">
  <g id="patch_1">
   <path d="M 0 181.760781 
L 246.591406 181.760781 
L 246.591406 0 
L 0 0 
z
" style="fill: #ffffff"/>
  </g>
  <g id="axes_1">
   <g id="patch_2">
    <path d="M 30.891406 151.62 
L 239.391406 151.62 
L 239.391406 7.2 
L 30.891406 7.2 
z
" style="fill: #ffffff"/>
   </g>
   <g id="matplotlib.axis_1">
    <g id="xtick_1">
     <g id="line2d_1">
      <defs>
       <path id="mcabc305df2" d="M 0 0 
L 0 -3 
" style="stroke: #000000; stroke-width: 0.7"/>
      </defs>
      <g>
       <use xlink:href="#mcabc305df2" x="39.416189" y="151.62" style="stroke: #000000; stroke-width: 0.7"/>
      </g>
     </g>
     <g id="text_1">
      <text style="font-size: 8px; font-family: 'Times New Roman', 'CMU Serif', 'DejaVu Serif', serif; text-anchor: middle" x="39.416189" y="160.675" transform="rotate(-0 39.416189 160.675)">0</text>
     </g>
    </g>
    <g id="xtick_2">
     <g id="line2d_2">
      <g>
       <use xlink:href="#mcabc305df2" x="87.040675" y="151.62" style="stroke: #000000; stroke-width: 0.7"/>
      </g>
     </g>
     <g id="text_2">
      <text style="font-size: 8px; font-family: 'Times New Roman', 'CMU Serif', 'DejaVu Serif', serif; text-anchor: middle" x="87.040675" y="160.675" transform="rotate(-0 87.040675 160.675)">50</text>
     </g>
    </g>
    <g id="xtick_3">
     <g id="line2d_3">
      <g>
       <use xlink:href="#mcabc305df2" x="134.665161" y="151.62" style="stroke: #000000; stroke-width: 0.7"/>
      </g>
     </g>
     <g id="text_3">
      <text style="font-size: 8px; font-family: 'Times New Roman', 'CMU Serif', 'DejaVu Serif', serif; text-anchor: middle" x="134.665161" y="160.675" transform="rotate(-0 134.665161 160.675)">100</text>
     </g>
    </g>
    <g id="xtick_4">
     <g id="line2d_4">
      <g>
       <use xlink:href="#mcabc305df2" x="182.289647" y="151.62" style="stroke: #000000; stroke-width: 0.7"/>
      </g>
     </g>
     <g id="text_4">
      <text style="font-size: 8px; font-family: 'Times New Roman', 'CMU Serif', 'DejaVu Serif', serif; text-anchor: middle" x="182.289647" y="160.675" transform="rotate(-0 182.289647 160.675)">150</text>
     </g>
    </g>
    <g id="xtick_5">
     <g id="line2d_5">
      <g>
       <use xlink:href="#mcabc305df2" x="229.914134" y="151.62" style="stroke: #000000; stroke-width: 0.7"/>
      </g>
     </g>
     <g id="text_5">
      <text style="font-size: 8px; font-family: 'Times New Roman', 'CMU Serif', 'DejaVu Serif', serif; text-anchor: middle" x="229.914134" y="160.675" transform="rotate(-0 229.914134 160.675)">200</text>
     </g>
    </g>
    <g id="text_6">
     <text style="font-size: 9px; font-family: 'Times New Roman', 'CMU Serif', 'DejaVu Serif', serif; text-anchor: middle" x="135.141406" y="172.635625" transform="rotate(-0 135.141406 172.635625)">Epoch</text>
    </g>
   </g>
   <g id="matplotlib.axis_2">
    <g id="ytick_1">
     <g id="line2d_6">
      <path d="M 30.891406 150.934922 
L 239.391406 150.934922 
" clip-path="url(#pb7f7be9dda)" style="fill: none; stroke-dasharray: 0.5,0.825; stroke-dashoffset: 0; stroke: #b0b0b0; stroke-opacity: 0.6; stroke-width: 0.5"/>
     </g>
     <g id="line2d_7">
      <defs>
       <path id="me6ea8dec4d" d="M 0 0 
L 3 0 
" style="stroke: #000000; stroke-width: 0.7"/>
      </defs>
      <g>
       <use xlink:href="#me6ea8dec4d" x="30.891406" y="150.934922" style="stroke: #000000; stroke-width: 0.7"/>
      </g>
     </g>
     <g id="text_7">
      <text style="font-size: 8px; font-family: 'Times New Roman', 'CMU Serif', 'DejaVu Serif', serif; text-anchor: end" x="27.391406" y="153.712422" transform="rotate(-0 27.391406 153.712422)">0</text>
     </g>
    </g>
    <g id="ytick_2">
     <g id="line2d_8">
      <path d="M 30.891406 132.493945 
L 239.391406 132.493945 
" clip-path="url(#pb7f7be9dda)" style="fill: none; stroke-dasharray: 0.5,0.825; stroke-dashoffset: 0; stroke: #b0b0b0; stroke-opacity: 0.6; stroke-width: 0.5"/>
     </g>
     <g id="line2d_9">
      <g>
       <use xlink:href="#me6ea8dec4d" x="30.891406" y="132.493945" style="stroke: #000000; stroke-width: 0.7"/>
      </g>
     </g>
     <g id="text_8">
      <text style="font-size: 8px; font-family: 'Times New Roman', 'CMU Serif', 'DejaVu Serif', serif; text-anchor: end" x="27.391406" y="135.271445" transform="rotate(-0 27.391406 135.271445)">2</text>
     </g>
    </g>
    <g id="ytick_3">
     <g id="line2d_10">
      <path d="M 30.891406 114.052969 
L 239.391406 114.052969 
" clip-path="url(#pb7f7be9dda)" style="fill: none; stroke-dasharray: 0.5,0.825; stroke-dashoffset: 0; stroke: #b0b0b0; stroke-opacity: 0.6; stroke-width: 0.5"/>
     </g>
     <g id="line2d_11">
      <g>
       <use xlink:href="#me6ea8dec4d" x="30.891406" y="114.052969" style="stroke: #000000; stroke-width: 0.7"/>
      </g>
     </g>
     <g id="text_9">
      <text style="font-size: 8px; font-family: 'Times New Roman', 'CMU Serif', 'DejaVu Serif', serif; text-anchor: end" x="27.391406" y="116.830469" transform="rotate(-0 27.391406 116.830469)">4</text>
     </g>
    </g>
    <g id="ytick_4">
     <g id="line2d_12">
      <path d="M 30.891406 95.611993 
L 239.391406 95.611993 
" clip-path="url(#pb7f7be9dda)" style="fill: none; stroke-dasharray: 0.5,0.825; stroke-dashoffset: 0; stroke: #b0b0b0; stroke-opacity: 0.6; stroke-width: 0.5"/>
     </g>
     <g id="line2d_13">
      <g>
       <use xlink:href="#me6ea8dec4d" x="30.891406" y="95.611993" style="stroke: #000000; stroke-width: 0.7"/>
      </g>
     </g>
     <g id="text_10">
      <text style="font-size: 8px; font-family: 'Times New Roman', 'CMU Serif', 'DejaVu Serif', serif; text-anchor: end" x="27.391406" y="98.389493" transform="rotate(-0 27.391406 98.389493)">6</text>
     </g>
    </g>
    <g id="ytick_5">
     <g id="line2d_14">
      <path d="M 30.891406 77.171017 
L 239.391406 77.171017 
" clip-path="url(#pb7f7be9dda)" style="fill: none; stroke-dasharray: 0.5,0.825; stroke-dashoffset: 0; stroke: #b0b0b0; stroke-opacity: 0.6; stroke-width: 0.5"/>
     </g>
     <g id="line2d_15">
      <g>
       <use xlink:href="#me6ea8dec4d" x="30.891406" y="77.171017" style="stroke: #000000; stroke-width: 0.7"/>
      </g>
     </g>
     <g id="text_11">
      <text style="font-size: 8px; font-family: 'Times New Roman', 'CMU Serif', 'DejaVu Serif', serif; text-anchor: end" x="27.391406" y="79.948517" transform="rotate(-0 27.391406 79.948517)">8</text>
     </g>
    </g>
    <g id="ytick_6">
     <g id="line2d_16">
      <path d="M 30.891406 58.730041 
L 239.391406 58.730041 
" clip-path="url(#pb7f7be9dda)" style="fill: none; stroke-dasharray: 0.5,0.825; stroke-dashoffset: 0; stroke: #b0b0b0; stroke-opacity: 0.6; stroke-width: 0.5"/>
     </g>
     <g id="line2d_17">
      <g>
       <use xlink:href="#me6ea8dec4d" x="30.891406" y="58.730041" style="stroke: #000000; stroke-width: 0.7"/>
      </g>
     </g>
     <g id="text_12">
      <text style="font-size: 8px; font-family: 'Times New Roman', 'CMU Serif', 'DejaVu Serif', serif; text-anchor: end" x="27.391406" y="61.507541" transform="rotate(-0 27.391406 61.507541)">10</text>
     </g>
    </g>
    <g id="ytick_7">
     <g id="line2d_18">
      <path d="M 30.891406 40.289064 
L 239.391406 40.289064 
" clip-path="url(#pb7f7be9dda)" style="fill: none; stroke-dasharray: 0.5,0.825; stroke-dashoffset: 0; stroke: #b0b0b0; stroke-opacity: 0.6; stroke-width: 0.5"/>
     </g>
     <g id="line2d_19">
      <g>
       <use xlink:href="#me6ea8dec4d" x="30.891406" y="40.289064" style="stroke: #000000; stroke-width: 0.7"/>
      </g>
     </g>
     <g id="text_13">
      <text style="font-size: 8px; font-family: 'Times New Roman', 'CMU Serif', 'DejaVu Serif', serif; text-anchor: end" x="27.391406" y="43.066564" transform="rotate(-0 27.391406 43.066564)">12</text>
     </g>
    </g>
    <g id="ytick_8">
     <g id="line2d_20">
      <path d="M 30.891406 21.848088 
L 239.391406 21.848088 
" clip-path="url(#pb7f7be9dda)" style="fill: none; stroke-dasharray: 0.5,0.825; stroke-dashoffset: 0; stroke: #b0b0b0; stroke-opacity: 0.6; stroke-width: 0.5"/>
     </g>
     <g id="line2d_21">
      <g>
       <use xlink:href="#me6ea8dec4d" x="30.891406" y="21.848088" style="stroke: #000000; stroke-width: 0.7"/>
      </g>
     </g>
     <g id="text_14">
      <text style="font-size: 8px; font-family: 'Times New Roman', 'CMU Serif', 'DejaVu Serif', serif; text-anchor: end" x="27.391406" y="24.625588" transform="rotate(-0 27.391406 24.625588)">14</text>
     </g>
    </g>
    <g id="text_15">
     <text style="font-size: 9px; font-family: 'Times New Roman', 'CMU Serif', 'DejaVu Serif', serif; text-anchor: middle" x="13.449375" y="79.41" transform="rotate(-90 13.449375 79.41)">Training loss</text>
    </g>
   </g>
   <g id="line2d_22">
    <path d="M 40.368679 13.764545 
L 41.321169 62.876316 
L 42.273658 92.392927 
L 43.226148 114.095444 
L 44.178638 128.579035 
L 45.131128 138.100222 
L 46.083617 142.273845 
L 47.036107 143.31969 
L 47.988597 143.955494 
L 48.941086 144.288855 
L 51.798556 144.657997 
L 55.608515 144.822969 
L 63.228432 144.867844 
L 64.180922 144.714174 
L 69.89586 144.883394 
L 70.84835 144.759275 
L 72.75333 144.834199 
L 79.420758 144.818099 
L 81.325737 144.889497 
L 82.278227 144.770194 
L 87.040675 144.858058 
L 87.993165 144.924266 
L 88.945655 144.818003 
L 91.803124 144.890321 
L 107.995449 144.858373 
L 109.900429 144.791361 
L 118.472836 144.937419 
L 121.330305 144.938621 
L 122.282795 144.958832 
L 123.235285 144.84227 
L 156.572425 144.958029 
L 158.477404 144.832673 
L 159.429894 144.929351 
L 161.334874 144.84083 
L 162.287363 144.955987 
L 163.239853 144.89955 
L 164.192343 145.010645 
L 165.144832 144.959378 
L 166.097322 145.030719 
L 167.049812 144.862444 
L 168.954791 144.947745 
L 179.432178 145.007519 
L 180.384668 144.875084 
L 191.814545 144.843647 
L 192.767034 144.763929 
L 193.719524 144.993733 
L 194.672014 144.854278 
L 195.624504 145.020551 
L 202.291932 144.8245 
L 203.244421 144.959817 
L 205.149401 145.047387 
L 206.10189 144.833292 
L 207.05438 144.945047 
L 210.864339 144.963726 
L 217.531767 145.028743 
L 218.484257 144.888338 
L 219.436747 145.015904 
L 220.389236 144.933509 
L 222.294216 145.049762 
L 225.151685 144.992874 
L 226.104175 145.049402 
L 228.009154 144.966962 
L 229.914134 144.90792 
L 229.914134 144.90792 
" clip-path="url(#pb7f7be9dda)" style="fill: none; stroke: #4c72b0; stroke-width: 1.2; stroke-linecap: square"/>
   </g>
   <g id="patch_3">
    <path d="M 30.891406 151.62 
L 30.891406 7.2 
" style="fill: none; stroke: #000000; stroke-width: 0.6; stroke-linejoin: miter; stroke-linecap: square"/>
   </g>
   <g id="patch_4">
    <path d="M 30.891406 151.62 
L 239.391406 151.62 
" style="fill: none; stroke: #000000; stroke-width: 0.6; stroke-linejoin: miter; stroke-linecap: square"/>
   </g>
  </g>
 </g>
 <defs>
  <clipPath id="pb7f7be9dda">
   <rect x="30.891406" y="7.2" width="208.5" height="144.42"/>
  </clipPath>
 </defs>
</svg>
