<?xml version="1.0" encoding="utf-8" standalone="no"?>
<!DOCTYPE svg PUBLIC "-//W3C//DTD SVG 1.1//EN"
  "http://www.w3.org/Graphics/SVG/1.1/DTD/svg11.dtd">
<svg xmlns:xlink="http://www.w3.org/1999/xlink" width="246.521406pt" height="181.760781pt" viewBox="0 0 246.521406 181.760781" xmlns="http://www.w3.org/2000/svg" version="1.1">
 <metadata>
  <rdf:RDF xmlns:dc="http://purl.org/dc/elements/1.1/" xmlns:cc="http://creativecommons.org/ns#" xmlns:rdf="http://www.w3.org/1999/02/22-rdf-syntax-ns#">
   <cc:Work>
    <dc:type rdf:resource="http://purl.org/dc/dcmitype/StillImage"/>
    <dc:date>2026-05-05T23:15:03.811008</dc:date>
    <dc:format>image/svg+xml</dc:format>
    <dc:creator>
     <cc:Agent>
      <dc:title>Matplotlib v3.10.7, https://matplotlib.org/</dc:title>
     </cc:Agent>
    </dc:creator>
   </cc:Work>
  </rdf:RDF>
 </metadata>
 <defs>
  <style type="text/css">*{stroke-linejoin: round; stroke-linecap: butt}</style>
 </defs>
 <g id="figure_1">
  <g id="patch_1">
   <path d="M 0 181.760781 
L 246.521406 181.760781 
L 246.521406 0 
L 0 0 
z
" style="fill: #ffffff"/>
  </g>
  <g id="axes_1">
   <g id="patch_2">
    <path d="M 32.891406 151.62 
L 239.321406 151.62 
L 239.321406 7.2 
L 32.891406 7.2 
z
" style="fill: #ffffff"/>
   </g>
   <g id="matplotlib.axis_1">
    <g id="xtick_1">
     <g id="line2d_1">
      <defs>
       <path id="md6c91e1713" d="M 0 0 
L 0 -3 
" style="stroke: #000000; stroke-width: 0.7"/>
      </defs>
      <g>
       <use xlink:href="#md6c91e1713" x="41.331555" y="151.62" style="stroke: #000000; stroke-width: 0.7"/>
      </g>
     </g>
     <g id="text_1">
      <text style="font-size: 8px; font-family: 'Times New Roman', 'CMU Serif', 'DejaVu Serif', serif; text-anchor: middle" x="41.331555" y="160.675" transform="rotate(-0 41.331555 160.675)">0</text>
     </g>
    </g>
    <g id="xtick_2">
     <g id="line2d_2">
      <g>
       <use xlink:href="#md6c91e1713" x="88.483222" y="151.62" style="stroke: #000000; stroke-width: 0.7"/>
      </g>
     </g>
     <g id="text_2">
      <text style="font-size: 8px; font-family: 'Times New Roman', 'CMU Serif', 'DejaVu Serif', serif; text-anchor: middle" x="88.483222" y="160.675" transform="rotate(-0 88.483222 160.675)">50</text>
     </g>
    </g>
    <g id="xtick_3">
     <g id="line2d_3">
      <g>
       <use xlink:href="#md6c91e1713" x="135.63489" y="151.62" style="stroke: #000000; stroke-width: 0.7"/>
      </g>
     </g>
     <g id="text_3">
      <text style="font-size: 8px; font-family: 'Times New Roman', 'CMU Serif', 'DejaVu Serif', serif; text-anchor: middle" x="135.63489" y="160.675" transform="rotate(-0 135.63489 160.675)">100</text>
     </g>
    </g>
    <g id="xtick_4">
     <g id="line2d_4">
      <g>
       <use xlink:href="#md6c91e1713" x="182.786557" y="151.62" style="stroke: #000000; stroke-width: 0.7"/>
      </g>
     </g>
     <g id="text_4">
      <text style="font-size: 8px; font-family: 'Times New Roman', 'CMU Serif', 'DejaVu Serif', serif; text-anchor: middle" x="182.786557" y="160.675" transform="rotate(-0 182.786557 160.675)">150</text>
     </g>
    </g>
    <g id="xtick_5">
     <g id="line2d_5">
      <g>
       <use xlink:href="#md6c91e1713" x="229.938224" y="151.62" style="stroke: #000000; stroke-width: 0.7"/>
      </g>
     </g>
     <g id="text_5">
      <text style="font-size: 8px; font-family: 'Times New Roman', 'CMU Serif', 'DejaVu Serif', serif; text-anchor: middle" x="229.938224" y="160.675" transform="rotate(-0 229.938224 160.675)">200</text>
     </g>
    </g>
    <g id="text_6">
     <text style="font-size: 9px; font-family: 'Times New Roman', 'CMU Serif', 'DejaVu Serif', serif; text-anchor: middle" x="136.106406" y="172.635625" transform="rotate(-0 136.106406 172.635625)">Epoch</text>
    </g>
   </g>
   <g id="matplotlib.axis_2">
    <g id="ytick_1">
     <g id="line2d_6">
      <path d="M 32.891406 150.076915 
L 239.321406 150.076915 
" clip-path="url(#p14b2a614a5)" style="fill: none; stroke-dasharray: 0.5,0.825; stroke-dashoffset: 0; stroke: #b0b0b0; stroke-opacity: 0.6; stroke-width: 0.5"/>
     </g>
     <g id="line2d_7">
      <defs>
       <path id="m925b51d556" d="M 0 0 
L 3 0 
" style="stroke: #000000; stroke-width: 0.7"/>
      </defs>
      <g>
       <use xlink:href="#m925b51d556" x="32.891406" y="150.076915" style="stroke: #000000; stroke-width: 0.7"/>
      </g>
     </g>
     <g id="text_7">
      <text style="font-size: 8px; font-family: 'Times New Roman', 'CMU Serif', 'DejaVu Serif', serif; text-anchor: end" x="29.391406" y="152.854415" transform="rotate(-0 29.391406 152.854415)">0.0</text>
     </g>
    </g>
    <g id="ytick_2">
     <g id="line2d_8">
      <path d="M 32.891406 124.384366 
L 239.321406 124.384366 
" clip-path="url(#p14b2a614a5)" style="fill: none; stroke-dasharray: 0.5,0.825; stroke-dashoffset: 0; stroke: #b0b0b0; stroke-opacity: 0.6; stroke-width: 0.5"/>
     </g>
     <g id="line2d_9">
      <g>
       <use xlink:href="#m925b51d556" x="32.891406" y="124.384366" style="stroke: #000000; stroke-width: 0.7"/>
      </g>
     </g>
     <g id="text_8">
      <text style="font-size: 8px; font-family: 'Times New Roman', 'CMU Serif', 'DejaVu Serif', serif; text-anchor: end" x="29.391406" y="127.161866" transform="rotate(-0 29.391406 127.161866)">0.5</text>
     </g>
    </g>
    <g id="ytick_3">
     <g id="line2d_10">
      <path d="M 32.891406 98.691817 
L 239.321406 98.691817 
" clip-path="url(#p14b2a614a5)" style="fill: none; stroke-dasharray: 0.5,0.825; stroke-dashoffset: 0; stroke: #b0b0b0; stroke-opacity: 0.6; stroke-width: 0.5"/>
     </g>
     <g id="line2d_11">
      <g>
       <use xlink:href="#m925b51d556" x="32.891406" y="98.691817" style="stroke: #000000; stroke-width: 0.7"/>
      </g>
     </g>
     <g id="text_9">
      <text style="font-size: 8px; font-family: 'Times New Roman', 'CMU Serif', 'DejaVu Serif', serif; text-anchor: end" x="29.391406" y="101.469317" transform="rotate(-0 29.391406 101.469317)">1.0</text>
     </g>
    </g>
    <g id="ytick_4">
     <g id="line2d_12">
      <path d="M 32.891406 72.999268 
L 239.321406 72.999268 
" clip-path="url(#p14b2a614a5)" style="fill: none; stroke-dasharray: 0.5,0.825; stroke-dashoffset: 0; stroke: #b0b0b0; stroke-opacity: 0.6; stroke-width: 0.5"/>
     </g>
     <g id="line2d_13">
      <g>
       <use xlink:href="#m925b51d556" x="32.891406" y="72.999268" style="stroke: #000000; stroke-width: 0.7"/>
      </g>
     </g>
     <g id="text_10">
      <text style="font-size: 8px; font-family: 'Times New Roman', 'CMU Serif', 'DejaVu Serif', serif; text-anchor: end" x="29.391406" y="75.776768" transform="rotate(-0 29.391406 75.776768)">1.5</text>
     </g>
    </g>
    <g id="ytick_5">
     <g id="line2d_14">
      <path d="M 32.891406 47.306718 
L 239.321406 47.306718 
" clip-path="url(#p14b2a614a5)" style="fill: none; stroke-dasharray: 0.5,0.825; stroke-dashoffset: 0; stroke: #b0b0b0; stroke-opacity: 0.6; stroke-width: 0.5"/>
     </g>
     <g id="line2d_15">
      <g>
       <use xlink:href="#m925b51d556" x="32.891406" y="47.306718" style="stroke: #000000; stroke-width: 0.7"/>
      </g>
     </g>
     <g id="text_11">
      <text style="font-size: 8px; font-family: 'Times New Roman', 'CMU Serif', 'DejaVu Serif', serif; text-anchor: end" x="29.391406" y="50.084218" transform="rotate(-0 29.391406 50.084218)">2.0</text>
     </g>
    </g>
    <g id="ytick_6">
     <g id="line2d_16">
      <path d="M 32.891406 21.614169 
L 239.321406 21.614169 
" clip-path="url(#p14b2a614a5)" style="fill: none; stroke-dasharray: 0.5,0.825; stroke-dashoffset: 0; stroke: #b0b0b0; stroke-opacity: 0.6; stroke-width: 0.5"/>
     </g>
     <g id="line2d_17">
      <g>
       <use xlink:href="#m925b51d556" x="32.891406" y="21.614169" style="stroke: #000000; stroke-width: 0.7"/>
      </g>
     </g>
     <g id="text_12">
      <text style="font-size: 8px; font-family: 'Times New Roman', 'CMU Serif', 'DejaVu Serif', serif; text-anchor: end" x="29.391406" y="24.391669" transform="rotate(-0 29.391406 24.391669)">2.5</text>
     </g>
    </g>
    <g id="text_13">
     <text style="font-size: 9px; font-family: 'Times New Roman', 'CMU Serif', 'DejaVu Serif', serif; text-anchor: middle" x="13.449375" y="79.41" transform="rotate(-90 13.449375 79.41)">Training loss</text>
    </g>
   </g>
   <g id="line2d_18">
    <path d="M 42.274588 13.764545 
L 43.217621 74.43354 
L 44.160655 90.944582 
L 45.103688 102.605648 
L 46.046721 110.414324 
L 46.989755 114.16271 
L 47.932788 119.260088 
L 48.875822 120.183013 
L 49.818855 122.249055 
L 50.761888 123.821848 
L 51.704922 124.7258 
L 52.647955 125.932176 
L 54.534022 126.943189 
L 55.477055 127.159518 
L 56.420088 127.656722 
L 57.363122 129.046821 
L 58.306155 128.592854 
L 59.249188 128.622952 
L 61.135255 129.913069 
L 62.078288 129.544482 
L 63.021322 130.806365 
L 63.964355 130.502359 
L 66.793455 131.040107 
L 67.736488 130.570003 
L 68.679522 131.948789 
L 69.622555 131.857191 
L 70.565589 132.180726 
L 71.508622 132.050133 
L 72.451655 132.449631 
L 73.394689 132.673419 
L 74.337722 132.329368 
L 75.280755 132.523886 
L 76.223789 133.256299 
L 77.166822 132.912359 
L 78.109855 133.509916 
L 79.995922 133.639942 
L 80.938955 134.197628 
L 81.881989 133.771724 
L 83.768055 134.754427 
L 84.711089 134.309129 
L 85.654122 134.326658 
L 86.597155 135.326803 
L 87.540189 134.80544 
L 89.426255 134.992198 
L 90.369289 135.484564 
L 91.312322 135.632773 
L 92.255356 135.626077 
L 93.198389 134.80547 
L 94.141422 135.426626 
L 95.084456 135.824047 
L 96.970522 136.117474 
L 97.913556 136.434537 
L 98.856589 136.450462 
L 99.799622 136.350585 
L 100.742656 136.439815 
L 101.685689 135.736433 
L 103.571756 136.451541 
L 104.514789 137.463297 
L 105.457822 136.66961 
L 106.400856 137.159022 
L 107.343889 137.022273 
L 108.286922 138.029995 
L 109.229956 137.888084 
L 110.172989 137.543361 
L 111.116023 138.01457 
L 112.059056 137.902433 
L 113.002089 138.129122 
L 113.945123 138.708471 
L 114.888156 138.940564 
L 115.831189 138.771526 
L 116.774223 139.138942 
L 117.717256 138.851791 
L 119.603323 139.04721 
L 120.546356 139.706824 
L 121.489389 138.845469 
L 122.432423 139.572131 
L 124.318489 139.232086 
L 125.261523 139.212572 
L 126.204556 139.632416 
L 127.147589 139.854114 
L 129.976689 140.175198 
L 131.862756 139.193966 
L 132.80579 139.708995 
L 133.748823 139.998138 
L 134.691856 140.134814 
L 135.63489 140.0118 
L 136.577923 140.53903 
L 137.520956 140.568118 
L 138.46399 140.423598 
L 139.407023 139.912823 
L 140.350056 140.495772 
L 141.29309 140.814408 
L 142.236123 140.657267 
L 143.179156 141.199932 
L 144.12219 141.254184 
L 145.065223 141.103917 
L 146.008256 141.298103 
L 146.95129 141.279095 
L 147.894323 141.10561 
L 149.78039 141.237495 
L 150.723423 140.752722 
L 151.666457 141.420993 
L 154.495557 141.325389 
L 155.43859 141.832924 
L 157.324657 141.555122 
L 158.26769 141.964967 
L 159.210723 141.974937 
L 160.153757 141.686228 
L 161.09679 140.818073 
L 162.039823 141.358941 
L 162.982857 142.146519 
L 164.868923 142.156183 
L 165.811957 142.360609 
L 166.75499 142.69625 
L 167.698023 142.557791 
L 168.641057 142.694208 
L 170.527123 142.453614 
L 171.470157 142.597674 
L 173.356224 142.617034 
L 174.299257 142.479868 
L 175.24229 143.181336 
L 176.185324 142.761833 
L 177.128357 143.329858 
L 178.07139 142.746929 
L 179.014424 143.278181 
L 179.957457 143.191818 
L 180.90049 141.734393 
L 181.843524 143.17758 
L 182.786557 143.177528 
L 183.72959 142.956031 
L 184.672624 142.94962 
L 185.615657 143.064026 
L 186.55869 143.346839 
L 187.501724 143.312863 
L 188.444757 142.788963 
L 189.38779 143.45002 
L 190.330824 143.209682 
L 191.273857 143.105009 
L 192.21689 143.156736 
L 193.159924 143.713749 
L 194.102957 143.590871 
L 195.045991 143.723387 
L 195.989024 144.016931 
L 196.932057 143.785819 
L 197.875091 143.896937 
L 199.761157 143.431314 
L 200.704191 143.676142 
L 201.647224 143.653304 
L 202.590257 143.216476 
L 203.533291 143.523585 
L 204.476324 144.335277 
L 205.419357 143.921724 
L 206.362391 144.562358 
L 207.305424 144.059689 
L 208.248457 144.002375 
L 209.191491 143.597769 
L 210.134524 144.34439 
L 211.077557 144.368811 
L 212.963624 144.709401 
L 213.906658 144.506224 
L 214.849691 144.440793 
L 215.792724 144.780615 
L 216.735758 144.768537 
L 217.678791 144.354886 
L 219.564858 144.247905 
L 220.507891 144.790392 
L 221.450924 144.666438 
L 222.393958 144.956959 
L 223.336991 144.803155 
L 224.280024 144.983335 
L 225.223058 144.898902 
L 226.166091 145.055455 
L 227.109124 144.799976 
L 228.052158 144.900695 
L 228.995191 144.392804 
L 229.938224 144.625243 
L 229.938224 144.625243 
" clip-path="url(#p14b2a614a5)" style="fill: none; stroke: #4c72b0; stroke-width: 1.2; stroke-linecap: square"/>
   </g>
   <g id="patch_3">
    <path d="M 32.891406 151.62 
L 32.891406 7.2 
" style="fill: none; stroke: #000000; stroke-width: 0.6; stroke-linejoin: miter; stroke-linecap: square"/>
   </g>
   <g id="patch_4">
    <path d="M 32.891406 151.62 
L 239.321406 151.62 
" style="fill: none; stroke: #000000; stroke-width: 0.6; stroke-linejoin: miter; stroke-linecap: square"/>
   </g>
  </g>
 </g>
 <defs>
  <clipPath id="p14b2a614a5">
   <rect x="32.891406" y="7.2" width="206.43" height="144.42"/>
  </clipPath>
 </defs>
</svg>
