<?xml version="1.0" encoding="utf-8" standalone="no"?>
<!DOCTYPE svg PUBLIC "-//W3C//DTD SVG 1.1//EN"
  "http://www.w3.org/Graphics/SVG/1.1/DTD/svg11.dtd">
<svg xmlns:xlink="http://www.w3.org/1999/xlink" width="251.470781pt" height="181.512565pt" viewBox="0 0 251.470781 181.512565" xmlns="http://www.w3.org/2000/svg" version="1.1">
 <metadata>
  <rdf:RDF xmlns:dc="http://purl.org/dc/elements/1.1/" xmlns:cc="http://creativecommons.org/ns#" xmlns:rdf="http://www.w3.org/1999/02/22-rdf-syntax-ns#">
   <cc:Work>
    <dc:type rdf:resource="http://purl.org/dc/dcmitype/StillImage"/>
    <dc:date>2026-05-18T11:03:33.681824</dc:date>
    <dc:format>image/svg+xml</dc:format>
    <dc:creator>
     <cc:Agent>
      <dc:title>Matplotlib v3.10.7, https://matplotlib.org/</dc:title>
     </cc:Agent>
    </dc:creator>
   </cc:Work>
  </rdf:RDF>
 </metadata>
 <defs>
  <style type="text/css">*{stroke-linejoin: round; stroke-linecap: butt}</style>
 </defs>
 <g id="figure_1">
  <g id="patch_1">
   <path d="M -0 181.512565 
L 251.470781 181.512565 
L 251.470781 0 
L -0 0 
z
" style="fill: #ffffff"/>
  </g>
  <g id="axes_1">
   <g id="patch_2">
    <path d="M 41.350781 150.359752 
L 244.270781 150.359752 
L 244.270781 7.2 
L 41.350781 7.2 
z
" style="fill: #ffffff"/>
   </g>
   <g id="matplotlib.axis_1">
    <g id="xtick_1">
     <g id="line2d_1">
      <defs>
       <path id="m98ddc66e30" d="M 0 0 
L 0 -3 
" style="stroke: #000000; stroke-width: 0.7"/>
      </defs>
      <g>
       <use xlink:href="#m98ddc66e30" x="49.647419" y="150.359752" style="stroke: #000000; stroke-width: 0.7"/>
      </g>
     </g>
     <g id="text_1">
      <text style="font-size: 8px; font-family: 'Times New Roman', 'CMU Serif', 'DejaVu Serif', serif; text-anchor: middle" x="49.647419" y="159.938502" transform="rotate(-0 49.647419 159.938502)">0</text>
     </g>
    </g>
    <g id="xtick_2">
     <g id="line2d_2">
      <g>
       <use xlink:href="#m98ddc66e30" x="95.99735" y="150.359752" style="stroke: #000000; stroke-width: 0.7"/>
      </g>
     </g>
     <g id="text_2">
      <text style="font-size: 8px; font-family: 'Times New Roman', 'CMU Serif', 'DejaVu Serif', serif; text-anchor: middle" x="95.99735" y="159.938502" transform="rotate(-0 95.99735 159.938502)">50</text>
     </g>
    </g>
    <g id="xtick_3">
     <g id="line2d_3">
      <g>
       <use xlink:href="#m98ddc66e30" x="142.347282" y="150.359752" style="stroke: #000000; stroke-width: 0.7"/>
      </g>
     </g>
     <g id="text_3">
      <text style="font-size: 8px; font-family: 'Times New Roman', 'CMU Serif', 'DejaVu Serif', serif; text-anchor: middle" x="142.347282" y="159.938502" transform="rotate(-0 142.347282 159.938502)">100</text>
     </g>
    </g>
    <g id="xtick_4">
     <g id="line2d_4">
      <g>
       <use xlink:href="#m98ddc66e30" x="188.697213" y="150.359752" style="stroke: #000000; stroke-width: 0.7"/>
      </g>
     </g>
     <g id="text_4">
      <text style="font-size: 8px; font-family: 'Times New Roman', 'CMU Serif', 'DejaVu Serif', serif; text-anchor: middle" x="188.697213" y="159.938502" transform="rotate(-0 188.697213 159.938502)">150</text>
     </g>
    </g>
    <g id="xtick_5">
     <g id="line2d_5">
      <g>
       <use xlink:href="#m98ddc66e30" x="235.047145" y="150.359752" style="stroke: #000000; stroke-width: 0.7"/>
      </g>
     </g>
     <g id="text_5">
      <text style="font-size: 8px; font-family: 'Times New Roman', 'CMU Serif', 'DejaVu Serif', serif; text-anchor: middle" x="235.047145" y="159.938502" transform="rotate(-0 235.047145 159.938502)">200</text>
     </g>
    </g>
    <g id="text_6">
     <text style="font-size: 9px; font-family: 'Times New Roman', 'CMU Serif', 'DejaVu Serif', serif; text-anchor: middle" x="142.810781" y="172.440846" transform="rotate(-0 142.810781 172.440846)">Epoch</text>
    </g>
   </g>
   <g id="matplotlib.axis_2">
    <g id="ytick_1">
     <g id="line2d_6">
      <path d="M 41.350781 146.616333 
L 244.270781 146.616333 
" clip-path="url(#p8231e75150)" style="fill: none; stroke-dasharray: 0.5,0.825; stroke-dashoffset: 0; stroke: #b0b0b0; stroke-opacity: 0.6; stroke-width: 0.5"/>
     </g>
     <g id="line2d_7">
      <defs>
       <path id="m39a7c85545" d="M 0 0 
L 3 0 
" style="stroke: #000000; stroke-width: 0.7"/>
      </defs>
      <g>
       <use xlink:href="#m39a7c85545" x="41.350781" y="146.616333" style="stroke: #000000; stroke-width: 0.7"/>
      </g>
     </g>
     <g id="text_7">
      <text style="font-size: 8px; font-family: 'Times New Roman', 'CMU Serif', 'DejaVu Serif', serif; text-anchor: end" x="37.850781" y="149.655708" transform="rotate(-0 37.850781 149.655708)">0.00</text>
     </g>
    </g>
    <g id="ytick_2">
     <g id="line2d_8">
      <path d="M 41.350781 125.195621 
L 244.270781 125.195621 
" clip-path="url(#p8231e75150)" style="fill: none; stroke-dasharray: 0.5,0.825; stroke-dashoffset: 0; stroke: #b0b0b0; stroke-opacity: 0.6; stroke-width: 0.5"/>
     </g>
     <g id="line2d_9">
      <g>
       <use xlink:href="#m39a7c85545" x="41.350781" y="125.195621" style="stroke: #000000; stroke-width: 0.7"/>
      </g>
     </g>
     <g id="text_8">
      <text style="font-size: 8px; font-family: 'Times New Roman', 'CMU Serif', 'DejaVu Serif', serif; text-anchor: end" x="37.850781" y="128.234996" transform="rotate(-0 37.850781 128.234996)">0.25</text>
     </g>
    </g>
    <g id="ytick_3">
     <g id="line2d_10">
      <path d="M 41.350781 103.774909 
L 244.270781 103.774909 
" clip-path="url(#p8231e75150)" style="fill: none; stroke-dasharray: 0.5,0.825; stroke-dashoffset: 0; stroke: #b0b0b0; stroke-opacity: 0.6; stroke-width: 0.5"/>
     </g>
     <g id="line2d_11">
      <g>
       <use xlink:href="#m39a7c85545" x="41.350781" y="103.774909" style="stroke: #000000; stroke-width: 0.7"/>
      </g>
     </g>
     <g id="text_9">
      <text style="font-size: 8px; font-family: 'Times New Roman', 'CMU Serif', 'DejaVu Serif', serif; text-anchor: end" x="37.850781" y="106.814284" transform="rotate(-0 37.850781 106.814284)">0.50</text>
     </g>
    </g>
    <g id="ytick_4">
     <g id="line2d_12">
      <path d="M 41.350781 82.354197 
L 244.270781 82.354197 
" clip-path="url(#p8231e75150)" style="fill: none; stroke-dasharray: 0.5,0.825; stroke-dashoffset: 0; stroke: #b0b0b0; stroke-opacity: 0.6; stroke-width: 0.5"/>
     </g>
     <g id="line2d_13">
      <g>
       <use xlink:href="#m39a7c85545" x="41.350781" y="82.354197" style="stroke: #000000; stroke-width: 0.7"/>
      </g>
     </g>
     <g id="text_10">
      <text style="font-size: 8px; font-family: 'Times New Roman', 'CMU Serif', 'DejaVu Serif', serif; text-anchor: end" x="37.850781" y="85.393572" transform="rotate(-0 37.850781 85.393572)">0.75</text>
     </g>
    </g>
    <g id="ytick_5">
     <g id="line2d_14">
      <path d="M 41.350781 60.933485 
L 244.270781 60.933485 
" clip-path="url(#p8231e75150)" style="fill: none; stroke-dasharray: 0.5,0.825; stroke-dashoffset: 0; stroke: #b0b0b0; stroke-opacity: 0.6; stroke-width: 0.5"/>
     </g>
     <g id="line2d_15">
      <g>
       <use xlink:href="#m39a7c85545" x="41.350781" y="60.933485" style="stroke: #000000; stroke-width: 0.7"/>
      </g>
     </g>
     <g id="text_11">
      <text style="font-size: 8px; font-family: 'Times New Roman', 'CMU Serif', 'DejaVu Serif', serif; text-anchor: end" x="37.850781" y="63.97286" transform="rotate(-0 37.850781 63.97286)">1.00</text>
     </g>
    </g>
    <g id="ytick_6">
     <g id="line2d_16">
      <path d="M 41.350781 39.512773 
L 244.270781 39.512773 
" clip-path="url(#p8231e75150)" style="fill: none; stroke-dasharray: 0.5,0.825; stroke-dashoffset: 0; stroke: #b0b0b0; stroke-opacity: 0.6; stroke-width: 0.5"/>
     </g>
     <g id="line2d_17">
      <g>
       <use xlink:href="#m39a7c85545" x="41.350781" y="39.512773" style="stroke: #000000; stroke-width: 0.7"/>
      </g>
     </g>
     <g id="text_12">
      <text style="font-size: 8px; font-family: 'Times New Roman', 'CMU Serif', 'DejaVu Serif', serif; text-anchor: end" x="37.850781" y="42.552148" transform="rotate(-0 37.850781 42.552148)">1.25</text>
     </g>
    </g>
    <g id="ytick_7">
     <g id="line2d_18">
      <path d="M 41.350781 18.092061 
L 244.270781 18.092061 
" clip-path="url(#p8231e75150)" style="fill: none; stroke-dasharray: 0.5,0.825; stroke-dashoffset: 0; stroke: #b0b0b0; stroke-opacity: 0.6; stroke-width: 0.5"/>
     </g>
     <g id="line2d_19">
      <g>
       <use xlink:href="#m39a7c85545" x="41.350781" y="18.092061" style="stroke: #000000; stroke-width: 0.7"/>
      </g>
     </g>
     <g id="text_13">
      <text style="font-size: 8px; font-family: 'Times New Roman', 'CMU Serif', 'DejaVu Serif', serif; text-anchor: end" x="37.850781" y="21.131436" transform="rotate(-0 37.850781 21.131436)">1.50</text>
     </g>
    </g>
    <g id="text_14">
     <text style="font-size: 9px; font-family: 'Times New Roman', 'CMU Serif', 'DejaVu Serif', serif; text-anchor: middle" x="14.038594" y="78.779876" transform="rotate(-90 14.038594 78.779876)">Training loss</text>
    </g>
   </g>
   <g id="line2d_20">
    <path d="M 50.574418 13.707261 
L 51.501416 69.392759 
L 52.428415 52.814137 
L 53.355414 77.070951 
L 54.282412 84.505619 
L 55.209411 86.482285 
L 56.136409 92.118818 
L 57.063408 89.924925 
L 57.990407 93.687195 
L 58.917405 95.13267 
L 59.844404 94.776516 
L 60.771403 96.908436 
L 61.698401 97.367006 
L 62.6254 99.578608 
L 63.552398 98.039397 
L 64.479397 100.326659 
L 65.406396 101.405067 
L 66.333394 102.057826 
L 67.260393 103.094796 
L 68.187392 103.305378 
L 69.11439 103.362998 
L 70.041389 104.33148 
L 70.968387 107.019717 
L 71.895386 107.431986 
L 72.822385 107.369187 
L 73.749383 109.41819 
L 74.676382 107.813637 
L 75.603381 109.685234 
L 76.530379 111.263587 
L 78.384376 111.729902 
L 79.311375 115.023333 
L 80.238374 112.880392 
L 81.165372 114.48361 
L 82.092371 117.147108 
L 83.01937 116.610955 
L 83.946368 117.204939 
L 84.873367 118.091664 
L 85.800366 117.998568 
L 86.727364 119.693925 
L 87.654363 118.72437 
L 88.581361 120.441474 
L 89.50836 120.640592 
L 90.435359 122.199809 
L 91.362357 122.703024 
L 92.289356 121.44859 
L 93.216355 123.478943 
L 94.143353 124.007325 
L 95.070352 124.887634 
L 95.99735 125.415054 
L 97.851348 124.691865 
L 98.778346 126.368345 
L 99.705345 127.330085 
L 100.632344 127.386488 
L 101.559342 126.818303 
L 102.486341 127.59043 
L 103.413339 128.520311 
L 104.340338 128.739174 
L 105.267337 128.349445 
L 106.194335 129.41693 
L 107.121334 129.712398 
L 108.048333 128.626744 
L 109.90233 130.307975 
L 110.829329 132.215338 
L 111.756327 132.005453 
L 112.683326 130.571206 
L 113.610324 131.879594 
L 114.537323 132.170398 
L 115.464322 131.87234 
L 116.39132 132.530119 
L 117.318319 131.549097 
L 118.245318 133.378313 
L 119.172316 133.205734 
L 120.099315 133.787375 
L 121.026313 132.995539 
L 121.953312 134.339643 
L 122.880311 132.684888 
L 123.807309 134.092901 
L 124.734308 133.832039 
L 125.661307 134.930523 
L 126.588305 134.047422 
L 127.515304 134.836999 
L 128.442302 134.88544 
L 129.369301 134.504398 
L 130.2963 134.412647 
L 131.223298 135.880275 
L 132.150297 134.612022 
L 133.077296 135.547562 
L 134.004294 135.256223 
L 134.931293 136.049925 
L 135.858292 135.660645 
L 136.78529 137.509351 
L 137.712289 135.615936 
L 138.639287 137.65226 
L 139.566286 135.978515 
L 140.493285 136.449315 
L 141.420283 136.768787 
L 142.347282 137.588445 
L 143.274281 136.784332 
L 144.201279 137.386261 
L 145.128278 137.693274 
L 146.055276 137.739816 
L 146.982275 138.084246 
L 148.836272 137.667502 
L 149.763271 137.145121 
L 150.69027 138.820435 
L 151.617268 137.242958 
L 152.544267 139.24192 
L 153.471265 137.94281 
L 154.398264 138.604864 
L 156.252261 138.633276 
L 157.17926 139.24358 
L 158.106259 139.132297 
L 159.033257 139.241006 
L 159.960256 139.658414 
L 160.887255 139.378183 
L 161.814253 139.746121 
L 162.741252 139.706311 
L 163.66825 139.530294 
L 164.595249 139.644289 
L 165.522248 140.459793 
L 166.449246 139.402215 
L 167.376245 140.445004 
L 168.303244 139.822318 
L 169.230242 139.757384 
L 170.157241 140.536658 
L 171.084239 140.559528 
L 172.011238 139.929992 
L 172.938237 140.891661 
L 173.865235 141.197107 
L 174.792234 140.761651 
L 175.719233 140.600897 
L 176.646231 141.269986 
L 177.57323 140.766804 
L 178.500228 140.823699 
L 179.427227 141.23611 
L 180.354226 140.624252 
L 182.208223 141.187441 
L 183.135222 141.076768 
L 184.06222 141.284663 
L 184.989219 141.353618 
L 185.916218 141.177044 
L 186.843216 141.690343 
L 188.697213 141.434914 
L 189.624212 141.490372 
L 190.551211 141.755304 
L 191.478209 141.53722 
L 192.405208 141.686896 
L 193.332207 141.619797 
L 194.259205 142.25914 
L 195.186204 141.988259 
L 196.113202 141.919521 
L 197.040201 142.006643 
L 197.9672 141.665668 
L 198.894198 142.680456 
L 199.821197 142.258269 
L 200.748196 142.075888 
L 201.675194 142.040591 
L 203.529191 142.535051 
L 204.45619 142.417803 
L 205.383189 142.674172 
L 206.310187 142.019917 
L 207.237186 142.561544 
L 208.164185 142.584704 
L 209.091183 142.255992 
L 210.018182 142.582164 
L 210.945181 142.332433 
L 211.872179 143.009193 
L 212.799178 142.465466 
L 213.726176 142.592871 
L 214.653175 142.307811 
L 216.507172 142.996071 
L 217.434171 142.46923 
L 218.36117 142.868169 
L 219.288168 142.628503 
L 220.215167 143.133573 
L 221.142165 142.792706 
L 222.069164 143.324242 
L 223.923161 143.061868 
L 224.85016 143.457715 
L 225.777159 142.981169 
L 226.704157 143.402803 
L 227.631156 143.32897 
L 228.558154 143.475914 
L 230.412152 143.342391 
L 231.33915 143.473714 
L 232.266149 143.292949 
L 233.193148 143.701016 
L 234.120146 143.179854 
L 235.047145 143.852491 
L 235.047145 143.852491 
" clip-path="url(#p8231e75150)" style="fill: none; stroke: #4c72b0; stroke-width: 1.2; stroke-linecap: square"/>
   </g>
   <g id="patch_3">
    <path d="M 41.350781 150.359752 
L 41.350781 7.2 
" style="fill: none; stroke: #000000; stroke-width: 0.6; stroke-linejoin: miter; stroke-linecap: square"/>
   </g>
   <g id="patch_4">
    <path d="M 41.350781 150.359752 
L 244.270781 150.359752 
" style="fill: none; stroke: #000000; stroke-width: 0.6; stroke-linejoin: miter; stroke-linecap: square"/>
   </g>
  </g>
 </g>
 <defs>
  <clipPath id="p8231e75150">
   <rect x="41.350781" y="7.2" width="202.92" height="143.159752"/>
  </clipPath>
 </defs>
</svg>
