<?xml version="1.0" encoding="utf-8" standalone="no"?>
<!DOCTYPE svg PUBLIC "-//W3C//DTD SVG 1.1//EN"
  "http://www.w3.org/Graphics/SVG/1.1/DTD/svg11.dtd">
<svg xmlns:xlink="http://www.w3.org/1999/xlink" width="246.358281pt" height="182.052812pt" viewBox="0 0 246.358281 182.052812" xmlns="http://www.w3.org/2000/svg" version="1.1">
 <metadata>
  <rdf:RDF xmlns:dc="http://purl.org/dc/elements/1.1/" xmlns:cc="http://creativecommons.org/ns#" xmlns:rdf="http://www.w3.org/1999/02/22-rdf-syntax-ns#">
   <cc:Work>
    <dc:type rdf:resource="http://purl.org/dc/dcmitype/StillImage"/>
    <dc:date>2026-05-18T21:45:54.068945</dc:date>
    <dc:format>image/svg+xml</dc:format>
    <dc:creator>
     <cc:Agent>
      <dc:title>Matplotlib v3.10.7, https://matplotlib.org/</dc:title>
     </cc:Agent>
    </dc:creator>
   </cc:Work>
  </rdf:RDF>
 </metadata>
 <defs>
  <style type="text/css">*{stroke-linejoin: round; stroke-linecap: butt}</style>
 </defs>
 <g id="figure_1">
  <g id="patch_1">
   <path d="M 0 182.052812 
L 246.358281 182.052812 
L 246.358281 0 
L 0 0 
z
" style="fill: #ffffff"/>
  </g>
  <g id="axes_1">
   <g id="patch_2">
    <path d="M 33.718281 150.9 
L 239.158281 150.9 
L 239.158281 7.2 
L 33.718281 7.2 
z
" style="fill: #ffffff"/>
   </g>
   <g id="matplotlib.axis_1">
    <g id="xtick_1">
     <g id="line2d_1">
      <defs>
       <path id="mea0eb7f118" d="M 0 0 
L 0 -3 
" style="stroke: #000000; stroke-width: 0.7"/>
      </defs>
      <g>
       <use xlink:href="#mea0eb7f118" x="42.117952" y="150.9" style="stroke: #000000; stroke-width: 0.7"/>
      </g>
     </g>
     <g id="text_1">
      <text style="font-size: 8px; font-family: 'Times New Roman', 'CMU Serif', 'DejaVu Serif', serif; text-anchor: middle" x="42.117952" y="160.47875" transform="rotate(-0 42.117952 160.47875)">0</text>
     </g>
    </g>
    <g id="xtick_2">
     <g id="line2d_2">
      <g>
       <use xlink:href="#mea0eb7f118" x="89.043489" y="150.9" style="stroke: #000000; stroke-width: 0.7"/>
      </g>
     </g>
     <g id="text_2">
      <text style="font-size: 8px; font-family: 'Times New Roman', 'CMU Serif', 'DejaVu Serif', serif; text-anchor: middle" x="89.043489" y="160.47875" transform="rotate(-0 89.043489 160.47875)">50</text>
     </g>
    </g>
    <g id="xtick_3">
     <g id="line2d_3">
      <g>
       <use xlink:href="#mea0eb7f118" x="135.969026" y="150.9" style="stroke: #000000; stroke-width: 0.7"/>
      </g>
     </g>
     <g id="text_3">
      <text style="font-size: 8px; font-family: 'Times New Roman', 'CMU Serif', 'DejaVu Serif', serif; text-anchor: middle" x="135.969026" y="160.47875" transform="rotate(-0 135.969026 160.47875)">100</text>
     </g>
    </g>
    <g id="xtick_4">
     <g id="line2d_4">
      <g>
       <use xlink:href="#mea0eb7f118" x="182.894563" y="150.9" style="stroke: #000000; stroke-width: 0.7"/>
      </g>
     </g>
     <g id="text_4">
      <text style="font-size: 8px; font-family: 'Times New Roman', 'CMU Serif', 'DejaVu Serif', serif; text-anchor: middle" x="182.894563" y="160.47875" transform="rotate(-0 182.894563 160.47875)">150</text>
     </g>
    </g>
    <g id="xtick_5">
     <g id="line2d_5">
      <g>
       <use xlink:href="#mea0eb7f118" x="229.820099" y="150.9" style="stroke: #000000; stroke-width: 0.7"/>
      </g>
     </g>
     <g id="text_5">
      <text style="font-size: 8px; font-family: 'Times New Roman', 'CMU Serif', 'DejaVu Serif', serif; text-anchor: middle" x="229.820099" y="160.47875" transform="rotate(-0 229.820099 160.47875)">200</text>
     </g>
    </g>
    <g id="text_6">
     <text style="font-size: 9px; font-family: 'Times New Roman', 'CMU Serif', 'DejaVu Serif', serif; text-anchor: middle" x="136.438281" y="172.981094" transform="rotate(-0 136.438281 172.981094)">Epoch</text>
    </g>
   </g>
   <g id="matplotlib.axis_2">
    <g id="ytick_1">
     <g id="line2d_6">
      <path d="M 33.718281 123.916642 
L 239.158281 123.916642 
" clip-path="url(#p6669f3990c)" style="fill: none; stroke-dasharray: 0.5,0.825; stroke-dashoffset: 0; stroke: #b0b0b0; stroke-opacity: 0.6; stroke-width: 0.5"/>
     </g>
     <g id="line2d_7">
      <defs>
       <path id="m7100e4a606" d="M 0 0 
L 3 0 
" style="stroke: #000000; stroke-width: 0.7"/>
      </defs>
      <g>
       <use xlink:href="#m7100e4a606" x="33.718281" y="123.916642" style="stroke: #000000; stroke-width: 0.7"/>
      </g>
     </g>
     <g id="text_7">
      <text style="font-size: 8px; font-family: 'Times New Roman', 'CMU Serif', 'DejaVu Serif', serif; text-anchor: end" x="30.218281" y="126.956017" transform="rotate(-0 30.218281 126.956017)">2</text>
     </g>
    </g>
    <g id="ytick_2">
     <g id="line2d_8">
      <path d="M 33.718281 95.578385 
L 239.158281 95.578385 
" clip-path="url(#p6669f3990c)" style="fill: none; stroke-dasharray: 0.5,0.825; stroke-dashoffset: 0; stroke: #b0b0b0; stroke-opacity: 0.6; stroke-width: 0.5"/>
     </g>
     <g id="line2d_9">
      <g>
       <use xlink:href="#m7100e4a606" x="33.718281" y="95.578385" style="stroke: #000000; stroke-width: 0.7"/>
      </g>
     </g>
     <g id="text_8">
      <text style="font-size: 8px; font-family: 'Times New Roman', 'CMU Serif', 'DejaVu Serif', serif; text-anchor: end" x="30.218281" y="98.61776" transform="rotate(-0 30.218281 98.61776)">4</text>
     </g>
    </g>
    <g id="ytick_3">
     <g id="line2d_10">
      <path d="M 33.718281 67.240128 
L 239.158281 67.240128 
" clip-path="url(#p6669f3990c)" style="fill: none; stroke-dasharray: 0.5,0.825; stroke-dashoffset: 0; stroke: #b0b0b0; stroke-opacity: 0.6; stroke-width: 0.5"/>
     </g>
     <g id="line2d_11">
      <g>
       <use xlink:href="#m7100e4a606" x="33.718281" y="67.240128" style="stroke: #000000; stroke-width: 0.7"/>
      </g>
     </g>
     <g id="text_9">
      <text style="font-size: 8px; font-family: 'Times New Roman', 'CMU Serif', 'DejaVu Serif', serif; text-anchor: end" x="30.218281" y="70.279503" transform="rotate(-0 30.218281 70.279503)">6</text>
     </g>
    </g>
    <g id="ytick_4">
     <g id="line2d_12">
      <path d="M 33.718281 38.901871 
L 239.158281 38.901871 
" clip-path="url(#p6669f3990c)" style="fill: none; stroke-dasharray: 0.5,0.825; stroke-dashoffset: 0; stroke: #b0b0b0; stroke-opacity: 0.6; stroke-width: 0.5"/>
     </g>
     <g id="line2d_13">
      <g>
       <use xlink:href="#m7100e4a606" x="33.718281" y="38.901871" style="stroke: #000000; stroke-width: 0.7"/>
      </g>
     </g>
     <g id="text_10">
      <text style="font-size: 8px; font-family: 'Times New Roman', 'CMU Serif', 'DejaVu Serif', serif; text-anchor: end" x="30.218281" y="41.941246" transform="rotate(-0 30.218281 41.941246)">8</text>
     </g>
    </g>
    <g id="ytick_5">
     <g id="line2d_14">
      <path d="M 33.718281 10.563614 
L 239.158281 10.563614 
" clip-path="url(#p6669f3990c)" style="fill: none; stroke-dasharray: 0.5,0.825; stroke-dashoffset: 0; stroke: #b0b0b0; stroke-opacity: 0.6; stroke-width: 0.5"/>
     </g>
     <g id="line2d_15">
      <g>
       <use xlink:href="#m7100e4a606" x="33.718281" y="10.563614" style="stroke: #000000; stroke-width: 0.7"/>
      </g>
     </g>
     <g id="text_11">
      <text style="font-size: 8px; font-family: 'Times New Roman', 'CMU Serif', 'DejaVu Serif', serif; text-anchor: end" x="30.218281" y="13.602989" transform="rotate(-0 30.218281 13.602989)">10</text>
     </g>
    </g>
    <g id="text_12">
     <text style="font-size: 9px; font-family: 'Times New Roman', 'CMU Serif', 'DejaVu Serif', serif; text-anchor: middle" x="14.038594" y="79.05" transform="rotate(-90 14.038594 79.05)">Training loss</text>
    </g>
   </g>
   <g id="line2d_16">
    <path d="M 43.056463 13.731818 
L 43.994974 29.761548 
L 44.933485 40.866819 
L 45.871995 49.339038 
L 47.749017 72.198997 
L 48.687527 78.048613 
L 49.626038 87.209411 
L 50.564549 93.14106 
L 51.50306 97.73154 
L 52.44157 104.050095 
L 53.380081 106.306856 
L 54.318592 109.614587 
L 55.257103 114.656175 
L 56.195613 118.80605 
L 57.134124 120.817722 
L 58.072635 124.978769 
L 59.011146 127.936089 
L 59.949656 129.734118 
L 60.888167 132.107074 
L 61.826678 133.349627 
L 62.765189 135.432784 
L 63.703699 136.149106 
L 64.64221 137.109986 
L 65.580721 138.391877 
L 66.519231 138.924563 
L 68.396253 140.637878 
L 70.273274 141.567397 
L 71.211785 142.1088 
L 72.150296 142.437912 
L 73.088807 142.558228 
L 74.027317 142.975571 
L 74.965828 143.152543 
L 75.904339 143.013051 
L 77.78136 143.391861 
L 82.473914 143.671687 
L 85.289446 143.898739 
L 86.227957 143.701666 
L 88.104978 143.890356 
L 91.859021 144.023842 
L 92.797532 143.842536 
L 93.736043 143.807851 
L 95.613064 144.135322 
L 96.551575 143.910887 
L 97.490086 143.857347 
L 98.428596 144.022352 
L 101.244129 143.990024 
L 102.182639 144.188281 
L 104.059661 144.006296 
L 104.998172 144.083269 
L 108.752215 143.836205 
L 109.690725 144.169431 
L 110.629236 144.011401 
L 111.567747 144.200189 
L 112.506257 143.882577 
L 113.444768 144.087756 
L 114.383279 143.983757 
L 115.32179 144.12447 
L 116.2603 143.969377 
L 117.198811 144.152902 
L 119.075833 144.209632 
L 120.014343 144.30293 
L 122.829876 144.05605 
L 123.768386 144.166849 
L 126.583919 144.017098 
L 130.337961 144.196925 
L 131.276472 144.070898 
L 132.214983 144.237365 
L 135.030515 144.078404 
L 136.907537 144.137562 
L 137.846047 144.155388 
L 138.784558 144.051137 
L 140.66158 144.325456 
L 142.538601 144.050572 
L 146.292644 144.146136 
L 147.231155 144.063454 
L 150.985198 144.238496 
L 151.923708 144.245061 
L 152.862219 144.110389 
L 156.616262 144.168456 
L 157.554773 144.055031 
L 158.493284 144.231638 
L 159.431794 144.265933 
L 161.308816 144.103006 
L 162.247326 144.219453 
L 163.185837 144.021656 
L 164.124348 144.241852 
L 165.062859 144.045839 
L 166.93988 144.304415 
L 167.878391 144.12309 
L 169.755412 144.217035 
L 173.509455 144.107435 
L 175.386477 144.206544 
L 190.402649 144.070517 
L 191.341159 144.255703 
L 193.218181 144.119464 
L 194.156691 144.323572 
L 195.095202 143.980834 
L 196.972224 144.361575 
L 199.787756 144.165783 
L 201.664777 144.259294 
L 202.603288 144.005049 
L 203.541799 144.182571 
L 204.48031 144.064744 
L 206.357331 144.31864 
L 207.295842 144.165382 
L 209.172863 144.233323 
L 210.111374 144.225658 
L 211.049885 144.08852 
L 211.988395 144.216021 
L 212.926906 144.015 
L 214.803928 144.368182 
L 215.742438 144.298795 
L 216.680949 144.060297 
L 217.61946 144.287418 
L 219.496481 143.774972 
L 220.434992 144.294846 
L 221.373503 144.175484 
L 223.250524 144.261806 
L 224.189035 144.154547 
L 226.066056 144.170982 
L 227.004567 144.00629 
L 229.820099 144.144051 
L 229.820099 144.144051 
" clip-path="url(#p6669f3990c)" style="fill: none; stroke: #4c72b0; stroke-width: 1.2; stroke-linecap: square"/>
   </g>
   <g id="patch_3">
    <path d="M 33.718281 150.9 
L 33.718281 7.2 
" style="fill: none; stroke: #000000; stroke-width: 0.6; stroke-linejoin: miter; stroke-linecap: square"/>
   </g>
   <g id="patch_4">
    <path d="M 33.718281 150.9 
L 239.158281 150.9 
" style="fill: none; stroke: #000000; stroke-width: 0.6; stroke-linejoin: miter; stroke-linecap: square"/>
   </g>
  </g>
 </g>
 <defs>
  <clipPath id="p6669f3990c">
   <rect x="33.718281" y="7.2" width="205.44" height="143.7"/>
  </clipPath>
 </defs>
</svg>
