<?xml version="1.0" encoding="utf-8" standalone="no"?>
<!DOCTYPE svg PUBLIC "-//W3C//DTD SVG 1.1//EN"
  "http://www.w3.org/Graphics/SVG/1.1/DTD/svg11.dtd">
<svg xmlns:xlink="http://www.w3.org/1999/xlink" width="246.380781pt" height="182.052812pt" viewBox="0 0 246.380781 182.052812" xmlns="http://www.w3.org/2000/svg" version="1.1">
 <metadata>
  <rdf:RDF xmlns:dc="http://purl.org/dc/elements/1.1/" xmlns:cc="http://creativecommons.org/ns#" xmlns:rdf="http://www.w3.org/1999/02/22-rdf-syntax-ns#">
   <cc:Work>
    <dc:type rdf:resource="http://purl.org/dc/dcmitype/StillImage"/>
    <dc:date>2026-05-18T20:51:24.836293</dc:date>
    <dc:format>image/svg+xml</dc:format>
    <dc:creator>
     <cc:Agent>
      <dc:title>Matplotlib v3.10.7, https://matplotlib.org/</dc:title>
     </cc:Agent>
    </dc:creator>
   </cc:Work>
  </rdf:RDF>
 </metadata>
 <defs>
  <style type="text/css">*{stroke-linejoin: round; stroke-linecap: butt}</style>
 </defs>
 <g id="figure_1">
  <g id="patch_1">
   <path d="M 0 182.052812 
L 246.380781 182.052812 
L 246.380781 0 
L 0 0 
z
" style="fill: #ffffff"/>
  </g>
  <g id="axes_1">
   <g id="patch_2">
    <path d="M 36.260781 150.9 
L 239.180781 150.9 
L 239.180781 7.2 
L 36.260781 7.2 
z
" style="fill: #ffffff"/>
   </g>
   <g id="matplotlib.axis_1">
    <g id="xtick_1">
     <g id="line2d_1">
      <defs>
       <path id="mff4ab4a24f" d="M 0 0 
L 0 -3 
" style="stroke: #000000; stroke-width: 0.7"/>
      </defs>
      <g>
       <use xlink:href="#mff4ab4a24f" x="44.557419" y="150.9" style="stroke: #000000; stroke-width: 0.7"/>
      </g>
     </g>
     <g id="text_1">
      <text style="font-size: 8px; font-family: 'Times New Roman', 'CMU Serif', 'DejaVu Serif', serif; text-anchor: middle" x="44.557419" y="160.47875" transform="rotate(-0 44.557419 160.47875)">0</text>
     </g>
    </g>
    <g id="xtick_2">
     <g id="line2d_2">
      <g>
       <use xlink:href="#mff4ab4a24f" x="90.90735" y="150.9" style="stroke: #000000; stroke-width: 0.7"/>
      </g>
     </g>
     <g id="text_2">
      <text style="font-size: 8px; font-family: 'Times New Roman', 'CMU Serif', 'DejaVu Serif', serif; text-anchor: middle" x="90.90735" y="160.47875" transform="rotate(-0 90.90735 160.47875)">50</text>
     </g>
    </g>
    <g id="xtick_3">
     <g id="line2d_3">
      <g>
       <use xlink:href="#mff4ab4a24f" x="137.257282" y="150.9" style="stroke: #000000; stroke-width: 0.7"/>
      </g>
     </g>
     <g id="text_3">
      <text style="font-size: 8px; font-family: 'Times New Roman', 'CMU Serif', 'DejaVu Serif', serif; text-anchor: middle" x="137.257282" y="160.47875" transform="rotate(-0 137.257282 160.47875)">100</text>
     </g>
    </g>
    <g id="xtick_4">
     <g id="line2d_4">
      <g>
       <use xlink:href="#mff4ab4a24f" x="183.607213" y="150.9" style="stroke: #000000; stroke-width: 0.7"/>
      </g>
     </g>
     <g id="text_4">
      <text style="font-size: 8px; font-family: 'Times New Roman', 'CMU Serif', 'DejaVu Serif', serif; text-anchor: middle" x="183.607213" y="160.47875" transform="rotate(-0 183.607213 160.47875)">150</text>
     </g>
    </g>
    <g id="xtick_5">
     <g id="line2d_5">
      <g>
       <use xlink:href="#mff4ab4a24f" x="229.957145" y="150.9" style="stroke: #000000; stroke-width: 0.7"/>
      </g>
     </g>
     <g id="text_5">
      <text style="font-size: 8px; font-family: 'Times New Roman', 'CMU Serif', 'DejaVu Serif', serif; text-anchor: middle" x="229.957145" y="160.47875" transform="rotate(-0 229.957145 160.47875)">200</text>
     </g>
    </g>
    <g id="text_6">
     <text style="font-size: 9px; font-family: 'Times New Roman', 'CMU Serif', 'DejaVu Serif', serif; text-anchor: middle" x="137.720781" y="172.981094" transform="rotate(-0 137.720781 172.981094)">Epoch</text>
    </g>
   </g>
   <g id="matplotlib.axis_2">
    <g id="ytick_1">
     <g id="line2d_6">
      <path d="M 36.260781 126.33077 
L 239.180781 126.33077 
" clip-path="url(#p2bbaf3d9d8)" style="fill: none; stroke-dasharray: 0.5,0.825; stroke-dashoffset: 0; stroke: #b0b0b0; stroke-opacity: 0.6; stroke-width: 0.5"/>
     </g>
     <g id="line2d_7">
      <defs>
       <path id="ma63e3b3f3c" d="M 0 0 
L 3 0 
" style="stroke: #000000; stroke-width: 0.7"/>
      </defs>
      <g>
       <use xlink:href="#ma63e3b3f3c" x="36.260781" y="126.33077" style="stroke: #000000; stroke-width: 0.7"/>
      </g>
     </g>
     <g id="text_7">
      <text style="font-size: 8px; font-family: 'Times New Roman', 'CMU Serif', 'DejaVu Serif', serif; text-anchor: end" x="32.760781" y="129.370145" transform="rotate(-0 32.760781 129.370145)">0.4</text>
     </g>
    </g>
    <g id="ytick_2">
     <g id="line2d_8">
      <path d="M 36.260781 99.697722 
L 239.180781 99.697722 
" clip-path="url(#p2bbaf3d9d8)" style="fill: none; stroke-dasharray: 0.5,0.825; stroke-dashoffset: 0; stroke: #b0b0b0; stroke-opacity: 0.6; stroke-width: 0.5"/>
     </g>
     <g id="line2d_9">
      <g>
       <use xlink:href="#ma63e3b3f3c" x="36.260781" y="99.697722" style="stroke: #000000; stroke-width: 0.7"/>
      </g>
     </g>
     <g id="text_8">
      <text style="font-size: 8px; font-family: 'Times New Roman', 'CMU Serif', 'DejaVu Serif', serif; text-anchor: end" x="32.760781" y="102.737097" transform="rotate(-0 32.760781 102.737097)">0.6</text>
     </g>
    </g>
    <g id="ytick_3">
     <g id="line2d_10">
      <path d="M 36.260781 73.064674 
L 239.180781 73.064674 
" clip-path="url(#p2bbaf3d9d8)" style="fill: none; stroke-dasharray: 0.5,0.825; stroke-dashoffset: 0; stroke: #b0b0b0; stroke-opacity: 0.6; stroke-width: 0.5"/>
     </g>
     <g id="line2d_11">
      <g>
       <use xlink:href="#ma63e3b3f3c" x="36.260781" y="73.064674" style="stroke: #000000; stroke-width: 0.7"/>
      </g>
     </g>
     <g id="text_9">
      <text style="font-size: 8px; font-family: 'Times New Roman', 'CMU Serif', 'DejaVu Serif', serif; text-anchor: end" x="32.760781" y="76.104049" transform="rotate(-0 32.760781 76.104049)">0.8</text>
     </g>
    </g>
    <g id="ytick_4">
     <g id="line2d_12">
      <path d="M 36.260781 46.431626 
L 239.180781 46.431626 
" clip-path="url(#p2bbaf3d9d8)" style="fill: none; stroke-dasharray: 0.5,0.825; stroke-dashoffset: 0; stroke: #b0b0b0; stroke-opacity: 0.6; stroke-width: 0.5"/>
     </g>
     <g id="line2d_13">
      <g>
       <use xlink:href="#ma63e3b3f3c" x="36.260781" y="46.431626" style="stroke: #000000; stroke-width: 0.7"/>
      </g>
     </g>
     <g id="text_10">
      <text style="font-size: 8px; font-family: 'Times New Roman', 'CMU Serif', 'DejaVu Serif', serif; text-anchor: end" x="32.760781" y="49.471001" transform="rotate(-0 32.760781 49.471001)">1.0</text>
     </g>
    </g>
    <g id="ytick_5">
     <g id="line2d_14">
      <path d="M 36.260781 19.798579 
L 239.180781 19.798579 
" clip-path="url(#p2bbaf3d9d8)" style="fill: none; stroke-dasharray: 0.5,0.825; stroke-dashoffset: 0; stroke: #b0b0b0; stroke-opacity: 0.6; stroke-width: 0.5"/>
     </g>
     <g id="line2d_15">
      <g>
       <use xlink:href="#ma63e3b3f3c" x="36.260781" y="19.798579" style="stroke: #000000; stroke-width: 0.7"/>
      </g>
     </g>
     <g id="text_11">
      <text style="font-size: 8px; font-family: 'Times New Roman', 'CMU Serif', 'DejaVu Serif', serif; text-anchor: end" x="32.760781" y="22.837954" transform="rotate(-0 32.760781 22.837954)">1.2</text>
     </g>
    </g>
    <g id="text_12">
     <text style="font-size: 9px; font-family: 'Times New Roman', 'CMU Serif', 'DejaVu Serif', serif; text-anchor: middle" x="14.038594" y="79.05" transform="rotate(-90 14.038594 79.05)">Training loss</text>
    </g>
   </g>
   <g id="line2d_16">
    <path d="M 45.484418 13.731818 
L 46.411416 100.39146 
L 47.338415 100.950316 
L 48.265414 101.820462 
L 49.192412 107.224608 
L 50.119411 110.042634 
L 51.046409 111.346497 
L 51.973408 113.315158 
L 52.900407 114.99298 
L 53.827405 110.396883 
L 54.754404 111.991216 
L 55.681403 111.581286 
L 56.608401 113.162209 
L 57.5354 114.182896 
L 58.462398 107.992724 
L 59.389397 109.84983 
L 60.316396 112.89168 
L 61.243394 113.56271 
L 63.097392 106.940558 
L 64.02439 98.81577 
L 64.951389 112.826524 
L 65.878387 114.215955 
L 66.805386 118.022539 
L 67.732385 120.157512 
L 68.659383 117.16251 
L 69.586382 116.884487 
L 70.513381 117.753767 
L 71.440379 118.996464 
L 72.367378 114.810584 
L 73.294376 119.483121 
L 74.221375 121.547107 
L 75.148374 120.885538 
L 77.002371 123.226244 
L 78.856368 118.536448 
L 79.783367 120.149754 
L 80.710366 123.343467 
L 81.637364 119.666371 
L 82.564363 114.278126 
L 83.491361 116.896215 
L 84.41836 109.266826 
L 85.345359 106.202422 
L 86.272357 120.20212 
L 87.199356 122.849913 
L 88.126355 124.489311 
L 89.053353 126.625393 
L 89.980352 125.592156 
L 90.90735 124.875031 
L 91.834349 124.92076 
L 92.761348 121.32262 
L 93.688346 126.0117 
L 94.615345 126.478689 
L 95.542344 127.601334 
L 96.469342 118.094381 
L 97.396341 104.839605 
L 98.323339 103.527799 
L 99.250338 122.305645 
L 100.177337 126.272244 
L 101.104335 127.674636 
L 102.031334 127.118224 
L 102.958333 126.750742 
L 103.885331 127.270534 
L 104.81233 119.079892 
L 105.739329 128.110469 
L 106.666327 130.827599 
L 107.593326 130.286392 
L 108.520324 130.511983 
L 109.447323 127.269084 
L 110.374322 110.385641 
L 112.228319 116.148122 
L 113.155318 125.638067 
L 114.082316 129.205352 
L 115.009315 128.718329 
L 115.936313 130.423392 
L 116.863312 131.368732 
L 117.790311 132.587304 
L 118.717309 128.866465 
L 119.644308 128.534687 
L 120.571307 129.820862 
L 121.498305 131.437416 
L 122.425304 127.668277 
L 123.352302 123.18725 
L 124.279301 128.68237 
L 125.2063 131.057207 
L 126.133298 128.553967 
L 127.060297 131.124874 
L 127.987296 129.300833 
L 128.914294 116.762079 
L 129.841293 115.415904 
L 130.768292 128.171846 
L 131.69529 132.748678 
L 132.622289 130.994491 
L 133.549287 122.581909 
L 134.476286 100.709916 
L 135.403285 128.025178 
L 136.330283 129.866015 
L 137.257282 133.582905 
L 138.184281 133.737566 
L 139.111279 134.798792 
L 140.038278 132.294108 
L 140.965276 132.63486 
L 141.892275 130.934253 
L 143.746272 133.053575 
L 144.673271 135.111615 
L 145.60027 134.26399 
L 146.527268 136.533633 
L 147.454267 137.717438 
L 148.381265 137.160969 
L 149.308264 132.781906 
L 150.235263 127.67387 
L 152.08926 133.749192 
L 153.016259 134.845786 
L 153.943257 126.355557 
L 154.870256 121.809993 
L 155.797255 134.617934 
L 156.724253 130.182572 
L 157.651252 134.629049 
L 158.57825 133.291117 
L 159.505249 134.392216 
L 160.432248 134.691979 
L 161.359246 134.154057 
L 162.286245 130.698931 
L 163.213244 117.170202 
L 164.140242 127.862909 
L 165.067241 135.036097 
L 165.994239 137.434225 
L 166.921238 138.486029 
L 167.848237 137.149425 
L 168.775235 138.724159 
L 169.702234 135.238382 
L 170.629233 132.860129 
L 171.556231 117.612639 
L 172.48323 122.777929 
L 173.410228 130.533508 
L 174.337227 136.443501 
L 175.264226 137.320399 
L 176.191224 136.831474 
L 177.118223 139.372474 
L 178.045222 134.701956 
L 178.97222 137.097335 
L 179.899219 138.650906 
L 180.826218 135.830149 
L 182.680215 139.107221 
L 183.607213 130.929798 
L 184.534212 131.682146 
L 185.461211 136.65525 
L 186.388209 134.669508 
L 187.315208 125.197765 
L 188.242207 116.985908 
L 189.169205 135.862094 
L 190.096204 135.269953 
L 191.023202 134.350069 
L 191.950201 137.281733 
L 192.8772 138.602062 
L 193.804198 141.406145 
L 194.731197 142.550431 
L 195.658196 142.370335 
L 196.585194 138.252609 
L 197.512193 128.663269 
L 198.439191 138.722272 
L 199.36619 124.151013 
L 200.293189 107.827017 
L 202.147186 139.165113 
L 203.074185 136.906526 
L 204.001183 142.076682 
L 204.928182 141.895901 
L 205.855181 140.724638 
L 206.782179 142.782629 
L 207.709178 143.368583 
L 208.636176 142.186797 
L 209.563175 135.193955 
L 210.490174 133.835812 
L 211.417172 139.822291 
L 212.344171 143.647306 
L 213.27117 144.368182 
L 214.198168 142.406345 
L 215.125167 139.747607 
L 216.052165 140.454326 
L 216.979164 136.367744 
L 217.906163 106.790716 
L 218.833161 139.15729 
L 219.76016 141.494897 
L 220.687159 143.311276 
L 221.614157 140.54292 
L 222.541156 129.265919 
L 223.468154 139.839301 
L 224.395153 129.548434 
L 225.322152 129.977814 
L 226.24915 134.377039 
L 227.176149 103.268815 
L 228.103148 104.794649 
L 229.030146 129.033098 
L 229.957145 140.800985 
L 229.957145 140.800985 
" clip-path="url(#p2bbaf3d9d8)" style="fill: none; stroke: #4c72b0; stroke-width: 1.2; stroke-linecap: square"/>
   </g>
   <g id="patch_3">
    <path d="M 36.260781 150.9 
L 36.260781 7.2 
" style="fill: none; stroke: #000000; stroke-width: 0.6; stroke-linejoin: miter; stroke-linecap: square"/>
   </g>
   <g id="patch_4">
    <path d="M 36.260781 150.9 
L 239.180781 150.9 
" style="fill: none; stroke: #000000; stroke-width: 0.6; stroke-linejoin: miter; stroke-linecap: square"/>
   </g>
  </g>
 </g>
 <defs>
  <clipPath id="p2bbaf3d9d8">
   <rect x="36.260781" y="7.2" width="202.92" height="143.7"/>
  </clipPath>
 </defs>
</svg>
