<?xml version="1.0" encoding="utf-8" standalone="no"?>
<!DOCTYPE svg PUBLIC "-//W3C//DTD SVG 1.1//EN"
  "http://www.w3.org/Graphics/SVG/1.1/DTD/svg11.dtd">
<svg xmlns:xlink="http://www.w3.org/1999/xlink" width="240.471406pt" height="181.662698pt" viewBox="0 0 240.471406 181.662698" xmlns="http://www.w3.org/2000/svg" version="1.1">
 <metadata>
  <rdf:RDF xmlns:dc="http://purl.org/dc/elements/1.1/" xmlns:cc="http://creativecommons.org/ns#" xmlns:rdf="http://www.w3.org/1999/02/22-rdf-syntax-ns#">
   <cc:Work>
    <dc:type rdf:resource="http://purl.org/dc/dcmitype/StillImage"/>
    <dc:date>2026-05-21T21:20:13.556558</dc:date>
    <dc:format>image/svg+xml</dc:format>
    <dc:creator>
     <cc:Agent>
      <dc:title>Matplotlib v3.10.7, https://matplotlib.org/</dc:title>
     </cc:Agent>
    </dc:creator>
   </cc:Work>
  </rdf:RDF>
 </metadata>
 <defs>
  <style type="text/css">*{stroke-linejoin: round; stroke-linecap: butt}</style>
 </defs>
 <g id="figure_1">
  <g id="patch_1">
   <path d="M 0 181.662698 
L 240.471406 181.662698 
L 240.471406 0 
L 0 0 
z
" style="fill: #ffffff"/>
  </g>
  <g id="axes_1">
   <g id="patch_2">
    <path d="M 30.891406 151.521917 
L 233.271406 151.521917 
L 233.271406 7.651057 
L 30.891406 7.651057 
z
" style="fill: #ffffff"/>
   </g>
   <g id="matplotlib.axis_1">
    <g id="xtick_1">
     <g id="line2d_1">
      <defs>
       <path id="mfefb63d380" d="M 0 0 
L 0 -3 
" style="stroke: #000000; stroke-width: 0.7"/>
      </defs>
      <g>
       <use xlink:href="#mfefb63d380" x="39.165965" y="151.521917" style="stroke: #000000; stroke-width: 0.7"/>
      </g>
     </g>
     <g id="text_1">
      <text style="font-size: 8px; font-family: 'Times New Roman', 'CMU Serif', 'DejaVu Serif', serif; text-anchor: middle" x="39.165965" y="160.576917" transform="rotate(-0 39.165965 160.576917)">0</text>
     </g>
    </g>
    <g id="xtick_2">
     <g id="line2d_2">
      <g>
       <use xlink:href="#mfefb63d380" x="85.392553" y="151.521917" style="stroke: #000000; stroke-width: 0.7"/>
      </g>
     </g>
     <g id="text_2">
      <text style="font-size: 8px; font-family: 'Times New Roman', 'CMU Serif', 'DejaVu Serif', serif; text-anchor: middle" x="85.392553" y="160.576917" transform="rotate(-0 85.392553 160.576917)">50</text>
     </g>
    </g>
    <g id="xtick_3">
     <g id="line2d_3">
      <g>
       <use xlink:href="#mfefb63d380" x="131.61914" y="151.521917" style="stroke: #000000; stroke-width: 0.7"/>
      </g>
     </g>
     <g id="text_3">
      <text style="font-size: 8px; font-family: 'Times New Roman', 'CMU Serif', 'DejaVu Serif', serif; text-anchor: middle" x="131.61914" y="160.576917" transform="rotate(-0 131.61914 160.576917)">100</text>
     </g>
    </g>
    <g id="xtick_4">
     <g id="line2d_4">
      <g>
       <use xlink:href="#mfefb63d380" x="177.845728" y="151.521917" style="stroke: #000000; stroke-width: 0.7"/>
      </g>
     </g>
     <g id="text_4">
      <text style="font-size: 8px; font-family: 'Times New Roman', 'CMU Serif', 'DejaVu Serif', serif; text-anchor: middle" x="177.845728" y="160.576917" transform="rotate(-0 177.845728 160.576917)">150</text>
     </g>
    </g>
    <g id="xtick_5">
     <g id="line2d_5">
      <g>
       <use xlink:href="#mfefb63d380" x="224.072315" y="151.521917" style="stroke: #000000; stroke-width: 0.7"/>
      </g>
     </g>
     <g id="text_5">
      <text style="font-size: 8px; font-family: 'Times New Roman', 'CMU Serif', 'DejaVu Serif', serif; text-anchor: middle" x="224.072315" y="160.576917" transform="rotate(-0 224.072315 160.576917)">200</text>
     </g>
    </g>
    <g id="text_6">
     <text style="font-size: 9px; font-family: 'Times New Roman', 'CMU Serif', 'DejaVu Serif', serif; text-anchor: middle" x="132.081406" y="172.537542" transform="rotate(-0 132.081406 172.537542)">Epoch</text>
    </g>
   </g>
   <g id="matplotlib.axis_2">
    <g id="ytick_1">
     <g id="line2d_6">
      <path d="M 30.891406 149.09601 
L 233.271406 149.09601 
" clip-path="url(#p17582baae6)" style="fill: none; stroke-dasharray: 0.5,0.825; stroke-dashoffset: 0; stroke: #b0b0b0; stroke-opacity: 0.6; stroke-width: 0.5"/>
     </g>
     <g id="line2d_7">
      <defs>
       <path id="m7ae6e5f2c9" d="M 0 0 
L 3 0 
" style="stroke: #000000; stroke-width: 0.7"/>
      </defs>
      <g>
       <use xlink:href="#m7ae6e5f2c9" x="30.891406" y="149.09601" style="stroke: #000000; stroke-width: 0.7"/>
      </g>
     </g>
     <g id="text_7">
      <text style="font-size: 8px; font-family: 'Times New Roman', 'CMU Serif', 'DejaVu Serif', serif; text-anchor: end" x="27.391406" y="151.87351" transform="rotate(-0 27.391406 151.87351)">0</text>
     </g>
    </g>
    <g id="ytick_2">
     <g id="line2d_8">
      <path d="M 30.891406 114.316383 
L 233.271406 114.316383 
" clip-path="url(#p17582baae6)" style="fill: none; stroke-dasharray: 0.5,0.825; stroke-dashoffset: 0; stroke: #b0b0b0; stroke-opacity: 0.6; stroke-width: 0.5"/>
     </g>
     <g id="line2d_9">
      <g>
       <use xlink:href="#m7ae6e5f2c9" x="30.891406" y="114.316383" style="stroke: #000000; stroke-width: 0.7"/>
      </g>
     </g>
     <g id="text_8">
      <text style="font-size: 8px; font-family: 'Times New Roman', 'CMU Serif', 'DejaVu Serif', serif; text-anchor: end" x="27.391406" y="117.093883" transform="rotate(-0 27.391406 117.093883)">5</text>
     </g>
    </g>
    <g id="ytick_3">
     <g id="line2d_10">
      <path d="M 30.891406 79.536755 
L 233.271406 79.536755 
" clip-path="url(#p17582baae6)" style="fill: none; stroke-dasharray: 0.5,0.825; stroke-dashoffset: 0; stroke: #b0b0b0; stroke-opacity: 0.6; stroke-width: 0.5"/>
     </g>
     <g id="line2d_11">
      <g>
       <use xlink:href="#m7ae6e5f2c9" x="30.891406" y="79.536755" style="stroke: #000000; stroke-width: 0.7"/>
      </g>
     </g>
     <g id="text_9">
      <text style="font-size: 8px; font-family: 'Times New Roman', 'CMU Serif', 'DejaVu Serif', serif; text-anchor: end" x="27.391406" y="82.314255" transform="rotate(-0 27.391406 82.314255)">10</text>
     </g>
    </g>
    <g id="ytick_4">
     <g id="line2d_12">
      <path d="M 30.891406 44.757128 
L 233.271406 44.757128 
" clip-path="url(#p17582baae6)" style="fill: none; stroke-dasharray: 0.5,0.825; stroke-dashoffset: 0; stroke: #b0b0b0; stroke-opacity: 0.6; stroke-width: 0.5"/>
     </g>
     <g id="line2d_13">
      <g>
       <use xlink:href="#m7ae6e5f2c9" x="30.891406" y="44.757128" style="stroke: #000000; stroke-width: 0.7"/>
      </g>
     </g>
     <g id="text_10">
      <text style="font-size: 8px; font-family: 'Times New Roman', 'CMU Serif', 'DejaVu Serif', serif; text-anchor: end" x="27.391406" y="47.534628" transform="rotate(-0 27.391406 47.534628)">15</text>
     </g>
    </g>
    <g id="ytick_5">
     <g id="line2d_14">
      <path d="M 30.891406 9.9775 
L 233.271406 9.9775 
" clip-path="url(#p17582baae6)" style="fill: none; stroke-dasharray: 0.5,0.825; stroke-dashoffset: 0; stroke: #b0b0b0; stroke-opacity: 0.6; stroke-width: 0.5"/>
     </g>
     <g id="line2d_15">
      <g>
       <use xlink:href="#m7ae6e5f2c9" x="30.891406" y="9.9775" style="stroke: #000000; stroke-width: 0.7"/>
      </g>
     </g>
     <g id="text_11">
      <text style="font-size: 8px; font-family: 'Times New Roman', 'CMU Serif', 'DejaVu Serif', serif; text-anchor: end" x="27.391406" y="12.755" transform="rotate(-0 27.391406 12.755)">20</text>
     </g>
    </g>
    <g id="text_12">
     <text style="font-size: 9px; font-family: 'Times New Roman', 'CMU Serif', 'DejaVu Serif', serif; text-anchor: middle" x="13.449375" y="79.586487" transform="rotate(-90 13.449375 79.586487)">Training loss</text>
    </g>
   </g>
   <g id="line2d_16">
    <path d="M 40.090497 14.190641 
L 41.015029 31.496705 
L 42.864092 42.434842 
L 43.788624 39.288481 
L 44.713156 55.239289 
L 45.637688 59.06715 
L 46.562219 61.261791 
L 47.486751 71.371683 
L 48.411283 67.827919 
L 49.335815 64.919438 
L 50.260346 75.827538 
L 51.184878 80.351532 
L 52.10941 78.957287 
L 53.033942 82.160733 
L 53.958473 82.730294 
L 54.883005 91.067563 
L 55.807537 95.778233 
L 56.732069 94.31102 
L 57.6566 96.418075 
L 58.581132 95.371198 
L 59.505664 96.638233 
L 60.430196 101.27249 
L 61.354727 102.004915 
L 62.279259 106.574831 
L 63.203791 105.842196 
L 64.128323 108.87443 
L 65.052854 112.805456 
L 65.977386 110.428204 
L 66.901918 111.673206 
L 67.82645 110.985638 
L 68.750981 115.955215 
L 69.675513 113.523825 
L 70.600045 115.282279 
L 71.524577 120.533178 
L 72.449108 116.290714 
L 73.37364 118.07588 
L 75.222704 122.889428 
L 76.147235 124.206874 
L 78.920831 125.480416 
L 79.845362 127.392861 
L 80.769894 130.099932 
L 81.694426 127.028594 
L 82.618958 129.158579 
L 83.543489 131.749761 
L 84.468021 131.831181 
L 85.392553 133.855573 
L 86.317085 133.851504 
L 87.241616 135.162214 
L 88.166148 135.443246 
L 89.09068 136.158265 
L 90.015212 136.708212 
L 90.939743 136.741002 
L 91.864275 138.348425 
L 92.788807 136.806405 
L 93.713339 139.133324 
L 94.63787 139.810134 
L 95.562402 138.634825 
L 96.486934 139.604105 
L 97.411466 139.667813 
L 98.335997 140.295136 
L 99.260529 141.125536 
L 100.185061 141.273289 
L 101.109593 140.808138 
L 102.034124 142.495333 
L 102.958656 141.448491 
L 103.883188 142.288199 
L 104.80772 142.182625 
L 105.732251 142.803661 
L 106.656783 142.940611 
L 107.581315 143.429144 
L 108.505847 142.944112 
L 109.430378 143.474431 
L 112.203974 143.937692 
L 113.128505 144.034532 
L 114.053037 143.568192 
L 114.977569 143.816346 
L 115.902101 144.435695 
L 116.826632 143.794755 
L 117.751164 144.161657 
L 118.675696 144.343286 
L 119.600228 144.371413 
L 120.524759 144.183622 
L 121.449291 144.201136 
L 122.373823 144.348844 
L 123.298355 144.377658 
L 124.222886 144.542806 
L 126.996482 144.380384 
L 127.921013 144.682414 
L 128.845545 144.545477 
L 132.543672 144.758515 
L 133.468204 144.58477 
L 134.392736 144.542196 
L 135.317267 144.328585 
L 136.241799 144.570819 
L 137.166331 144.548773 
L 138.090863 144.410084 
L 139.015394 144.676361 
L 140.864458 144.732547 
L 141.78899 144.53984 
L 142.713521 144.801436 
L 144.562585 144.736147 
L 145.487117 144.786329 
L 146.411648 144.656393 
L 147.33618 144.761876 
L 149.185244 144.710256 
L 150.109775 144.729933 
L 151.034307 144.63209 
L 151.958839 144.78866 
L 152.883371 144.54691 
L 153.807902 144.728371 
L 156.581498 144.799775 
L 157.506029 144.632343 
L 158.430561 144.7107 
L 159.355093 144.54832 
L 160.279625 144.820804 
L 162.128688 144.661437 
L 163.05322 144.799002 
L 163.977752 144.662057 
L 164.902283 144.945576 
L 165.826815 144.667137 
L 167.675879 144.781806 
L 168.60041 144.686409 
L 173.223069 144.81877 
L 175.072133 144.666488 
L 175.996664 144.854144 
L 177.845728 144.786098 
L 179.694791 144.833921 
L 180.619323 144.718651 
L 182.468387 144.958952 
L 183.392918 144.803261 
L 187.091045 144.882808 
L 188.015577 144.682094 
L 188.940109 144.917151 
L 189.864641 144.750735 
L 190.789172 144.955577 
L 191.713704 144.829103 
L 192.638236 144.892499 
L 193.562768 144.730258 
L 195.411831 144.89187 
L 197.260895 144.918341 
L 198.185426 144.778939 
L 200.959022 144.809752 
L 201.883553 144.734398 
L 204.657149 144.877084 
L 205.58168 144.683965 
L 206.506212 144.839034 
L 212.053403 144.919992 
L 212.977934 144.721339 
L 213.902466 144.9649 
L 214.826998 144.782054 
L 215.75153 144.896622 
L 220.374188 144.834629 
L 222.223252 144.982332 
L 224.072315 144.843918 
L 224.072315 144.843918 
" clip-path="url(#p17582baae6)" style="fill: none; stroke: #4c72b0; stroke-width: 1.2; stroke-linecap: square"/>
   </g>
   <g id="patch_3">
    <path d="M 30.891406 151.521917 
L 30.891406 7.651057 
" style="fill: none; stroke: #000000; stroke-width: 0.6; stroke-linejoin: miter; stroke-linecap: square"/>
   </g>
   <g id="patch_4">
    <path d="M 30.891406 151.521917 
L 233.271406 151.521917 
" style="fill: none; stroke: #000000; stroke-width: 0.6; stroke-linejoin: miter; stroke-linecap: square"/>
   </g>
  </g>
 </g>
 <defs>
  <clipPath id="p17582baae6">
   <rect x="30.891406" y="7.651057" width="202.38" height="143.87086"/>
  </clipPath>
 </defs>
</svg>
