<?xml version="1.0" encoding="utf-8" standalone="no"?>
<!DOCTYPE svg PUBLIC "-//W3C//DTD SVG 1.1//EN"
  "http://www.w3.org/Graphics/SVG/1.1/DTD/svg11.dtd">
<svg xmlns:xlink="http://www.w3.org/1999/xlink" width="246.591406pt" height="181.760781pt" viewBox="0 0 246.591406 181.760781" xmlns="http://www.w3.org/2000/svg" version="1.1">
 <metadata>
  <rdf:RDF xmlns:dc="http://purl.org/dc/elements/1.1/" xmlns:cc="http://creativecommons.org/ns#" xmlns:rdf="http://www.w3.org/1999/02/22-rdf-syntax-ns#">
   <cc:Work>
    <dc:type rdf:resource="http://purl.org/dc/dcmitype/StillImage"/>
    <dc:date>2026-05-22T06:53:47.519380</dc:date>
    <dc:format>image/svg+xml</dc:format>
    <dc:creator>
     <cc:Agent>
      <dc:title>Matplotlib v3.10.7, https://matplotlib.org/</dc:title>
     </cc:Agent>
    </dc:creator>
   </cc:Work>
  </rdf:RDF>
 </metadata>
 <defs>
  <style type="text/css">*{stroke-linejoin: round; stroke-linecap: butt}</style>
 </defs>
 <g id="figure_1">
  <g id="patch_1">
   <path d="M 0 181.760781 
L 246.591406 181.760781 
L 246.591406 0 
L 0 0 
z
" style="fill: #ffffff"/>
  </g>
  <g id="axes_1">
   <g id="patch_2">
    <path d="M 30.891406 151.62 
L 239.391406 151.62 
L 239.391406 7.2 
L 30.891406 7.2 
z
" style="fill: #ffffff"/>
   </g>
   <g id="matplotlib.axis_1">
    <g id="xtick_1">
     <g id="line2d_1">
      <defs>
       <path id="mf49d3d5ef0" d="M 0 0 
L 0 -3 
" style="stroke: #000000; stroke-width: 0.7"/>
      </defs>
      <g>
       <use xlink:href="#mf49d3d5ef0" x="39.416189" y="151.62" style="stroke: #000000; stroke-width: 0.7"/>
      </g>
     </g>
     <g id="text_1">
      <text style="font-size: 8px; font-family: 'Times New Roman', 'CMU Serif', 'DejaVu Serif', serif; text-anchor: middle" x="39.416189" y="160.675" transform="rotate(-0 39.416189 160.675)">0</text>
     </g>
    </g>
    <g id="xtick_2">
     <g id="line2d_2">
      <g>
       <use xlink:href="#mf49d3d5ef0" x="87.040675" y="151.62" style="stroke: #000000; stroke-width: 0.7"/>
      </g>
     </g>
     <g id="text_2">
      <text style="font-size: 8px; font-family: 'Times New Roman', 'CMU Serif', 'DejaVu Serif', serif; text-anchor: middle" x="87.040675" y="160.675" transform="rotate(-0 87.040675 160.675)">50</text>
     </g>
    </g>
    <g id="xtick_3">
     <g id="line2d_3">
      <g>
       <use xlink:href="#mf49d3d5ef0" x="134.665161" y="151.62" style="stroke: #000000; stroke-width: 0.7"/>
      </g>
     </g>
     <g id="text_3">
      <text style="font-size: 8px; font-family: 'Times New Roman', 'CMU Serif', 'DejaVu Serif', serif; text-anchor: middle" x="134.665161" y="160.675" transform="rotate(-0 134.665161 160.675)">100</text>
     </g>
    </g>
    <g id="xtick_4">
     <g id="line2d_4">
      <g>
       <use xlink:href="#mf49d3d5ef0" x="182.289647" y="151.62" style="stroke: #000000; stroke-width: 0.7"/>
      </g>
     </g>
     <g id="text_4">
      <text style="font-size: 8px; font-family: 'Times New Roman', 'CMU Serif', 'DejaVu Serif', serif; text-anchor: middle" x="182.289647" y="160.675" transform="rotate(-0 182.289647 160.675)">150</text>
     </g>
    </g>
    <g id="xtick_5">
     <g id="line2d_5">
      <g>
       <use xlink:href="#mf49d3d5ef0" x="229.914134" y="151.62" style="stroke: #000000; stroke-width: 0.7"/>
      </g>
     </g>
     <g id="text_5">
      <text style="font-size: 8px; font-family: 'Times New Roman', 'CMU Serif', 'DejaVu Serif', serif; text-anchor: middle" x="229.914134" y="160.675" transform="rotate(-0 229.914134 160.675)">200</text>
     </g>
    </g>
    <g id="text_6">
     <text style="font-size: 9px; font-family: 'Times New Roman', 'CMU Serif', 'DejaVu Serif', serif; text-anchor: middle" x="135.141406" y="172.635625" transform="rotate(-0 135.141406 172.635625)">Epoch</text>
    </g>
   </g>
   <g id="matplotlib.axis_2">
    <g id="ytick_1">
     <g id="line2d_6">
      <path d="M 30.891406 150.948806 
L 239.391406 150.948806 
" clip-path="url(#pb8f33b055d)" style="fill: none; stroke-dasharray: 0.5,0.825; stroke-dashoffset: 0; stroke: #b0b0b0; stroke-opacity: 0.6; stroke-width: 0.5"/>
     </g>
     <g id="line2d_7">
      <defs>
       <path id="m7f12efe840" d="M 0 0 
L 3 0 
" style="stroke: #000000; stroke-width: 0.7"/>
      </defs>
      <g>
       <use xlink:href="#m7f12efe840" x="30.891406" y="150.948806" style="stroke: #000000; stroke-width: 0.7"/>
      </g>
     </g>
     <g id="text_7">
      <text style="font-size: 8px; font-family: 'Times New Roman', 'CMU Serif', 'DejaVu Serif', serif; text-anchor: end" x="27.391406" y="153.726306" transform="rotate(-0 27.391406 153.726306)">0</text>
     </g>
    </g>
    <g id="ytick_2">
     <g id="line2d_8">
      <path d="M 30.891406 131.660339 
L 239.391406 131.660339 
" clip-path="url(#pb8f33b055d)" style="fill: none; stroke-dasharray: 0.5,0.825; stroke-dashoffset: 0; stroke: #b0b0b0; stroke-opacity: 0.6; stroke-width: 0.5"/>
     </g>
     <g id="line2d_9">
      <g>
       <use xlink:href="#m7f12efe840" x="30.891406" y="131.660339" style="stroke: #000000; stroke-width: 0.7"/>
      </g>
     </g>
     <g id="text_8">
      <text style="font-size: 8px; font-family: 'Times New Roman', 'CMU Serif', 'DejaVu Serif', serif; text-anchor: end" x="27.391406" y="134.437839" transform="rotate(-0 27.391406 134.437839)">2</text>
     </g>
    </g>
    <g id="ytick_3">
     <g id="line2d_10">
      <path d="M 30.891406 112.371873 
L 239.391406 112.371873 
" clip-path="url(#pb8f33b055d)" style="fill: none; stroke-dasharray: 0.5,0.825; stroke-dashoffset: 0; stroke: #b0b0b0; stroke-opacity: 0.6; stroke-width: 0.5"/>
     </g>
     <g id="line2d_11">
      <g>
       <use xlink:href="#m7f12efe840" x="30.891406" y="112.371873" style="stroke: #000000; stroke-width: 0.7"/>
      </g>
     </g>
     <g id="text_9">
      <text style="font-size: 8px; font-family: 'Times New Roman', 'CMU Serif', 'DejaVu Serif', serif; text-anchor: end" x="27.391406" y="115.149373" transform="rotate(-0 27.391406 115.149373)">4</text>
     </g>
    </g>
    <g id="ytick_4">
     <g id="line2d_12">
      <path d="M 30.891406 93.083406 
L 239.391406 93.083406 
" clip-path="url(#pb8f33b055d)" style="fill: none; stroke-dasharray: 0.5,0.825; stroke-dashoffset: 0; stroke: #b0b0b0; stroke-opacity: 0.6; stroke-width: 0.5"/>
     </g>
     <g id="line2d_13">
      <g>
       <use xlink:href="#m7f12efe840" x="30.891406" y="93.083406" style="stroke: #000000; stroke-width: 0.7"/>
      </g>
     </g>
     <g id="text_10">
      <text style="font-size: 8px; font-family: 'Times New Roman', 'CMU Serif', 'DejaVu Serif', serif; text-anchor: end" x="27.391406" y="95.860906" transform="rotate(-0 27.391406 95.860906)">6</text>
     </g>
    </g>
    <g id="ytick_5">
     <g id="line2d_14">
      <path d="M 30.891406 73.794939 
L 239.391406 73.794939 
" clip-path="url(#pb8f33b055d)" style="fill: none; stroke-dasharray: 0.5,0.825; stroke-dashoffset: 0; stroke: #b0b0b0; stroke-opacity: 0.6; stroke-width: 0.5"/>
     </g>
     <g id="line2d_15">
      <g>
       <use xlink:href="#m7f12efe840" x="30.891406" y="73.794939" style="stroke: #000000; stroke-width: 0.7"/>
      </g>
     </g>
     <g id="text_11">
      <text style="font-size: 8px; font-family: 'Times New Roman', 'CMU Serif', 'DejaVu Serif', serif; text-anchor: end" x="27.391406" y="76.572439" transform="rotate(-0 27.391406 76.572439)">8</text>
     </g>
    </g>
    <g id="ytick_6">
     <g id="line2d_16">
      <path d="M 30.891406 54.506473 
L 239.391406 54.506473 
" clip-path="url(#pb8f33b055d)" style="fill: none; stroke-dasharray: 0.5,0.825; stroke-dashoffset: 0; stroke: #b0b0b0; stroke-opacity: 0.6; stroke-width: 0.5"/>
     </g>
     <g id="line2d_17">
      <g>
       <use xlink:href="#m7f12efe840" x="30.891406" y="54.506473" style="stroke: #000000; stroke-width: 0.7"/>
      </g>
     </g>
     <g id="text_12">
      <text style="font-size: 8px; font-family: 'Times New Roman', 'CMU Serif', 'DejaVu Serif', serif; text-anchor: end" x="27.391406" y="57.283973" transform="rotate(-0 27.391406 57.283973)">10</text>
     </g>
    </g>
    <g id="ytick_7">
     <g id="line2d_18">
      <path d="M 30.891406 35.218006 
L 239.391406 35.218006 
" clip-path="url(#pb8f33b055d)" style="fill: none; stroke-dasharray: 0.5,0.825; stroke-dashoffset: 0; stroke: #b0b0b0; stroke-opacity: 0.6; stroke-width: 0.5"/>
     </g>
     <g id="line2d_19">
      <g>
       <use xlink:href="#m7f12efe840" x="30.891406" y="35.218006" style="stroke: #000000; stroke-width: 0.7"/>
      </g>
     </g>
     <g id="text_13">
      <text style="font-size: 8px; font-family: 'Times New Roman', 'CMU Serif', 'DejaVu Serif', serif; text-anchor: end" x="27.391406" y="37.995506" transform="rotate(-0 27.391406 37.995506)">12</text>
     </g>
    </g>
    <g id="ytick_8">
     <g id="line2d_20">
      <path d="M 30.891406 15.92954 
L 239.391406 15.92954 
" clip-path="url(#pb8f33b055d)" style="fill: none; stroke-dasharray: 0.5,0.825; stroke-dashoffset: 0; stroke: #b0b0b0; stroke-opacity: 0.6; stroke-width: 0.5"/>
     </g>
     <g id="line2d_21">
      <g>
       <use xlink:href="#m7f12efe840" x="30.891406" y="15.92954" style="stroke: #000000; stroke-width: 0.7"/>
      </g>
     </g>
     <g id="text_14">
      <text style="font-size: 8px; font-family: 'Times New Roman', 'CMU Serif', 'DejaVu Serif', serif; text-anchor: end" x="27.391406" y="18.70704" transform="rotate(-0 27.391406 18.70704)">14</text>
     </g>
    </g>
    <g id="text_15">
     <text style="font-size: 9px; font-family: 'Times New Roman', 'CMU Serif', 'DejaVu Serif', serif; text-anchor: middle" x="13.449375" y="79.41" transform="rotate(-90 13.449375 79.41)">Training loss</text>
    </g>
   </g>
   <g id="line2d_22">
    <path d="M 40.368679 13.764545 
L 42.273658 29.676423 
L 43.226148 39.416194 
L 44.178638 45.668644 
L 45.131128 53.514428 
L 46.083617 55.158408 
L 47.036107 62.28697 
L 47.988597 72.153538 
L 48.941086 76.991386 
L 49.893576 84.891121 
L 51.798556 96.116819 
L 52.751045 100.314317 
L 53.703535 102.194728 
L 54.656025 109.365512 
L 55.608515 113.607513 
L 56.561004 114.999766 
L 57.513494 122.063391 
L 58.465984 126.11856 
L 60.370963 133.266286 
L 61.323453 137.259329 
L 62.275943 140.312267 
L 63.228432 142.478857 
L 64.180922 143.215535 
L 65.133412 143.044703 
L 67.038391 143.211434 
L 73.705819 143.698212 
L 74.658309 143.527552 
L 75.610799 143.532192 
L 76.563288 143.807854 
L 78.468268 143.574266 
L 79.420758 143.779437 
L 83.230716 143.677226 
L 84.183206 143.85726 
L 85.135696 143.614547 
L 87.993165 144.093206 
L 88.945655 143.994377 
L 89.898144 144.025463 
L 90.850634 143.921442 
L 91.803124 144.151966 
L 95.613083 144.117945 
L 96.565573 144.249248 
L 97.518062 144.161632 
L 98.470552 144.267591 
L 101.328021 144.219167 
L 102.280511 144.425865 
L 103.233001 144.320541 
L 104.18549 144.354347 
L 105.13798 144.199591 
L 106.09047 144.401742 
L 107.995449 144.482356 
L 108.947939 144.372574 
L 112.757898 144.607727 
L 113.710388 144.338876 
L 114.662877 144.545498 
L 116.567857 144.448032 
L 119.425326 144.678614 
L 120.377816 144.496387 
L 122.282795 144.601612 
L 126.092754 144.709504 
L 127.997733 144.646561 
L 128.950223 144.722673 
L 130.855203 144.676125 
L 131.807692 144.641724 
L 132.760182 144.779953 
L 135.617651 144.770961 
L 139.42761 144.636874 
L 140.3801 144.824635 
L 142.285079 144.689307 
L 143.237569 144.743068 
L 144.190059 144.537437 
L 147.047528 144.830326 
L 148.952507 144.762906 
L 149.904997 144.874694 
L 150.857487 144.716677 
L 151.809976 144.870371 
L 156.572425 144.785707 
L 163.239853 144.982471 
L 166.097322 144.801428 
L 167.049812 144.911994 
L 168.002302 144.860439 
L 168.954791 144.953277 
L 172.76475 144.824863 
L 174.66973 144.903151 
L 176.574709 144.839338 
L 179.432178 144.874583 
L 180.384668 144.735579 
L 181.337158 144.958307 
L 182.289647 145.00033 
L 183.242137 144.899459 
L 186.099606 144.973508 
L 187.052096 144.823776 
L 188.004586 144.965456 
L 190.862055 144.885024 
L 192.767034 144.854577 
L 193.719524 144.876295 
L 194.672014 145.039612 
L 195.624504 144.825896 
L 197.529483 145.018237 
L 199.434462 144.924895 
L 202.291932 144.951949 
L 203.244421 145.047434 
L 204.196911 144.760207 
L 205.149401 144.974463 
L 206.10189 144.835832 
L 207.05438 144.991568 
L 211.816829 144.886344 
L 212.769319 144.976327 
L 215.626788 144.822225 
L 216.579277 145.018918 
L 217.531767 145.055455 
L 220.389236 144.868797 
L 222.294216 145.009904 
L 224.199195 145.038427 
L 227.056664 144.982293 
L 228.009154 144.824501 
L 228.961644 144.977735 
L 229.914134 144.977137 
L 229.914134 144.977137 
" clip-path="url(#pb8f33b055d)" style="fill: none; stroke: #4c72b0; stroke-width: 1.2; stroke-linecap: square"/>
   </g>
   <g id="patch_3">
    <path d="M 30.891406 151.62 
L 30.891406 7.2 
" style="fill: none; stroke: #000000; stroke-width: 0.6; stroke-linejoin: miter; stroke-linecap: square"/>
   </g>
   <g id="patch_4">
    <path d="M 30.891406 151.62 
L 239.391406 151.62 
" style="fill: none; stroke: #000000; stroke-width: 0.6; stroke-linejoin: miter; stroke-linecap: square"/>
   </g>
  </g>
 </g>
 <defs>
  <clipPath id="pb8f33b055d">
   <rect x="30.891406" y="7.2" width="208.5" height="144.42"/>
  </clipPath>
 </defs>
</svg>
