<?xml version="1.0" encoding="utf-8" standalone="no"?>
<!DOCTYPE svg PUBLIC "-//W3C//DTD SVG 1.1//EN"
  "http://www.w3.org/Graphics/SVG/1.1/DTD/svg11.dtd">
<svg xmlns:xlink="http://www.w3.org/1999/xlink" width="238.708281pt" height="182.052812pt" viewBox="0 0 238.708281 182.052812" xmlns="http://www.w3.org/2000/svg" version="1.1">
 <metadata>
  <rdf:RDF xmlns:dc="http://purl.org/dc/elements/1.1/" xmlns:cc="http://creativecommons.org/ns#" xmlns:rdf="http://www.w3.org/1999/02/22-rdf-syntax-ns#">
   <cc:Work>
    <dc:type rdf:resource="http://purl.org/dc/dcmitype/StillImage"/>
    <dc:date>2026-05-18T21:08:56.759421</dc:date>
    <dc:format>image/svg+xml</dc:format>
    <dc:creator>
     <cc:Agent>
      <dc:title>Matplotlib v3.10.7, https://matplotlib.org/</dc:title>
     </cc:Agent>
    </dc:creator>
   </cc:Work>
  </rdf:RDF>
 </metadata>
 <defs>
  <style type="text/css">*{stroke-linejoin: round; stroke-linecap: butt}</style>
 </defs>
 <g id="figure_1">
  <g id="patch_1">
   <path d="M 0 182.052812 
L 238.708281 182.052812 
L 238.708281 0 
L 0 0 
z
" style="fill: #ffffff"/>
  </g>
  <g id="axes_1">
   <g id="patch_2">
    <path d="M 33.718281 150.9 
L 231.508281 150.9 
L 231.508281 7.2 
L 33.718281 7.2 
z
" style="fill: #ffffff"/>
   </g>
   <g id="matplotlib.axis_1">
    <g id="xtick_1">
     <g id="line2d_1">
      <defs>
       <path id="m92bf5b4d4a" d="M 0 0 
L 0 -3 
" style="stroke: #000000; stroke-width: 0.7"/>
      </defs>
      <g>
       <use xlink:href="#m92bf5b4d4a" x="41.805173" y="150.9" style="stroke: #000000; stroke-width: 0.7"/>
      </g>
     </g>
     <g id="text_1">
      <text style="font-size: 8px; font-family: 'Times New Roman', 'CMU Serif', 'DejaVu Serif', serif; text-anchor: middle" x="41.805173" y="160.47875" transform="rotate(-0 41.805173 160.47875)">0</text>
     </g>
    </g>
    <g id="xtick_2">
     <g id="line2d_2">
      <g>
       <use xlink:href="#m92bf5b4d4a" x="86.983336" y="150.9" style="stroke: #000000; stroke-width: 0.7"/>
      </g>
     </g>
     <g id="text_2">
      <text style="font-size: 8px; font-family: 'Times New Roman', 'CMU Serif', 'DejaVu Serif', serif; text-anchor: middle" x="86.983336" y="160.47875" transform="rotate(-0 86.983336 160.47875)">50</text>
     </g>
    </g>
    <g id="xtick_3">
     <g id="line2d_3">
      <g>
       <use xlink:href="#m92bf5b4d4a" x="132.1615" y="150.9" style="stroke: #000000; stroke-width: 0.7"/>
      </g>
     </g>
     <g id="text_3">
      <text style="font-size: 8px; font-family: 'Times New Roman', 'CMU Serif', 'DejaVu Serif', serif; text-anchor: middle" x="132.1615" y="160.47875" transform="rotate(-0 132.1615 160.47875)">100</text>
     </g>
    </g>
    <g id="xtick_4">
     <g id="line2d_4">
      <g>
       <use xlink:href="#m92bf5b4d4a" x="177.339663" y="150.9" style="stroke: #000000; stroke-width: 0.7"/>
      </g>
     </g>
     <g id="text_4">
      <text style="font-size: 8px; font-family: 'Times New Roman', 'CMU Serif', 'DejaVu Serif', serif; text-anchor: middle" x="177.339663" y="160.47875" transform="rotate(-0 177.339663 160.47875)">150</text>
     </g>
    </g>
    <g id="xtick_5">
     <g id="line2d_5">
      <g>
       <use xlink:href="#m92bf5b4d4a" x="222.517827" y="150.9" style="stroke: #000000; stroke-width: 0.7"/>
      </g>
     </g>
     <g id="text_5">
      <text style="font-size: 8px; font-family: 'Times New Roman', 'CMU Serif', 'DejaVu Serif', serif; text-anchor: middle" x="222.517827" y="160.47875" transform="rotate(-0 222.517827 160.47875)">200</text>
     </g>
    </g>
    <g id="text_6">
     <text style="font-size: 9px; font-family: 'Times New Roman', 'CMU Serif', 'DejaVu Serif', serif; text-anchor: middle" x="132.613281" y="172.981094" transform="rotate(-0 132.613281 172.981094)">Epoch</text>
    </g>
   </g>
   <g id="matplotlib.axis_2">
    <g id="ytick_1">
     <g id="line2d_6">
      <path d="M 33.718281 149.845436 
L 231.508281 149.845436 
" clip-path="url(#pcaf272d1fc)" style="fill: none; stroke-dasharray: 0.5,0.825; stroke-dashoffset: 0; stroke: #b0b0b0; stroke-opacity: 0.6; stroke-width: 0.5"/>
     </g>
     <g id="line2d_7">
      <defs>
       <path id="m01039799c6" d="M 0 0 
L 3 0 
" style="stroke: #000000; stroke-width: 0.7"/>
      </defs>
      <g>
       <use xlink:href="#m01039799c6" x="33.718281" y="149.845436" style="stroke: #000000; stroke-width: 0.7"/>
      </g>
     </g>
     <g id="text_7">
      <text style="font-size: 8px; font-family: 'Times New Roman', 'CMU Serif', 'DejaVu Serif', serif; text-anchor: end" x="30.218281" y="152.884811" transform="rotate(-0 30.218281 152.884811)">0</text>
     </g>
    </g>
    <g id="ytick_2">
     <g id="line2d_8">
      <path d="M 33.718281 117.105448 
L 231.508281 117.105448 
" clip-path="url(#pcaf272d1fc)" style="fill: none; stroke-dasharray: 0.5,0.825; stroke-dashoffset: 0; stroke: #b0b0b0; stroke-opacity: 0.6; stroke-width: 0.5"/>
     </g>
     <g id="line2d_9">
      <g>
       <use xlink:href="#m01039799c6" x="33.718281" y="117.105448" style="stroke: #000000; stroke-width: 0.7"/>
      </g>
     </g>
     <g id="text_8">
      <text style="font-size: 8px; font-family: 'Times New Roman', 'CMU Serif', 'DejaVu Serif', serif; text-anchor: end" x="30.218281" y="120.144823" transform="rotate(-0 30.218281 120.144823)">5</text>
     </g>
    </g>
    <g id="ytick_3">
     <g id="line2d_10">
      <path d="M 33.718281 84.36546 
L 231.508281 84.36546 
" clip-path="url(#pcaf272d1fc)" style="fill: none; stroke-dasharray: 0.5,0.825; stroke-dashoffset: 0; stroke: #b0b0b0; stroke-opacity: 0.6; stroke-width: 0.5"/>
     </g>
     <g id="line2d_11">
      <g>
       <use xlink:href="#m01039799c6" x="33.718281" y="84.36546" style="stroke: #000000; stroke-width: 0.7"/>
      </g>
     </g>
     <g id="text_9">
      <text style="font-size: 8px; font-family: 'Times New Roman', 'CMU Serif', 'DejaVu Serif', serif; text-anchor: end" x="30.218281" y="87.404835" transform="rotate(-0 30.218281 87.404835)">10</text>
     </g>
    </g>
    <g id="ytick_4">
     <g id="line2d_12">
      <path d="M 33.718281 51.625472 
L 231.508281 51.625472 
" clip-path="url(#pcaf272d1fc)" style="fill: none; stroke-dasharray: 0.5,0.825; stroke-dashoffset: 0; stroke: #b0b0b0; stroke-opacity: 0.6; stroke-width: 0.5"/>
     </g>
     <g id="line2d_13">
      <g>
       <use xlink:href="#m01039799c6" x="33.718281" y="51.625472" style="stroke: #000000; stroke-width: 0.7"/>
      </g>
     </g>
     <g id="text_10">
      <text style="font-size: 8px; font-family: 'Times New Roman', 'CMU Serif', 'DejaVu Serif', serif; text-anchor: end" x="30.218281" y="54.664847" transform="rotate(-0 30.218281 54.664847)">15</text>
     </g>
    </g>
    <g id="ytick_5">
     <g id="line2d_14">
      <path d="M 33.718281 18.885484 
L 231.508281 18.885484 
" clip-path="url(#pcaf272d1fc)" style="fill: none; stroke-dasharray: 0.5,0.825; stroke-dashoffset: 0; stroke: #b0b0b0; stroke-opacity: 0.6; stroke-width: 0.5"/>
     </g>
     <g id="line2d_15">
      <g>
       <use xlink:href="#m01039799c6" x="33.718281" y="18.885484" style="stroke: #000000; stroke-width: 0.7"/>
      </g>
     </g>
     <g id="text_11">
      <text style="font-size: 8px; font-family: 'Times New Roman', 'CMU Serif', 'DejaVu Serif', serif; text-anchor: end" x="30.218281" y="21.924859" transform="rotate(-0 30.218281 21.924859)">20</text>
     </g>
    </g>
    <g id="text_12">
     <text style="font-size: 9px; font-family: 'Times New Roman', 'CMU Serif', 'DejaVu Serif', serif; text-anchor: middle" x="14.038594" y="79.05" transform="rotate(-90 14.038594 79.05)">Training loss</text>
    </g>
   </g>
   <g id="line2d_16">
    <path d="M 42.708736 13.731818 
L 43.612299 16.007565 
L 44.515862 18.79064 
L 46.322989 23.399784 
L 47.226552 25.665564 
L 48.130115 27.611206 
L 49.033679 29.888232 
L 49.937242 31.712721 
L 51.744369 36.161509 
L 56.262185 45.736982 
L 57.165748 47.672529 
L 58.069311 49.177669 
L 59.876438 52.795146 
L 60.780001 54.371201 
L 61.683564 56.240876 
L 62.587128 57.716991 
L 63.490691 59.513467 
L 64.394254 60.93432 
L 65.297818 62.623481 
L 69.815634 69.843575 
L 70.719197 71.478917 
L 76.140577 79.830367 
L 77.04414 80.931226 
L 79.75483 84.956692 
L 80.658393 86.166194 
L 81.561956 87.576953 
L 82.46552 88.727575 
L 84.272646 91.424948 
L 87.886899 96.291058 
L 89.694026 98.937951 
L 90.597589 99.856014 
L 92.404716 102.495026 
L 93.308279 103.460596 
L 96.018969 107.044388 
L 98.729659 110.724475 
L 99.633222 111.650394 
L 100.536785 112.966343 
L 103.247475 116.340734 
L 104.151038 117.532633 
L 105.054601 118.485683 
L 105.958165 119.811731 
L 108.668855 123.046318 
L 110.475981 125.285156 
L 112.283108 127.409456 
L 113.186671 128.622519 
L 121.31874 137.535353 
L 124.932993 140.427077 
L 126.74012 141.488933 
L 129.45081 142.577793 
L 132.1615 143.190659 
L 138.486443 143.490011 
L 152.039892 143.650105 
L 197.218055 144.143422 
L 222.517827 144.368182 
L 222.517827 144.368182 
" clip-path="url(#pcaf272d1fc)" style="fill: none; stroke: #4c72b0; stroke-width: 1.2; stroke-linecap: square"/>
   </g>
   <g id="patch_3">
    <path d="M 33.718281 150.9 
L 33.718281 7.2 
" style="fill: none; stroke: #000000; stroke-width: 0.6; stroke-linejoin: miter; stroke-linecap: square"/>
   </g>
   <g id="patch_4">
    <path d="M 33.718281 150.9 
L 231.508281 150.9 
" style="fill: none; stroke: #000000; stroke-width: 0.6; stroke-linejoin: miter; stroke-linecap: square"/>
   </g>
  </g>
 </g>
 <defs>
  <clipPath id="pcaf272d1fc">
   <rect x="33.718281" y="7.2" width="197.79" height="143.7"/>
  </clipPath>
 </defs>
</svg>
