<?xml version="1.0" encoding="utf-8" standalone="no"?>
<!DOCTYPE svg PUBLIC "-//W3C//DTD SVG 1.1//EN"
  "http://www.w3.org/Graphics/SVG/1.1/DTD/svg11.dtd">
<svg xmlns:xlink="http://www.w3.org/1999/xlink" width="246.521406pt" height="181.760781pt" viewBox="0 0 246.521406 181.760781" xmlns="http://www.w3.org/2000/svg" version="1.1">
 <metadata>
  <rdf:RDF xmlns:dc="http://purl.org/dc/elements/1.1/" xmlns:cc="http://creativecommons.org/ns#" xmlns:rdf="http://www.w3.org/1999/02/22-rdf-syntax-ns#">
   <cc:Work>
    <dc:type rdf:resource="http://purl.org/dc/dcmitype/StillImage"/>
    <dc:date>2026-05-22T04:19:28.582540</dc:date>
    <dc:format>image/svg+xml</dc:format>
    <dc:creator>
     <cc:Agent>
      <dc:title>Matplotlib v3.10.7, https://matplotlib.org/</dc:title>
     </cc:Agent>
    </dc:creator>
   </cc:Work>
  </rdf:RDF>
 </metadata>
 <defs>
  <style type="text/css">*{stroke-linejoin: round; stroke-linecap: butt}</style>
 </defs>
 <g id="figure_1">
  <g id="patch_1">
   <path d="M 0 181.760781 
L 246.521406 181.760781 
L 246.521406 0 
L 0 0 
z
" style="fill: #ffffff"/>
  </g>
  <g id="axes_1">
   <g id="patch_2">
    <path d="M 32.891406 151.62 
L 239.321406 151.62 
L 239.321406 7.2 
L 32.891406 7.2 
z
" style="fill: #ffffff"/>
   </g>
   <g id="matplotlib.axis_1">
    <g id="xtick_1">
     <g id="line2d_1">
      <defs>
       <path id="m50fd390247" d="M 0 0 
L 0 -3 
" style="stroke: #000000; stroke-width: 0.7"/>
      </defs>
      <g>
       <use xlink:href="#m50fd390247" x="41.331555" y="151.62" style="stroke: #000000; stroke-width: 0.7"/>
      </g>
     </g>
     <g id="text_1">
      <text style="font-size: 8px; font-family: 'Times New Roman', 'CMU Serif', 'DejaVu Serif', serif; text-anchor: middle" x="41.331555" y="160.675" transform="rotate(-0 41.331555 160.675)">0</text>
     </g>
    </g>
    <g id="xtick_2">
     <g id="line2d_2">
      <g>
       <use xlink:href="#m50fd390247" x="88.483222" y="151.62" style="stroke: #000000; stroke-width: 0.7"/>
      </g>
     </g>
     <g id="text_2">
      <text style="font-size: 8px; font-family: 'Times New Roman', 'CMU Serif', 'DejaVu Serif', serif; text-anchor: middle" x="88.483222" y="160.675" transform="rotate(-0 88.483222 160.675)">50</text>
     </g>
    </g>
    <g id="xtick_3">
     <g id="line2d_3">
      <g>
       <use xlink:href="#m50fd390247" x="135.63489" y="151.62" style="stroke: #000000; stroke-width: 0.7"/>
      </g>
     </g>
     <g id="text_3">
      <text style="font-size: 8px; font-family: 'Times New Roman', 'CMU Serif', 'DejaVu Serif', serif; text-anchor: middle" x="135.63489" y="160.675" transform="rotate(-0 135.63489 160.675)">100</text>
     </g>
    </g>
    <g id="xtick_4">
     <g id="line2d_4">
      <g>
       <use xlink:href="#m50fd390247" x="182.786557" y="151.62" style="stroke: #000000; stroke-width: 0.7"/>
      </g>
     </g>
     <g id="text_4">
      <text style="font-size: 8px; font-family: 'Times New Roman', 'CMU Serif', 'DejaVu Serif', serif; text-anchor: middle" x="182.786557" y="160.675" transform="rotate(-0 182.786557 160.675)">150</text>
     </g>
    </g>
    <g id="xtick_5">
     <g id="line2d_5">
      <g>
       <use xlink:href="#m50fd390247" x="229.938224" y="151.62" style="stroke: #000000; stroke-width: 0.7"/>
      </g>
     </g>
     <g id="text_5">
      <text style="font-size: 8px; font-family: 'Times New Roman', 'CMU Serif', 'DejaVu Serif', serif; text-anchor: middle" x="229.938224" y="160.675" transform="rotate(-0 229.938224 160.675)">200</text>
     </g>
    </g>
    <g id="text_6">
     <text style="font-size: 9px; font-family: 'Times New Roman', 'CMU Serif', 'DejaVu Serif', serif; text-anchor: middle" x="136.106406" y="172.635625" transform="rotate(-0 136.106406 172.635625)">Epoch</text>
    </g>
   </g>
   <g id="matplotlib.axis_2">
    <g id="ytick_1">
     <g id="line2d_6">
      <path d="M 32.891406 139.787067 
L 239.321406 139.787067 
" clip-path="url(#pdbf6614e8b)" style="fill: none; stroke-dasharray: 0.5,0.825; stroke-dashoffset: 0; stroke: #b0b0b0; stroke-opacity: 0.6; stroke-width: 0.5"/>
     </g>
     <g id="line2d_7">
      <defs>
       <path id="m8be0507c3c" d="M 0 0 
L 3 0 
" style="stroke: #000000; stroke-width: 0.7"/>
      </defs>
      <g>
       <use xlink:href="#m8be0507c3c" x="32.891406" y="139.787067" style="stroke: #000000; stroke-width: 0.7"/>
      </g>
     </g>
     <g id="text_7">
      <text style="font-size: 8px; font-family: 'Times New Roman', 'CMU Serif', 'DejaVu Serif', serif; text-anchor: end" x="29.391406" y="142.564567" transform="rotate(-0 29.391406 142.564567)">0.5</text>
     </g>
    </g>
    <g id="ytick_2">
     <g id="line2d_8">
      <path d="M 32.891406 108.556035 
L 239.321406 108.556035 
" clip-path="url(#pdbf6614e8b)" style="fill: none; stroke-dasharray: 0.5,0.825; stroke-dashoffset: 0; stroke: #b0b0b0; stroke-opacity: 0.6; stroke-width: 0.5"/>
     </g>
     <g id="line2d_9">
      <g>
       <use xlink:href="#m8be0507c3c" x="32.891406" y="108.556035" style="stroke: #000000; stroke-width: 0.7"/>
      </g>
     </g>
     <g id="text_8">
      <text style="font-size: 8px; font-family: 'Times New Roman', 'CMU Serif', 'DejaVu Serif', serif; text-anchor: end" x="29.391406" y="111.333535" transform="rotate(-0 29.391406 111.333535)">1.0</text>
     </g>
    </g>
    <g id="ytick_3">
     <g id="line2d_10">
      <path d="M 32.891406 77.325004 
L 239.321406 77.325004 
" clip-path="url(#pdbf6614e8b)" style="fill: none; stroke-dasharray: 0.5,0.825; stroke-dashoffset: 0; stroke: #b0b0b0; stroke-opacity: 0.6; stroke-width: 0.5"/>
     </g>
     <g id="line2d_11">
      <g>
       <use xlink:href="#m8be0507c3c" x="32.891406" y="77.325004" style="stroke: #000000; stroke-width: 0.7"/>
      </g>
     </g>
     <g id="text_9">
      <text style="font-size: 8px; font-family: 'Times New Roman', 'CMU Serif', 'DejaVu Serif', serif; text-anchor: end" x="29.391406" y="80.102504" transform="rotate(-0 29.391406 80.102504)">1.5</text>
     </g>
    </g>
    <g id="ytick_4">
     <g id="line2d_12">
      <path d="M 32.891406 46.093972 
L 239.321406 46.093972 
" clip-path="url(#pdbf6614e8b)" style="fill: none; stroke-dasharray: 0.5,0.825; stroke-dashoffset: 0; stroke: #b0b0b0; stroke-opacity: 0.6; stroke-width: 0.5"/>
     </g>
     <g id="line2d_13">
      <g>
       <use xlink:href="#m8be0507c3c" x="32.891406" y="46.093972" style="stroke: #000000; stroke-width: 0.7"/>
      </g>
     </g>
     <g id="text_10">
      <text style="font-size: 8px; font-family: 'Times New Roman', 'CMU Serif', 'DejaVu Serif', serif; text-anchor: end" x="29.391406" y="48.871472" transform="rotate(-0 29.391406 48.871472)">2.0</text>
     </g>
    </g>
    <g id="ytick_5">
     <g id="line2d_14">
      <path d="M 32.891406 14.86294 
L 239.321406 14.86294 
" clip-path="url(#pdbf6614e8b)" style="fill: none; stroke-dasharray: 0.5,0.825; stroke-dashoffset: 0; stroke: #b0b0b0; stroke-opacity: 0.6; stroke-width: 0.5"/>
     </g>
     <g id="line2d_15">
      <g>
       <use xlink:href="#m8be0507c3c" x="32.891406" y="14.86294" style="stroke: #000000; stroke-width: 0.7"/>
      </g>
     </g>
     <g id="text_11">
      <text style="font-size: 8px; font-family: 'Times New Roman', 'CMU Serif', 'DejaVu Serif', serif; text-anchor: end" x="29.391406" y="17.64044" transform="rotate(-0 29.391406 17.64044)">2.5</text>
     </g>
    </g>
    <g id="text_12">
     <text style="font-size: 9px; font-family: 'Times New Roman', 'CMU Serif', 'DejaVu Serif', serif; text-anchor: middle" x="13.449375" y="79.41" transform="rotate(-90 13.449375 79.41)">Training loss</text>
    </g>
   </g>
   <g id="line2d_16">
    <path d="M 42.274588 13.764545 
L 43.217621 86.618589 
L 44.160655 96.99154 
L 45.103688 124.805087 
L 46.046721 118.530759 
L 46.989755 105.85365 
L 47.932788 101.761434 
L 48.875822 121.614675 
L 49.818855 99.416588 
L 50.761888 127.09588 
L 51.704922 129.269828 
L 52.647955 118.14072 
L 53.590988 109.971002 
L 54.534022 122.983027 
L 55.477055 123.31376 
L 56.420088 115.132769 
L 57.363122 131.029387 
L 58.306155 109.487378 
L 59.249188 121.25562 
L 60.192222 128.069461 
L 61.135255 127.089242 
L 62.078288 123.885854 
L 63.021322 126.734899 
L 63.964355 123.728413 
L 64.907388 125.280993 
L 65.850422 127.73084 
L 66.793455 132.931031 
L 67.736488 132.419082 
L 68.679522 129.048231 
L 69.622555 120.876224 
L 70.565589 134.977923 
L 71.508622 116.355315 
L 72.451655 129.017759 
L 73.394689 113.623939 
L 74.337722 132.582718 
L 75.280755 122.126797 
L 76.223789 135.584163 
L 77.166822 123.593165 
L 78.109855 124.300316 
L 79.052889 122.839282 
L 79.995922 104.566839 
L 80.938955 132.441253 
L 81.881989 125.028951 
L 82.825022 128.206421 
L 83.768055 137.726891 
L 84.711089 133.199286 
L 85.654122 117.452357 
L 86.597155 120.418633 
L 87.540189 124.854558 
L 88.483222 131.739694 
L 89.426255 122.098021 
L 90.369289 135.553838 
L 91.312322 120.093706 
L 92.255356 133.993504 
L 93.198389 125.123061 
L 94.141422 133.472446 
L 95.084456 127.14586 
L 96.027489 125.851446 
L 96.970522 131.043392 
L 97.913556 127.605039 
L 98.856589 113.128373 
L 99.799622 132.043236 
L 100.742656 128.254015 
L 101.685689 136.23254 
L 102.628722 120.868227 
L 103.571756 69.346114 
L 104.514789 105.955115 
L 105.457822 89.467746 
L 106.400856 111.516829 
L 107.343889 118.181436 
L 108.286922 117.497937 
L 109.229956 125.626864 
L 110.172989 132.354272 
L 111.116023 128.764095 
L 112.059056 133.505826 
L 113.002089 136.92235 
L 113.945123 130.215544 
L 114.888156 136.33561 
L 115.831189 136.443843 
L 116.774223 131.503604 
L 117.717256 115.840801 
L 118.660289 126.55664 
L 119.603323 130.037262 
L 120.546356 117.44079 
L 121.489389 118.160318 
L 122.432423 134.510424 
L 123.375456 122.965254 
L 124.318489 127.144754 
L 125.261523 132.342053 
L 126.204556 138.78544 
L 127.147589 128.377389 
L 128.090623 135.807138 
L 129.033656 125.680113 
L 129.976689 135.035734 
L 130.919723 130.627029 
L 131.862756 136.269474 
L 132.80579 118.835316 
L 134.691856 135.937428 
L 135.63489 110.729327 
L 136.577923 131.222563 
L 137.520956 126.322534 
L 138.46399 91.123628 
L 139.407023 134.001717 
L 140.350056 103.01696 
L 141.29309 133.970263 
L 142.236123 102.042711 
L 143.179156 134.856856 
L 144.12219 109.125804 
L 145.065223 132.454491 
L 146.008256 120.492327 
L 146.95129 121.930751 
L 147.894323 127.311722 
L 148.837356 128.206416 
L 149.78039 102.371594 
L 150.723423 135.725941 
L 151.666457 130.161334 
L 152.60949 138.152231 
L 153.552523 138.106419 
L 154.495557 129.704303 
L 155.43859 135.624304 
L 156.381623 138.107015 
L 157.324657 139.430175 
L 158.26769 141.984741 
L 159.210723 139.718366 
L 160.153757 137.121792 
L 161.09679 142.776398 
L 162.039823 138.249476 
L 162.982857 134.539297 
L 163.92589 135.375012 
L 164.868923 135.841258 
L 165.811957 139.949464 
L 166.75499 137.022657 
L 167.698023 139.265646 
L 168.641057 133.160139 
L 169.58409 141.492808 
L 170.527123 137.038315 
L 171.470157 139.822735 
L 172.41319 138.833458 
L 173.356224 135.847535 
L 174.299257 138.249615 
L 175.24229 141.201648 
L 176.185324 142.724044 
L 177.128357 123.965012 
L 178.07139 137.001708 
L 179.014424 131.125277 
L 179.957457 127.248688 
L 181.843524 139.947396 
L 182.786557 136.686744 
L 183.72959 135.612366 
L 184.672624 140.075765 
L 185.615657 133.81104 
L 186.55869 136.315465 
L 187.501724 138.48973 
L 188.444757 124.738708 
L 189.38779 143.541245 
L 190.330824 127.351079 
L 191.273857 134.992344 
L 192.21689 134.861733 
L 193.159924 139.953287 
L 194.102957 137.107354 
L 195.045991 139.225267 
L 195.989024 140.5896 
L 196.932057 136.114246 
L 197.875091 135.860799 
L 198.818124 135.843451 
L 199.761157 134.791371 
L 200.704191 140.57429 
L 201.647224 140.544363 
L 202.590257 134.145116 
L 203.533291 144.015865 
L 204.476324 138.816064 
L 205.419357 131.351946 
L 206.362391 138.577754 
L 207.305424 140.92586 
L 208.248457 138.21653 
L 209.191491 142.285048 
L 210.134524 142.714864 
L 211.077557 143.993502 
L 212.020591 145.055455 
L 212.963624 143.270203 
L 213.906658 129.915141 
L 214.849691 130.489174 
L 215.792724 138.037585 
L 216.735758 138.556475 
L 217.678791 135.743142 
L 218.621824 142.803247 
L 219.564858 134.89337 
L 220.507891 133.683527 
L 221.450924 137.807204 
L 222.393958 136.391952 
L 223.336991 141.60441 
L 224.280024 143.660777 
L 225.223058 136.664158 
L 226.166091 103.624496 
L 227.109124 143.080728 
L 228.052158 131.325929 
L 228.995191 140.735091 
L 229.938224 128.087003 
L 229.938224 128.087003 
" clip-path="url(#pdbf6614e8b)" style="fill: none; stroke: #4c72b0; stroke-width: 1.2; stroke-linecap: square"/>
   </g>
   <g id="patch_3">
    <path d="M 32.891406 151.62 
L 32.891406 7.2 
" style="fill: none; stroke: #000000; stroke-width: 0.6; stroke-linejoin: miter; stroke-linecap: square"/>
   </g>
   <g id="patch_4">
    <path d="M 32.891406 151.62 
L 239.321406 151.62 
" style="fill: none; stroke: #000000; stroke-width: 0.6; stroke-linejoin: miter; stroke-linecap: square"/>
   </g>
  </g>
 </g>
 <defs>
  <clipPath id="pdbf6614e8b">
   <rect x="32.891406" y="7.2" width="206.43" height="144.42"/>
  </clipPath>
 </defs>
</svg>
