<?xml version="1.0" encoding="utf-8" standalone="no"?>
<!DOCTYPE svg PUBLIC "-//W3C//DTD SVG 1.1//EN"
  "http://www.w3.org/Graphics/SVG/1.1/DTD/svg11.dtd">
<svg xmlns:xlink="http://www.w3.org/1999/xlink" width="246.398281pt" height="182.052813pt" viewBox="0 0 246.398281 182.052813" xmlns="http://www.w3.org/2000/svg" version="1.1">
 <metadata>
  <rdf:RDF xmlns:dc="http://purl.org/dc/elements/1.1/" xmlns:cc="http://creativecommons.org/ns#" xmlns:rdf="http://www.w3.org/1999/02/22-rdf-syntax-ns#">
   <cc:Work>
    <dc:type rdf:resource="http://purl.org/dc/dcmitype/StillImage"/>
    <dc:date>2026-05-18T17:50:37.477299</dc:date>
    <dc:format>image/svg+xml</dc:format>
    <dc:creator>
     <cc:Agent>
      <dc:title>Matplotlib v3.10.7, https://matplotlib.org/</dc:title>
     </cc:Agent>
    </dc:creator>
   </cc:Work>
  </rdf:RDF>
 </metadata>
 <defs>
  <style type="text/css">*{stroke-linejoin: round; stroke-linecap: butt}</style>
 </defs>
 <g id="figure_1">
  <g id="patch_1">
   <path d="M 0 182.052813 
L 246.398281 182.052813 
L 246.398281 0 
L 0 0 
z
" style="fill: #ffffff"/>
  </g>
  <g id="axes_1">
   <g id="patch_2">
    <path d="M 28.628281 150.9 
L 239.198281 150.9 
L 239.198281 7.2 
L 28.628281 7.2 
z
" style="fill: #ffffff"/>
   </g>
   <g id="matplotlib.axis_1">
    <g id="xtick_1">
     <g id="line2d_1">
      <defs>
       <path id="m9e9d8f05ad" d="M 0 0 
L 0 -3 
" style="stroke: #000000; stroke-width: 0.7"/>
      </defs>
      <g>
       <use xlink:href="#m9e9d8f05ad" x="37.237699" y="150.9" style="stroke: #000000; stroke-width: 0.7"/>
      </g>
     </g>
     <g id="text_1">
      <text style="font-size: 8px; font-family: 'Times New Roman', 'CMU Serif', 'DejaVu Serif', serif; text-anchor: middle" x="37.237699" y="160.47875" transform="rotate(-0 37.237699 160.47875)">0</text>
     </g>
    </g>
    <g id="xtick_2">
     <g id="line2d_2">
      <g>
       <use xlink:href="#m9e9d8f05ad" x="85.335003" y="150.9" style="stroke: #000000; stroke-width: 0.7"/>
      </g>
     </g>
     <g id="text_2">
      <text style="font-size: 8px; font-family: 'Times New Roman', 'CMU Serif', 'DejaVu Serif', serif; text-anchor: middle" x="85.335003" y="160.47875" transform="rotate(-0 85.335003 160.47875)">50</text>
     </g>
    </g>
    <g id="xtick_3">
     <g id="line2d_3">
      <g>
       <use xlink:href="#m9e9d8f05ad" x="133.432308" y="150.9" style="stroke: #000000; stroke-width: 0.7"/>
      </g>
     </g>
     <g id="text_3">
      <text style="font-size: 8px; font-family: 'Times New Roman', 'CMU Serif', 'DejaVu Serif', serif; text-anchor: middle" x="133.432308" y="160.47875" transform="rotate(-0 133.432308 160.47875)">100</text>
     </g>
    </g>
    <g id="xtick_4">
     <g id="line2d_4">
      <g>
       <use xlink:href="#m9e9d8f05ad" x="181.529613" y="150.9" style="stroke: #000000; stroke-width: 0.7"/>
      </g>
     </g>
     <g id="text_4">
      <text style="font-size: 8px; font-family: 'Times New Roman', 'CMU Serif', 'DejaVu Serif', serif; text-anchor: middle" x="181.529613" y="160.47875" transform="rotate(-0 181.529613 160.47875)">150</text>
     </g>
    </g>
    <g id="xtick_5">
     <g id="line2d_5">
      <g>
       <use xlink:href="#m9e9d8f05ad" x="229.626918" y="150.9" style="stroke: #000000; stroke-width: 0.7"/>
      </g>
     </g>
     <g id="text_5">
      <text style="font-size: 8px; font-family: 'Times New Roman', 'CMU Serif', 'DejaVu Serif', serif; text-anchor: middle" x="229.626918" y="160.47875" transform="rotate(-0 229.626918 160.47875)">200</text>
     </g>
    </g>
    <g id="text_6">
     <text style="font-size: 9px; font-family: 'Times New Roman', 'CMU Serif', 'DejaVu Serif', serif; text-anchor: middle" x="133.913281" y="172.981094" transform="rotate(-0 133.913281 172.981094)">Epoch</text>
    </g>
   </g>
   <g id="matplotlib.axis_2">
    <g id="ytick_1">
     <g id="line2d_6">
      <path d="M 28.628281 144.550867 
L 239.198281 144.550867 
" clip-path="url(#p58e3cfef79)" style="fill: none; stroke-dasharray: 0.5,0.825; stroke-dashoffset: 0; stroke: #b0b0b0; stroke-opacity: 0.6; stroke-width: 0.5"/>
     </g>
     <g id="line2d_7">
      <defs>
       <path id="mb93a11b5a5" d="M 0 0 
L 3 0 
" style="stroke: #000000; stroke-width: 0.7"/>
      </defs>
      <g>
       <use xlink:href="#mb93a11b5a5" x="28.628281" y="144.550867" style="stroke: #000000; stroke-width: 0.7"/>
      </g>
     </g>
     <g id="text_7">
      <text style="font-size: 8px; font-family: 'Times New Roman', 'CMU Serif', 'DejaVu Serif', serif; text-anchor: end" x="25.128281" y="147.590242" transform="rotate(-0 25.128281 147.590242)">0</text>
     </g>
    </g>
    <g id="ytick_2">
     <g id="line2d_8">
      <path d="M 28.628281 118.400113 
L 239.198281 118.400113 
" clip-path="url(#p58e3cfef79)" style="fill: none; stroke-dasharray: 0.5,0.825; stroke-dashoffset: 0; stroke: #b0b0b0; stroke-opacity: 0.6; stroke-width: 0.5"/>
     </g>
     <g id="line2d_9">
      <g>
       <use xlink:href="#mb93a11b5a5" x="28.628281" y="118.400113" style="stroke: #000000; stroke-width: 0.7"/>
      </g>
     </g>
     <g id="text_8">
      <text style="font-size: 8px; font-family: 'Times New Roman', 'CMU Serif', 'DejaVu Serif', serif; text-anchor: end" x="25.128281" y="121.439488" transform="rotate(-0 25.128281 121.439488)">1</text>
     </g>
    </g>
    <g id="ytick_3">
     <g id="line2d_10">
      <path d="M 28.628281 92.249359 
L 239.198281 92.249359 
" clip-path="url(#p58e3cfef79)" style="fill: none; stroke-dasharray: 0.5,0.825; stroke-dashoffset: 0; stroke: #b0b0b0; stroke-opacity: 0.6; stroke-width: 0.5"/>
     </g>
     <g id="line2d_11">
      <g>
       <use xlink:href="#mb93a11b5a5" x="28.628281" y="92.249359" style="stroke: #000000; stroke-width: 0.7"/>
      </g>
     </g>
     <g id="text_9">
      <text style="font-size: 8px; font-family: 'Times New Roman', 'CMU Serif', 'DejaVu Serif', serif; text-anchor: end" x="25.128281" y="95.288734" transform="rotate(-0 25.128281 95.288734)">2</text>
     </g>
    </g>
    <g id="ytick_4">
     <g id="line2d_12">
      <path d="M 28.628281 66.098605 
L 239.198281 66.098605 
" clip-path="url(#p58e3cfef79)" style="fill: none; stroke-dasharray: 0.5,0.825; stroke-dashoffset: 0; stroke: #b0b0b0; stroke-opacity: 0.6; stroke-width: 0.5"/>
     </g>
     <g id="line2d_13">
      <g>
       <use xlink:href="#mb93a11b5a5" x="28.628281" y="66.098605" style="stroke: #000000; stroke-width: 0.7"/>
      </g>
     </g>
     <g id="text_10">
      <text style="font-size: 8px; font-family: 'Times New Roman', 'CMU Serif', 'DejaVu Serif', serif; text-anchor: end" x="25.128281" y="69.13798" transform="rotate(-0 25.128281 69.13798)">3</text>
     </g>
    </g>
    <g id="ytick_5">
     <g id="line2d_14">
      <path d="M 28.628281 39.94785 
L 239.198281 39.94785 
" clip-path="url(#p58e3cfef79)" style="fill: none; stroke-dasharray: 0.5,0.825; stroke-dashoffset: 0; stroke: #b0b0b0; stroke-opacity: 0.6; stroke-width: 0.5"/>
     </g>
     <g id="line2d_15">
      <g>
       <use xlink:href="#mb93a11b5a5" x="28.628281" y="39.94785" style="stroke: #000000; stroke-width: 0.7"/>
      </g>
     </g>
     <g id="text_11">
      <text style="font-size: 8px; font-family: 'Times New Roman', 'CMU Serif', 'DejaVu Serif', serif; text-anchor: end" x="25.128281" y="42.987225" transform="rotate(-0 25.128281 42.987225)">4</text>
     </g>
    </g>
    <g id="ytick_6">
     <g id="line2d_16">
      <path d="M 28.628281 13.797096 
L 239.198281 13.797096 
" clip-path="url(#p58e3cfef79)" style="fill: none; stroke-dasharray: 0.5,0.825; stroke-dashoffset: 0; stroke: #b0b0b0; stroke-opacity: 0.6; stroke-width: 0.5"/>
     </g>
     <g id="line2d_17">
      <g>
       <use xlink:href="#mb93a11b5a5" x="28.628281" y="13.797096" style="stroke: #000000; stroke-width: 0.7"/>
      </g>
     </g>
     <g id="text_12">
      <text style="font-size: 8px; font-family: 'Times New Roman', 'CMU Serif', 'DejaVu Serif', serif; text-anchor: end" x="25.128281" y="16.836471" transform="rotate(-0 25.128281 16.836471)">5</text>
     </g>
    </g>
    <g id="text_13">
     <text style="font-size: 9px; font-family: 'Times New Roman', 'CMU Serif', 'DejaVu Serif', serif; text-anchor: middle" x="14.038594" y="79.05" transform="rotate(-90 14.038594 79.05)">Training loss</text>
    </g>
   </g>
   <g id="line2d_18">
    <path d="M 38.199645 13.731818 
L 39.161591 111.226436 
L 40.123537 126.502963 
L 41.085483 129.843491 
L 42.047429 130.963727 
L 43.971321 132.223703 
L 44.933268 132.627725 
L 45.895214 132.728694 
L 46.85716 133.416432 
L 47.819106 133.869179 
L 49.742998 133.293536 
L 50.704944 134.094823 
L 51.66689 134.551179 
L 52.628836 134.505375 
L 53.590782 134.144547 
L 54.552728 134.991711 
L 55.514675 135.341724 
L 56.476621 135.001521 
L 58.400513 135.572027 
L 59.362459 136.096555 
L 60.324405 136.189467 
L 61.286351 135.99955 
L 63.210243 136.949139 
L 64.172189 137.344716 
L 65.134136 136.33835 
L 66.096082 136.518906 
L 67.058028 137.555882 
L 68.019974 137.963085 
L 68.98192 138.024673 
L 69.943866 137.700937 
L 70.905812 138.483479 
L 72.829704 138.534555 
L 73.79165 139.019607 
L 74.753596 139.090004 
L 75.715543 138.13017 
L 76.677489 138.262192 
L 77.639435 137.15358 
L 78.601381 138.165625 
L 79.563327 138.096664 
L 80.525273 138.831745 
L 81.487219 139.872783 
L 82.449165 140.206348 
L 83.411111 140.361735 
L 84.373057 140.245072 
L 85.335003 140.452972 
L 86.29695 140.285717 
L 87.258896 140.689382 
L 90.144734 140.71589 
L 91.10668 141.112073 
L 92.068626 140.829821 
L 93.030572 141.037738 
L 93.992518 141.479996 
L 94.954464 141.329764 
L 96.878357 141.495712 
L 97.840303 141.676898 
L 99.764195 141.575446 
L 100.726141 141.908228 
L 111.307548 142.551121 
L 114.193386 142.740455 
L 116.117279 142.415297 
L 117.079225 142.509213 
L 119.003117 142.996229 
L 119.965063 142.861874 
L 120.927009 143.008963 
L 121.888955 142.717002 
L 122.850901 143.141089 
L 124.774793 143.194152 
L 125.736739 143.307801 
L 130.54647 143.235175 
L 131.508416 142.927665 
L 132.470362 143.261264 
L 135.3562 143.562818 
L 138.242039 143.472856 
L 140.165931 143.634576 
L 142.089823 143.669347 
L 143.051769 143.439549 
L 144.013715 143.441045 
L 144.975661 143.656396 
L 146.899554 143.631778 
L 147.8615 143.399713 
L 148.823446 143.692815 
L 149.785392 143.774396 
L 150.747338 143.692282 
L 152.67123 143.798024 
L 153.633176 143.84283 
L 154.595122 143.773298 
L 156.519014 143.749316 
L 159.404853 143.358829 
L 160.366799 143.47328 
L 161.328745 143.80403 
L 163.252637 143.978745 
L 166.138475 143.836052 
L 169.024314 144.021496 
L 187.301289 144.135466 
L 190.187128 144.179968 
L 193.072966 144.174566 
L 229.626918 144.368182 
L 229.626918 144.368182 
" clip-path="url(#p58e3cfef79)" style="fill: none; stroke: #4c72b0; stroke-width: 1.2; stroke-linecap: square"/>
   </g>
   <g id="patch_3">
    <path d="M 28.628281 150.9 
L 28.628281 7.2 
" style="fill: none; stroke: #000000; stroke-width: 0.6; stroke-linejoin: miter; stroke-linecap: square"/>
   </g>
   <g id="patch_4">
    <path d="M 28.628281 150.9 
L 239.198281 150.9 
" style="fill: none; stroke: #000000; stroke-width: 0.6; stroke-linejoin: miter; stroke-linecap: square"/>
   </g>
  </g>
 </g>
 <defs>
  <clipPath id="p58e3cfef79">
   <rect x="28.628281" y="7.2" width="210.57" height="143.7"/>
  </clipPath>
 </defs>
</svg>
